{"glyphs":{"0":{"ha":817,"x_min":38,"x_max":778,"o":"m 406 1008 q 578 969 507 1008 q 693 861 649 931 q 758 697 738 792 q 778 490 778 601 q 758 283 778 376 q 693 122 738 189 q 578 17 649 54 q 407 -19 508 -19 q 235 17 306 -19 q 122 122 165 54 q 58 283 78 189 q 38 490 38 376 q 58 697 38 603 q 122 861 78 792 q 236 969 167 931 q 406 1008 306 1008 m 407 835 q 329 810 360 835 q 280 739 299 785 q 253 629 261 693 q 246 488 246 565 q 254 349 246 411 q 281 242 263 286 q 331 173 300 197 q 408 149 363 149 q 485 173 454 149 q 534 242 515 197 q 560 349 553 286 q 568 490 568 413 q 561 630 568 567 q 535 739 554 693 q 485 810 517 785 q 407 835 454 835 z "},"1":{"ha":817,"x_min":99,"x_max":735,"o":"m 119 158 l 336 158 l 336 682 l 99 682 l 99 826 l 108 826 q 288 863 225 826 q 360 988 351 899 l 538 988 l 538 158 l 735 158 l 735 0 l 119 0 l 119 158 z "},"2":{"ha":817,"x_min":54,"x_max":757,"o":"m 322 167 q 346 167 333 167 q 378 168 358 168 q 426 168 397 168 q 497 168 454 168 l 757 168 l 757 0 l 56 0 l 56 157 q 186 271 124 218 q 321 385 249 324 q 425 477 383 438 q 493 551 467 517 q 531 619 519 585 q 542 693 542 653 q 508 794 542 754 q 404 833 474 833 q 287 782 322 833 q 251 647 251 731 l 54 651 q 78 799 54 733 q 147 912 101 865 q 259 983 193 958 q 411 1008 325 1008 q 661 928 571 1008 q 751 703 751 847 q 735 594 751 644 q 690 499 719 543 q 618 413 660 454 q 525 331 576 372 q 401 232 453 272 q 322 169 349 192 l 322 167 z "},"3":{"ha":817,"x_min":33,"x_max":768,"o":"m 33 307 q 133 313 83 310 q 233 318 183 315 q 278 191 238 239 q 401 143 318 143 q 520 186 478 143 q 563 293 563 229 q 511 401 563 364 q 372 439 460 439 l 321 439 l 321 590 q 340 589 331 589 q 360 589 350 589 q 479 619 432 589 q 526 719 526 650 q 494 807 526 774 q 404 840 461 840 q 297 801 333 840 q 258 689 260 763 l 61 701 q 90 827 65 771 q 159 924 115 883 q 265 986 203 964 q 404 1008 326 1008 q 544 989 483 1008 q 649 934 606 969 q 714 850 692 899 q 736 743 736 801 q 694 604 736 660 q 589 526 651 549 q 719 438 669 497 q 768 283 768 378 q 742 158 768 214 q 667 63 715 103 q 550 2 618 24 q 400 -19 482 -19 q 136 66 232 -19 q 33 307 40 151 z "},"4":{"ha":817,"x_min":51,"x_max":799,"o":"m 647 194 l 647 0 l 471 0 l 471 194 l 51 194 l 51 336 l 275 992 l 464 992 l 249 354 l 471 354 l 471 714 l 647 714 l 647 354 l 799 354 l 799 194 l 647 194 z "},"5":{"ha":817,"x_min":43,"x_max":767,"o":"m 278 817 q 272 755 274 785 q 267 693 269 725 l 257 600 q 337 648 292 631 q 443 665 382 665 q 574 641 515 665 q 676 573 633 617 q 743 467 719 529 q 767 329 767 404 q 740 187 767 251 q 666 76 714 122 q 551 6 618 31 q 400 -19 483 -19 q 262 1 325 -19 q 153 61 199 22 q 78 155 107 100 q 43 278 50 210 l 243 288 q 293 185 250 224 q 404 146 336 146 q 524 196 483 146 q 565 325 565 246 q 524 452 565 404 q 408 500 483 500 q 318 477 356 500 q 261 413 281 454 l 68 429 l 115 986 l 710 986 l 710 817 l 278 817 l 278 817 z "},"6":{"ha":817,"x_min":40,"x_max":778,"o":"m 425 838 q 342 813 376 838 q 286 749 308 789 q 253 658 264 710 q 243 553 243 607 l 246 553 q 326 618 272 589 q 460 647 379 647 q 590 624 531 647 q 690 558 649 600 q 755 455 732 515 q 778 321 778 394 q 753 185 778 247 q 681 76 728 122 q 567 5 633 31 q 419 -21 501 -21 q 257 12 328 -21 q 138 106 186 44 q 65 255 90 167 q 40 456 40 343 q 65 683 40 581 q 140 857 90 785 q 263 969 189 929 q 433 1008 336 1008 q 567 988 508 1008 q 665 930 625 967 q 729 842 706 893 q 760 729 753 790 l 560 719 q 518 805 551 772 q 425 838 485 838 m 415 490 q 294 442 336 490 q 253 317 253 394 q 298 190 253 239 q 418 140 343 140 q 535 190 490 140 q 579 315 579 239 q 535 442 579 393 q 415 490 490 490 z "},"7":{"ha":817,"x_min":53,"x_max":740,"o":"m 161 0 q 310 417 218 211 q 519 808 401 624 l 519 811 q 463 810 490 811 q 403 810 435 810 l 53 810 l 53 986 l 740 986 l 740 822 q 630 638 682 736 q 533 433 578 539 q 451 217 488 326 q 386 0 414 107 l 161 0 z "},"8":{"ha":817,"x_min":38,"x_max":778,"o":"m 408 1008 q 547 988 485 1008 q 653 933 610 968 q 722 849 697 897 q 746 742 746 800 q 707 609 746 661 q 597 525 668 557 l 597 522 q 729 427 681 489 q 778 275 778 365 q 751 151 778 206 q 676 59 725 97 q 560 1 628 21 q 408 -19 492 -19 q 256 1 325 -19 q 139 59 188 21 q 64 151 90 97 q 38 275 38 206 q 86 427 38 365 q 218 522 135 489 l 218 525 q 108 609 147 557 q 69 742 69 661 q 94 849 69 800 q 162 933 118 897 q 268 988 206 968 q 408 1008 331 1008 m 408 442 q 285 400 331 442 q 240 292 240 358 q 285 182 240 225 q 408 139 331 139 q 529 182 483 139 q 575 292 575 225 q 530 400 575 358 q 408 442 485 442 m 408 851 q 301 815 340 851 q 261 722 261 778 q 301 628 261 664 q 408 593 340 593 q 514 628 475 593 q 553 722 553 664 q 515 815 553 778 q 408 851 476 851 z "},"9":{"ha":817,"x_min":31,"x_max":764,"o":"m 379 147 q 453 168 419 147 q 510 227 486 189 q 548 319 535 265 q 561 440 561 374 l 558 440 q 479 374 531 404 q 347 344 428 344 q 218 367 276 344 q 118 433 160 390 q 53 535 76 476 q 31 668 31 594 q 56 803 31 740 q 127 911 81 865 q 239 983 174 957 q 385 1008 304 1008 q 667 883 569 1008 q 764 529 764 758 q 740 298 764 400 q 667 125 715 196 q 547 17 619 54 q 378 -21 474 -21 q 141 56 225 -21 q 44 260 57 133 l 244 268 q 287 181 253 214 q 379 147 321 147 m 389 846 q 272 797 317 846 q 226 674 226 749 q 271 551 226 599 q 389 503 315 503 q 508 550 464 503 q 553 672 553 597 q 508 797 553 749 q 389 846 463 846 z "},"\u0000":{"ha":0,"x_min":0,"x_max":0,"o":""},"\r":{"ha":425,"x_min":0,"x_max":0,"o":""}," ":{"ha":411,"x_min":0,"x_max":0,"o":""},"Š":{"ha":872,"x_min":21,"x_max":825,"o":"m 228 313 q 297 191 246 233 q 432 149 349 149 q 560 183 513 149 q 608 275 608 217 q 576 352 608 326 q 468 400 543 378 l 364 433 q 231 481 289 456 q 135 540 174 506 q 76 622 96 575 q 56 733 56 668 q 82 857 56 801 q 158 952 108 913 q 278 1013 208 992 q 436 1033 349 1033 q 681 965 583 1033 q 804 772 778 897 l 610 731 q 548 831 594 797 q 429 865 501 865 q 361 856 390 865 q 313 829 332 846 q 283 792 293 813 q 274 749 274 771 q 312 667 274 696 q 443 611 350 638 l 529 586 q 649 544 594 567 q 742 487 703 521 q 803 406 782 453 q 825 293 825 360 q 797 161 825 219 q 716 63 768 103 q 590 1 664 22 q 425 -21 515 -21 q 156 55 261 -21 q 21 265 50 131 l 228 313 m 440 1206 q 483 1249 463 1228 q 525 1294 503 1271 l 693 1294 l 551 1111 l 328 1111 l 188 1294 l 356 1294 l 439 1206 l 440 1206 l 440 1206 z "},"š":{"ha":719,"x_min":26,"x_max":681,"o":"m 490 514 q 351 608 464 608 q 274 589 304 608 q 244 536 244 569 q 275 483 244 500 q 368 451 306 467 l 442 433 q 542 402 497 419 q 617 360 586 385 q 664 299 647 335 q 681 215 681 264 q 656 113 681 157 q 588 40 632 69 q 485 -3 544 11 q 354 -18 425 -18 q 138 34 225 -18 q 26 193 50 86 l 200 232 q 257 150 219 179 q 363 121 294 121 q 446 139 408 121 q 483 200 483 157 q 453 253 483 236 q 360 285 422 269 l 274 307 q 181 338 222 321 q 110 378 139 354 q 65 438 81 403 q 50 522 50 472 q 73 619 50 576 q 136 690 96 661 q 232 735 176 719 q 354 750 288 750 q 558 699 478 750 q 661 550 639 649 l 490 514 m 444 1014 l 611 1014 l 471 831 l 247 831 l 106 1014 l 274 1014 q 316 968 296 990 q 360 925 336 946 l 444 1014 z "},"Ý":{"ha":878,"x_min":-12,"x_max":890,"o":"m 331 392 l -12 1014 l 218 1014 l 315 821 q 378 699 347 757 q 439 579 408 642 l 442 579 q 503 700 474 642 q 565 822 533 758 l 665 1014 l 890 1014 l 540 392 l 540 0 l 331 0 l 331 392 m 669 1294 l 506 1111 l 332 1111 q 384 1203 358 1157 q 435 1294 410 1249 l 669 1294 z "},"ý":{"ha":754,"x_min":-3,"x_max":750,"o":"m -3 731 l 208 731 l 289 481 q 333 340 311 411 q 376 196 356 268 l 382 196 q 404 274 394 239 q 423 340 414 308 q 442 406 432 372 q 465 479 453 439 l 544 731 l 750 731 l 456 -51 q 400 -158 431 -117 q 331 -222 369 -199 q 243 -255 292 -246 q 136 -264 194 -264 q 108 -263 122 -264 q 78 -261 93 -262 l 60 -114 q 88 -115 75 -115 q 114 -115 101 -115 q 169 -112 144 -115 q 215 -97 194 -108 q 250 -62 235 -85 q 278 -3 265 -40 l -3 731 m 439 831 l 265 831 l 369 1014 l 603 1014 l 439 831 z "},"Þ":{"ha":889,"x_min":101,"x_max":863,"o":"m 306 1014 l 306 860 l 489 860 q 662 835 590 860 q 778 768 733 811 q 842 667 822 725 q 863 542 863 610 q 835 397 863 457 q 756 298 807 336 q 634 242 706 260 q 474 224 563 224 l 306 224 l 306 0 l 101 0 l 101 1014 l 306 1014 m 306 394 l 461 394 q 540 402 504 394 q 603 426 576 410 q 644 472 629 443 q 658 542 658 500 q 644 613 658 585 q 603 659 629 642 q 542 683 578 676 q 464 690 506 690 l 306 690 l 306 394 z "},"þ":{"ha":890,"x_min":88,"x_max":840,"o":"m 276 642 q 368 719 313 688 q 506 751 424 751 q 640 724 578 751 q 746 644 701 696 q 815 522 790 593 q 840 367 840 451 q 816 210 840 281 q 747 89 792 139 q 640 11 701 39 q 503 -17 578 -17 q 370 10 424 -17 q 282 82 317 36 l 279 82 q 281 29 281 54 q 281 -24 281 4 l 281 -261 l 88 -261 l 88 1014 l 281 1014 l 281 803 q 281 769 281 785 q 280 737 281 754 q 278 697 279 719 q 276 642 278 674 m 460 589 q 325 527 375 589 q 275 364 275 465 q 324 201 275 264 q 461 139 374 139 q 595 201 547 139 q 643 363 643 263 q 595 526 643 463 q 460 589 547 589 z "},"Ž":{"ha":856,"x_min":31,"x_max":811,"o":"m 31 160 l 535 838 l 535 839 q 433 837 476 838 q 342 836 390 836 l 51 836 l 51 1014 l 793 1014 l 793 850 l 290 175 l 290 174 q 366 175 331 175 q 442 175 401 175 l 811 175 l 811 0 l 31 0 l 31 160 m 425 1206 q 467 1249 447 1228 q 510 1294 488 1271 l 678 1294 l 536 1111 l 313 1111 l 172 1294 l 340 1294 l 424 1206 l 425 1206 l 425 1206 z "},"ž":{"ha":696,"x_min":29,"x_max":658,"o":"m 29 146 l 244 393 q 320 481 281 436 q 403 574 360 525 l 403 576 q 356 574 378 575 q 308 574 333 574 l 44 574 l 44 731 l 640 731 l 640 581 l 453 363 q 363 258 408 310 q 271 154 317 207 l 271 151 q 319 152 299 151 q 360 153 340 153 q 399 153 379 153 q 443 153 418 153 l 658 153 l 658 0 l 29 0 l 29 146 m 431 1014 l 597 1014 l 457 831 l 233 831 l 92 1014 l 260 1014 q 302 968 282 990 q 346 925 322 946 l 431 1014 z "},"½":{"ha":1128,"x_min":15,"x_max":1071,"o":"m 811 110 q 863 111 839 111 q 911 111 888 111 l 1071 111 l 1071 0 l 632 0 l 632 103 q 715 173 671 139 q 806 246 758 207 q 901 341 874 301 q 929 425 929 381 q 908 480 929 457 q 850 503 886 503 q 781 472 801 503 q 760 390 760 440 l 629 393 q 687 559 629 497 q 853 621 744 621 q 1010 570 953 621 q 1068 429 1068 519 q 1043 331 1068 376 q 981 247 1018 286 q 898 174 943 207 q 811 111 853 140 l 811 110 m 167 382 l 167 794 l 15 794 l 15 890 q 138 914 101 890 q 182 992 175 938 l 293 992 l 293 382 l 167 382 m 363 0 l 235 0 l 615 988 l 742 988 l 363 0 z "},"¼":{"ha":1082,"x_min":17,"x_max":1067,"o":"m 975 117 l 975 0 l 856 0 l 856 117 l 596 117 l 596 210 q 664 412 629 311 q 733 614 699 513 l 857 614 q 792 419 825 515 q 726 224 760 322 l 856 224 l 856 444 l 975 444 l 975 224 l 1067 224 l 1067 117 l 975 117 m 168 382 l 168 794 l 17 794 l 17 890 q 91 896 61 890 q 140 914 121 901 q 168 946 158 926 q 182 992 178 965 l 294 992 l 294 382 l 168 382 m 363 0 l 235 0 l 615 988 l 742 988 l 363 0 z "},"¹":{"ha":469,"x_min":65,"x_max":343,"o":"m 217 382 l 217 794 l 65 794 l 65 890 q 140 896 110 890 q 189 914 169 901 q 218 946 208 926 q 232 992 228 965 l 343 992 l 343 382 l 217 382 z "},"¾":{"ha":1235,"x_min":44,"x_max":1221,"o":"m 176 581 q 203 502 179 532 q 275 472 226 472 q 344 497 319 472 q 369 561 369 521 q 338 623 369 603 q 256 643 307 643 l 221 643 l 221 746 q 237 744 231 744 q 249 744 243 744 q 351 819 351 744 q 331 868 351 847 q 274 889 310 889 q 212 863 233 889 q 190 796 190 836 l 60 801 q 124 945 67 893 q 276 997 181 997 q 428 951 372 997 q 485 832 485 906 q 461 752 485 785 q 401 701 438 719 q 476 645 446 682 q 506 554 506 608 q 441 416 506 467 q 274 365 376 365 q 109 420 169 365 q 44 575 49 475 l 176 581 m 1128 117 l 1128 0 l 1010 0 l 1010 117 l 749 117 l 749 210 l 886 614 l 1011 614 l 879 224 l 1010 224 l 1010 444 l 1128 444 l 1128 224 l 1221 224 l 1221 117 l 1128 117 m 515 0 l 389 0 l 768 988 l 896 988 l 515 0 z "},"³":{"ha":568,"x_min":50,"x_max":510,"o":"m 182 581 q 208 502 185 532 q 281 472 232 472 q 350 497 325 472 q 375 561 375 521 q 344 623 375 603 q 261 643 313 643 l 226 643 l 226 746 q 242 744 236 744 q 254 744 249 744 q 357 819 357 744 q 336 868 357 847 q 279 889 315 889 q 217 862 239 889 q 194 796 196 835 l 65 801 q 129 945 72 893 q 282 997 186 997 q 434 951 378 997 q 490 832 490 906 q 467 752 490 785 q 407 701 443 719 q 481 645 451 682 q 510 554 510 608 q 446 416 510 467 q 279 365 382 365 q 114 420 175 365 q 50 575 53 475 l 182 581 z "},"²":{"ha":565,"x_min":58,"x_max":500,"o":"m 242 494 q 292 496 268 496 q 340 496 317 496 l 500 496 l 500 385 l 61 385 l 61 488 q 145 558 101 524 q 235 631 189 593 q 293 683 269 660 q 332 726 317 706 q 354 767 347 747 q 361 808 361 786 q 339 865 361 843 q 281 888 317 888 q 210 857 232 888 q 189 775 189 826 l 58 778 q 116 944 58 882 q 282 1006 174 1006 q 440 956 382 1006 q 497 815 497 906 q 472 715 497 761 q 408 631 446 669 q 325 558 369 592 q 242 496 281 525 l 242 494 z "},"¦":{"ha":433,"x_min":131,"x_max":303,"o":"m 303 1040 l 303 556 l 131 556 l 131 1040 l 303 1040 m 303 269 l 303 -212 l 131 -212 l 131 269 l 303 269 z "},"−":{"ha":817,"x_min":72,"x_max":744,"o":"m 744 553 l 744 382 l 72 382 l 72 553 l 744 553 z "},"×":{"ha":817,"x_min":71,"x_max":747,"o":"m 528 468 l 747 247 l 629 131 l 410 350 l 189 129 l 71 247 l 292 468 l 71 689 l 189 807 l 410 585 l 629 806 l 747 688 l 528 468 z "},"ł":{"ha":374,"x_min":3,"x_max":381,"o":"m 285 514 l 285 0 l 89 0 l 89 406 l 3 358 l 3 511 q 45 535 24 524 q 89 560 67 547 l 89 1014 l 285 1014 l 285 668 q 333 694 308 681 q 381 721 357 708 l 381 568 l 285 514 z "},"!":{"ha":396,"x_min":96,"x_max":299,"o":"m 97 592 l 97 1014 l 297 1014 l 297 592 l 276 274 l 118 274 l 97 592 m 96 197 l 299 197 l 299 0 l 96 0 l 96 197 z "},"\"":{"ha":621,"x_min":74,"x_max":546,"o":"m 92 615 l 74 1014 l 261 1014 l 243 615 l 92 615 m 376 615 l 358 1014 l 546 1014 l 528 615 l 376 615 z "},"#":{"ha":817,"x_min":0,"x_max":807,"o":"m 447 294 l 285 294 l 231 0 l 88 0 l 142 294 l 0 294 l 25 422 l 165 422 l 194 583 l 50 583 l 75 711 l 218 711 l 274 1007 l 417 1007 l 363 711 l 525 711 l 579 1007 l 724 1007 l 668 711 l 807 711 l 783 583 l 644 583 l 614 422 l 757 422 l 732 294 l 590 294 l 538 0 l 393 0 l 447 294 m 308 422 l 471 422 l 500 583 l 339 583 l 308 422 z "},"$":{"ha":817,"x_min":19,"x_max":774,"o":"m 213 315 q 278 199 229 240 q 406 158 326 158 q 526 191 481 158 q 571 281 571 224 q 540 354 571 329 q 439 400 510 379 l 340 433 q 216 478 269 454 q 126 535 163 501 q 70 613 89 568 q 51 719 51 658 q 123 906 51 833 q 321 999 194 979 l 321 1132 l 499 1132 l 499 997 q 669 917 601 978 q 756 757 736 857 l 572 717 q 514 814 557 782 q 403 846 471 846 q 292 812 329 846 q 256 735 256 778 q 264 690 256 710 q 292 656 272 671 q 342 628 311 642 q 417 603 372 615 l 497 578 q 609 538 558 560 q 697 483 660 515 q 753 406 733 451 q 774 297 774 361 q 700 101 774 176 q 499 4 626 26 l 499 -149 l 321 -149 l 321 1 q 121 88 199 18 q 19 271 43 158 l 213 315 z "},"%":{"ha":1253,"x_min":33,"x_max":1211,"o":"m 274 1007 q 453 928 390 1007 q 517 704 517 850 q 453 479 517 557 q 275 401 390 401 q 97 479 160 401 q 33 704 33 557 q 97 928 33 850 q 274 1007 160 1007 m 275 889 q 194 839 217 889 q 171 701 171 789 q 194 568 171 617 q 275 519 218 519 q 356 568 333 519 q 378 703 378 617 q 356 840 378 790 q 275 889 333 889 m 876 990 q 686 494 781 740 q 496 -1 592 247 l 365 -1 l 749 990 l 876 990 m 969 588 q 1149 509 1086 588 q 1211 286 1211 431 q 1149 62 1211 139 q 969 -15 1088 -15 q 791 62 854 -15 q 728 286 728 139 q 791 510 728 432 q 969 588 854 588 m 969 469 q 889 419 911 469 q 867 282 867 369 q 890 150 867 199 q 969 101 913 101 q 1050 150 1028 101 q 1072 285 1072 199 q 1050 421 1072 372 q 969 469 1028 469 z "},"&":{"ha":1061,"x_min":69,"x_max":1063,"o":"m 751 806 q 735 717 751 756 q 694 645 719 678 q 633 587 668 613 q 561 539 599 561 q 652 438 615 479 q 719 363 689 396 q 755 456 740 406 q 776 556 769 506 l 968 549 q 950 463 961 507 q 924 378 939 419 q 889 298 908 336 q 847 231 869 260 q 961 106 908 164 q 1063 0 1014 49 l 817 0 q 726 99 765 50 q 593 11 671 43 q 424 -21 515 -21 q 276 1 342 -21 q 165 62 211 22 q 94 157 119 101 q 69 281 69 213 q 129 453 69 381 q 288 575 189 526 q 213 676 242 622 q 185 793 185 729 q 206 892 185 847 q 264 968 226 936 q 355 1017 301 1000 q 474 1035 408 1035 q 586 1018 535 1035 q 674 971 638 1001 q 731 898 711 940 q 751 806 751 856 m 436 139 q 538 162 493 139 q 610 219 582 185 q 510 329 560 275 q 401 450 460 383 q 309 381 344 421 q 274 283 274 342 q 319 178 274 217 q 436 139 365 139 m 454 646 q 535 710 500 674 q 571 796 571 747 q 542 864 571 839 q 469 889 514 889 q 396 863 422 889 q 369 794 369 836 q 393 721 369 758 q 454 646 417 683 z "},"'":{"ha":340,"x_min":76,"x_max":263,"o":"m 93 615 l 76 1014 l 263 1014 l 244 615 l 93 615 z "},"(":{"ha":468,"x_min":68,"x_max":443,"o":"m 443 1025 q 307 727 353 881 q 261 410 261 574 q 443 -203 261 88 l 293 -212 q 124 92 179 -65 q 68 408 68 249 q 124 726 68 568 q 293 1035 179 885 l 443 1025 z "},")":{"ha":468,"x_min":24,"x_max":399,"o":"m 174 1035 q 343 726 288 885 q 399 408 399 568 q 343 92 399 249 q 174 -212 288 -65 l 24 -203 q 206 410 206 88 q 160 727 206 574 q 24 1025 114 881 l 174 1035 z "},"*":{"ha":613,"x_min":17,"x_max":596,"o":"m 236 822 l 249 815 l 246 831 q 241 860 243 843 q 236 899 239 878 l 221 1014 l 392 1014 l 376 899 q 371 860 374 878 q 365 831 368 843 q 365 825 365 828 q 364 815 365 822 l 376 822 l 375 822 q 403 836 389 829 q 439 854 417 843 l 544 904 l 596 740 l 481 721 l 419 711 l 421 711 l 399 707 q 403 703 401 704 q 407 699 404 701 q 430 677 418 688 q 457 647 442 667 l 538 565 l 397 464 l 343 565 l 311 629 q 310 632 311 631 q 306 639 308 633 l 300 631 l 268 565 l 214 464 l 75 565 l 154 647 l 203 699 l 213 708 q 205 709 210 708 q 197 710 200 710 l 131 721 l 17 740 l 68 904 l 174 854 q 209 836 194 843 q 238 822 224 829 l 236 822 z "},"+":{"ha":817,"x_min":65,"x_max":751,"o":"m 65 551 l 322 551 l 322 817 l 492 817 l 492 551 l 751 551 l 751 388 l 492 388 l 492 121 l 322 121 l 322 388 l 65 388 l 65 551 z "},",":{"ha":378,"x_min":81,"x_max":297,"o":"m 81 211 l 297 211 l 297 13 q 247 -150 297 -94 q 81 -212 197 -206 l 81 -111 q 154 -80 129 -104 q 179 -7 179 -56 l 179 0 l 81 0 l 81 211 z "},"-":{"ha":519,"x_min":60,"x_max":457,"o":"m 60 496 l 457 496 l 457 318 l 60 318 l 60 496 z "},".":{"ha":378,"x_min":81,"x_max":297,"o":"m 81 211 l 297 211 l 297 0 l 81 0 l 81 211 z "},"/":{"ha":615,"x_min":22,"x_max":585,"o":"m 203 -46 l 22 -46 l 404 1018 l 585 1018 l 203 -46 z "},":":{"ha":378,"x_min":79,"x_max":297,"o":"m 79 215 l 297 215 l 297 0 l 79 0 l 79 215 m 79 731 l 297 731 l 297 515 l 79 515 l 79 731 z "},";":{"ha":381,"x_min":79,"x_max":300,"o":"m 82 731 l 300 731 l 300 515 l 82 515 l 82 731 m 82 215 l 300 215 l 300 14 q 79 -226 300 -214 l 79 -124 q 179 -7 179 -111 q 169 -3 174 -4 q 160 0 165 -1 l 82 0 l 82 215 z "},"<":{"ha":817,"x_min":133,"x_max":683,"o":"m 133 525 l 683 810 l 683 608 q 588 565 639 588 q 490 519 538 542 q 403 478 443 497 q 342 449 364 460 l 342 444 q 403 415 364 433 q 490 375 443 397 q 588 329 538 353 q 683 285 639 306 l 683 79 l 133 358 l 133 525 z "},"=":{"ha":817,"x_min":72,"x_max":744,"o":"m 744 682 l 744 522 l 72 522 l 72 682 l 744 682 m 744 408 l 744 249 l 72 249 l 72 408 l 744 408 z "},">":{"ha":817,"x_min":133,"x_max":683,"o":"m 683 358 q 408 219 544 288 q 133 79 272 150 l 133 285 l 474 444 l 474 449 q 412 478 451 460 q 325 519 372 497 q 227 565 278 542 q 133 608 176 588 l 133 810 q 408 667 272 738 q 683 525 544 596 l 683 358 z "},"?":{"ha":789,"x_min":38,"x_max":735,"o":"m 278 274 q 282 363 278 324 q 297 433 286 401 q 328 492 308 465 q 379 547 347 519 l 449 610 q 477 635 463 622 q 502 664 492 649 q 519 699 513 679 q 526 744 526 718 q 492 828 526 794 q 390 861 457 861 q 275 813 311 861 q 240 682 239 764 l 38 690 q 61 832 38 768 q 130 941 85 896 q 242 1011 175 986 q 396 1036 308 1036 q 538 1015 475 1036 q 644 956 600 993 q 711 865 688 918 q 735 750 735 813 q 697 605 735 664 q 586 490 658 546 l 560 469 q 514 428 532 447 q 485 387 496 408 q 471 338 475 365 q 467 274 467 311 l 278 274 m 272 197 l 475 197 l 475 0 l 272 0 l 272 197 z "},"@":{"ha":1142,"x_min":43,"x_max":1093,"o":"m 867 758 l 803 432 q 796 395 799 413 q 793 363 793 378 q 831 321 793 321 q 887 341 860 321 q 935 395 914 361 q 968 476 956 429 q 981 575 981 522 q 953 721 981 656 q 874 833 925 786 q 753 904 824 879 q 594 929 682 929 q 422 897 500 929 q 285 806 343 864 q 196 669 228 747 q 164 499 164 590 q 197 325 164 403 q 288 192 229 247 q 428 106 347 136 q 606 76 510 76 q 775 100 700 76 q 921 168 850 124 l 985 93 q 601 -26 824 -26 q 374 12 476 -26 q 197 119 271 50 q 83 285 124 188 q 43 500 43 382 q 85 712 43 614 q 200 882 126 810 q 374 995 274 954 q 593 1036 475 1036 q 793 1003 701 1036 q 951 910 885 969 q 1056 767 1018 850 q 1093 588 1093 685 q 1069 437 1093 506 q 1004 318 1044 368 q 911 240 964 268 q 801 213 858 213 q 722 235 750 213 q 686 289 694 257 q 617 233 658 257 q 513 210 575 210 q 353 278 413 210 q 293 458 293 346 q 314 581 293 522 q 371 683 335 639 q 458 752 407 726 q 568 778 508 778 q 671 753 631 778 q 732 688 711 729 l 733 688 q 737 708 735 696 q 742 729 739 719 l 747 758 l 867 758 m 582 657 q 519 641 547 657 q 469 598 490 625 q 438 536 449 571 q 426 463 426 501 q 457 365 426 403 q 543 328 488 328 q 608 344 579 328 q 656 388 636 360 q 687 451 676 415 q 697 528 697 488 q 667 622 697 588 q 582 657 636 657 z "},"A":{"ha":1006,"x_min":-6,"x_max":1011,"o":"m 388 1014 l 617 1014 l 1011 0 l 793 0 l 697 251 l 300 251 l 206 0 l -6 0 l 388 1014 m 639 422 l 579 593 q 557 655 568 622 q 535 718 546 688 q 516 776 525 749 q 501 825 507 804 l 496 825 q 481 778 490 808 q 461 715 472 749 q 439 649 450 682 q 419 593 428 615 l 357 422 l 639 422 z "},"B":{"ha":921,"x_min":101,"x_max":885,"o":"m 101 1014 l 504 1014 q 640 1001 578 1014 q 746 958 701 988 q 815 881 790 928 q 840 765 840 833 q 798 619 840 676 q 693 536 756 561 q 763 507 729 526 q 824 457 797 488 q 868 385 851 426 q 885 292 885 344 q 793 78 885 156 q 513 0 701 0 l 101 0 l 101 1014 m 301 601 l 465 601 q 635 728 635 601 q 597 816 635 786 q 467 846 558 846 l 301 846 l 301 601 m 301 165 l 489 165 q 674 310 674 165 q 482 443 674 443 l 301 443 l 301 165 z "},"C":{"ha":1019,"x_min":49,"x_max":997,"o":"m 793 690 q 702 812 763 769 q 550 854 642 854 q 430 828 483 854 q 340 755 376 801 q 283 645 303 708 q 264 507 264 582 q 284 365 264 429 q 342 254 304 301 q 435 181 381 207 q 556 156 489 156 q 703 200 643 156 q 793 319 764 244 l 997 282 q 838 61 954 142 q 553 -19 722 -19 q 346 19 439 -19 q 187 126 253 57 q 85 292 121 196 q 49 506 49 389 q 86 719 49 622 q 190 887 124 817 q 350 996 257 957 q 556 1035 443 1035 q 838 954 724 1035 q 993 733 951 874 l 793 690 z "},"D":{"ha":1040,"x_min":99,"x_max":988,"o":"m 99 1014 l 469 1014 q 853 890 719 1014 q 988 519 986 765 q 955 303 988 400 q 855 140 922 207 q 686 36 788 72 q 447 0 585 0 l 99 0 l 99 1014 m 307 171 l 454 171 q 585 190 526 171 q 687 251 644 210 q 753 359 729 293 q 776 518 776 425 q 697 758 776 676 q 433 840 618 840 l 307 840 l 307 171 z "},"E":{"ha":868,"x_min":101,"x_max":806,"o":"m 101 1014 l 794 1014 l 794 839 l 306 839 l 306 607 l 757 607 l 757 432 l 306 432 l 306 175 l 806 175 l 806 0 l 101 0 l 101 1014 z "},"F":{"ha":804,"x_min":101,"x_max":771,"o":"m 101 1014 l 771 1014 l 771 839 l 308 839 l 308 601 l 736 601 l 736 422 l 308 422 l 308 0 l 101 0 l 101 1014 z "},"G":{"ha":1103,"x_min":49,"x_max":1014,"o":"m 1014 557 l 1014 0 l 824 0 l 824 24 q 824 55 824 39 q 825 83 825 71 l 822 83 q 783 47 810 65 q 718 15 756 29 q 634 -10 681 0 q 536 -19 588 -19 q 338 19 428 -19 q 184 128 249 58 q 84 294 119 197 q 49 508 49 392 q 85 722 49 625 q 190 888 122 818 q 351 997 257 958 q 561 1035 446 1035 q 848 958 733 1035 q 1007 754 963 881 l 810 703 q 717 813 779 771 q 560 856 654 856 q 436 830 490 856 q 343 758 382 804 q 284 647 304 711 q 264 506 264 582 q 285 361 264 426 q 347 249 307 296 q 443 177 386 203 q 571 151 500 151 q 753 213 689 151 q 829 385 818 275 l 521 385 l 521 557 l 1014 557 z "},"H":{"ha":1043,"x_min":101,"x_max":942,"o":"m 101 1014 l 310 1014 l 310 617 l 733 617 l 733 1014 l 942 1014 l 942 0 l 733 0 l 733 432 l 310 432 l 310 0 l 101 0 l 101 1014 z "},"I":{"ha":414,"x_min":101,"x_max":313,"o":"m 101 1014 l 313 1014 l 313 0 l 101 0 l 101 1014 z "},"J":{"ha":743,"x_min":3,"x_max":651,"o":"m 440 1014 l 651 1014 l 651 349 q 635 200 651 267 q 581 85 619 133 q 479 10 543 36 q 321 -17 415 -17 q 90 53 167 -17 q 3 257 14 122 l 196 278 q 228 190 201 225 q 319 154 256 154 q 416 203 392 154 q 440 333 440 253 l 440 1014 z "},"K":{"ha":933,"x_min":101,"x_max":961,"o":"m 101 1014 l 308 1014 l 308 776 q 308 671 308 724 q 307 564 308 618 q 394 668 346 611 q 501 793 443 725 l 693 1014 l 946 1014 l 540 557 l 961 0 l 703 0 l 397 415 l 308 313 l 308 0 l 101 0 l 101 1014 z "},"L":{"ha":779,"x_min":101,"x_max":761,"o":"m 101 1014 l 311 1014 l 311 178 l 761 178 l 761 0 l 101 0 l 101 1014 z "},"M":{"ha":1322,"x_min":101,"x_max":1221,"o":"m 101 1014 l 422 1014 l 538 649 q 600 442 569 547 q 663 219 631 338 l 667 219 q 731 449 701 346 q 793 657 761 553 l 901 1014 l 1221 1014 l 1221 0 l 1018 0 l 1018 511 q 1019 683 1018 606 q 1024 844 1021 760 l 1018 844 q 971 674 996 761 q 918 497 946 586 l 764 0 l 554 0 l 381 547 q 337 699 357 624 q 300 844 317 774 l 294 844 q 299 563 299 715 l 297 0 l 101 0 l 101 1014 z "},"N":{"ha":1083,"x_min":101,"x_max":982,"o":"m 101 1014 l 372 1014 l 651 507 q 726 366 696 428 q 782 249 756 304 l 786 249 q 783 401 783 322 q 782 549 782 479 l 782 1014 l 982 1014 l 982 0 l 719 0 l 458 467 q 411 553 435 508 q 367 639 388 597 q 328 716 346 681 q 300 775 311 751 l 297 775 q 299 717 297 751 q 301 644 300 682 q 302 570 301 607 q 303 506 303 533 l 303 0 l 101 0 l 101 1014 z "},"O":{"ha":1124,"x_min":50,"x_max":1074,"o":"m 561 154 q 685 181 631 154 q 779 254 740 207 q 838 367 818 301 q 858 508 858 432 q 838 647 858 583 q 779 758 818 711 q 685 831 740 804 q 561 857 631 857 q 437 831 492 857 q 344 758 382 804 q 285 647 306 711 q 265 508 265 583 q 285 367 265 432 q 344 254 306 301 q 437 181 382 207 q 561 154 492 154 m 563 -19 q 353 19 447 -19 q 191 126 258 57 q 87 291 124 194 q 50 506 50 388 q 88 721 50 624 q 192 888 125 818 q 353 996 260 957 q 561 1035 447 1035 q 769 996 675 1035 q 931 888 863 957 q 1036 721 999 818 q 1074 506 1074 624 q 1037 291 1074 388 q 933 126 1000 194 q 772 19 867 57 q 563 -19 678 -19 z "},"P":{"ha":888,"x_min":101,"x_max":863,"o":"m 101 1014 l 489 1014 q 662 990 590 1014 q 778 922 733 965 q 842 822 822 879 q 863 696 863 764 q 760 455 863 532 q 474 378 657 378 l 306 378 l 306 0 l 101 0 l 101 1014 m 306 549 l 461 549 q 540 556 504 549 q 603 581 576 564 q 644 626 629 597 q 658 696 658 654 q 644 767 658 739 q 603 813 629 796 q 542 838 578 831 q 464 844 506 844 l 306 844 l 306 549 z "},"Q":{"ha":1124,"x_min":50,"x_max":1074,"o":"m 563 -19 q 353 19 447 -19 q 191 126 258 57 q 87 291 124 194 q 50 506 50 388 q 88 721 50 624 q 192 888 125 818 q 353 996 260 957 q 561 1035 447 1035 q 769 996 675 1035 q 931 888 863 957 q 1036 721 999 818 q 1074 506 1074 624 q 1036 288 1074 385 q 929 121 999 192 l 1033 10 l 908 -104 l 786 25 q 681 -8 738 4 q 563 -19 625 -19 m 561 150 q 657 163 613 150 l 561 264 l 689 378 l 797 263 q 842 368 826 307 q 858 508 858 429 q 838 647 858 583 q 779 758 818 711 q 685 831 740 804 q 561 857 631 857 q 437 831 492 857 q 344 758 382 804 q 285 647 306 711 q 265 508 265 583 q 285 366 265 432 q 344 252 306 300 q 437 177 382 204 q 561 150 492 150 z "},"R":{"ha":951,"x_min":101,"x_max":900,"o":"m 101 1014 l 529 1014 q 798 940 710 1014 q 886 732 886 867 q 838 565 886 626 q 718 475 790 503 q 807 396 776 449 q 850 247 838 343 l 860 172 q 865 128 863 151 q 872 83 868 106 q 883 42 876 61 q 900 11 889 24 l 900 0 l 688 0 q 668 59 674 25 q 657 142 663 93 l 651 192 q 635 282 646 243 q 603 347 625 321 q 542 387 581 374 q 440 400 503 400 l 304 400 l 304 0 l 101 0 l 101 1014 m 304 563 l 493 563 q 626 596 578 563 q 675 708 675 629 q 662 774 675 747 q 624 815 649 800 q 567 838 600 831 q 493 844 533 844 l 304 844 l 304 563 z "},"S":{"ha":872,"x_min":21,"x_max":825,"o":"m 228 313 q 297 191 246 233 q 432 149 349 149 q 560 183 513 149 q 608 275 608 217 q 576 352 608 326 q 468 400 543 378 l 364 433 q 231 481 289 456 q 135 540 174 506 q 76 622 96 575 q 56 733 56 668 q 82 857 56 801 q 158 952 108 913 q 278 1013 208 992 q 436 1033 349 1033 q 681 965 583 1033 q 804 772 778 897 l 610 731 q 548 831 594 797 q 429 865 501 865 q 361 856 390 865 q 313 829 332 846 q 283 792 293 813 q 274 749 274 771 q 312 667 274 696 q 443 611 350 638 l 529 586 q 649 544 594 567 q 742 487 703 521 q 803 406 782 453 q 825 293 825 360 q 797 161 825 219 q 716 63 768 103 q 590 1 664 22 q 425 -21 515 -21 q 156 55 261 -21 q 21 265 50 131 l 228 313 z "},"T":{"ha":806,"x_min":10,"x_max":797,"o":"m 299 836 l 10 836 l 10 1014 l 797 1014 l 797 836 l 510 836 l 510 0 l 299 0 l 299 836 z "},"U":{"ha":1001,"x_min":93,"x_max":907,"o":"m 500 -19 q 324 3 400 -19 q 197 75 247 25 q 119 205 146 125 q 93 400 93 285 l 93 1014 l 303 1014 l 303 400 q 349 218 303 279 q 500 157 396 157 q 651 218 604 157 q 697 400 697 279 l 697 1014 l 907 1014 l 907 400 q 880 203 907 283 q 801 74 853 124 q 673 3 749 25 q 500 -19 597 -19 z "},"V":{"ha":929,"x_min":-8,"x_max":938,"o":"m -8 1014 l 217 1014 l 333 640 q 399 427 365 536 q 464 215 432 318 l 468 215 q 531 426 499 317 q 599 643 563 535 l 718 1014 l 938 1014 l 582 0 l 340 0 l -8 1014 z "},"W":{"ha":1328,"x_min":-6,"x_max":1333,"o":"m -6 1014 l 213 1014 l 292 643 q 335 431 315 535 q 371 226 354 326 l 376 226 q 419 431 396 326 q 464 629 442 535 l 551 1014 l 788 1014 l 871 644 q 915 440 894 540 q 957 228 936 340 l 963 228 q 1000 432 979 328 q 1044 643 1021 536 l 1125 1014 l 1333 1014 l 1089 0 l 840 0 l 751 385 q 706 596 728 489 q 667 794 685 703 l 661 794 q 623 594 644 699 q 576 383 601 490 l 486 0 l 236 0 l -6 1014 z "},"X":{"ha":921,"x_min":-14,"x_max":935,"o":"m 335 519 l 8 1014 l 254 1014 l 463 676 l 672 1014 l 911 1014 l 583 526 l 935 0 l 682 0 l 456 367 l 226 0 l -14 0 l 335 519 z "},"Y":{"ha":875,"x_min":-14,"x_max":889,"o":"m 329 392 l -14 1014 l 217 1014 l 314 821 q 376 699 346 757 q 438 579 407 642 l 440 579 q 502 700 472 642 q 564 822 532 758 l 664 1014 l 889 1014 l 539 392 l 539 0 l 329 0 l 329 392 z "},"Z":{"ha":846,"x_min":31,"x_max":811,"o":"m 31 160 l 535 838 l 535 839 q 433 837 476 838 q 342 836 390 836 l 51 836 l 51 1014 l 793 1014 l 793 850 l 290 175 l 290 174 q 366 175 331 175 q 442 175 401 175 l 811 175 l 811 0 l 31 0 l 31 160 z "},"[":{"ha":461,"x_min":97,"x_max":429,"o":"m 97 1038 l 429 1038 l 429 911 l 272 911 q 274 863 274 886 q 274 815 274 840 l 274 17 q 274 -30 274 -7 q 272 -78 274 -53 q 308 -76 292 -76 q 344 -76 325 -76 l 429 -76 l 429 -204 l 97 -204 l 97 1038 z "},"\\":{"ha":621,"x_min":32,"x_max":594,"o":"m 32 1018 l 213 1018 l 594 -46 l 414 -46 l 32 1018 z "},"]":{"ha":465,"x_min":29,"x_max":367,"o":"m 367 1039 l 367 -203 l 29 -203 l 29 -75 l 117 -75 q 152 -75 135 -75 q 188 -76 169 -75 q 186 -31 186 -53 q 186 15 186 -8 l 186 819 q 186 866 186 843 q 188 913 186 889 l 29 913 l 29 1039 l 367 1039 z "},"^":{"ha":817,"x_min":49,"x_max":768,"o":"m 579 488 q 536 574 558 529 q 492 663 514 619 q 449 749 469 707 q 407 825 428 790 l 351 717 q 292 601 322 658 q 232 488 261 544 l 49 488 q 190 752 119 621 q 331 1018 260 883 l 485 1018 q 626 752 556 883 q 768 488 696 621 l 579 488 z "},"_":{"ha":699,"x_min":8,"x_max":689,"o":"m 689 -79 l 689 -218 l 8 -218 l 8 -79 l 689 -79 z "},"`":{"ha":325,"x_min":19,"x_max":357,"o":"m 253 1014 l 357 831 l 183 831 l 19 1014 l 253 1014 z "},"a":{"ha":796,"x_min":46,"x_max":710,"o":"m 69 497 q 163 677 78 608 q 394 746 247 746 q 629 678 550 746 q 708 463 708 610 l 708 35 q 709 13 708 22 q 710 0 710 4 l 544 0 q 543 18 543 8 q 543 38 543 28 l 543 65 l 542 65 q 448 8 504 29 q 313 -14 392 -14 q 118 44 190 -14 q 46 206 46 101 q 62 292 46 256 q 112 356 78 329 q 200 401 146 382 q 329 433 254 419 l 449 456 q 484 463 469 460 q 507 470 499 465 q 519 483 515 475 q 522 504 522 490 q 488 577 522 550 q 392 604 454 604 q 291 572 325 604 q 253 486 257 539 l 69 497 m 529 339 q 483 328 503 332 q 428 318 463 325 q 346 301 381 308 q 288 282 311 293 q 252 253 264 271 q 240 208 240 236 q 272 140 240 164 q 361 115 303 115 q 483 158 439 115 q 526 283 526 201 l 526 310 q 526 324 526 317 q 529 339 526 332 z "},"b":{"ha":890,"x_min":88,"x_max":842,"o":"m 88 0 q 89 49 89 22 q 89 104 89 76 l 89 1014 l 282 1014 l 282 790 q 281 718 282 754 q 281 643 281 682 q 369 719 314 688 q 510 751 425 751 q 644 722 583 751 q 749 642 706 693 q 817 519 793 590 q 842 365 842 449 q 817 208 842 279 q 747 88 792 138 q 641 10 703 38 q 506 -17 579 -17 q 368 12 425 -17 q 275 93 311 40 l 272 93 q 274 63 274 78 q 275 32 275 47 l 275 0 l 88 0 m 463 139 q 597 201 549 139 q 646 364 646 264 q 597 528 646 465 q 463 590 547 590 q 327 528 376 590 q 278 365 278 465 q 327 201 278 264 q 463 139 376 139 z "},"c":{"ha":792,"x_min":49,"x_max":763,"o":"m 582 475 q 527 559 565 526 q 428 592 489 592 q 294 531 340 592 q 247 364 247 471 q 296 198 247 257 q 428 139 344 139 q 529 171 490 139 q 585 256 568 203 l 763 215 q 717 120 747 163 q 644 47 688 78 q 544 -1 600 15 q 422 -18 488 -18 q 267 10 336 -18 q 149 88 197 38 q 74 209 100 139 q 49 364 49 279 q 76 522 49 450 q 153 644 103 593 q 273 723 203 694 q 428 751 343 751 q 646 685 558 751 q 763 514 733 619 l 582 475 z "},"d":{"ha":892,"x_min":49,"x_max":804,"o":"m 803 104 q 803 49 803 78 q 804 0 803 19 l 617 0 l 617 28 q 617 53 617 40 q 618 90 617 67 l 617 90 q 524 12 579 40 q 385 -17 468 -17 q 249 10 311 -17 q 143 88 188 38 q 74 208 99 138 q 49 364 49 278 q 73 520 49 449 q 142 643 97 592 q 247 723 186 694 q 382 751 308 751 q 521 721 465 751 q 610 644 576 690 q 608 714 608 681 q 608 781 608 747 l 608 1014 l 803 1014 l 803 104 m 426 139 q 504 156 469 139 q 563 202 539 172 q 601 274 588 232 q 614 365 614 315 q 564 528 614 465 q 428 590 514 590 q 294 527 342 590 q 246 364 246 464 q 294 201 246 264 q 426 139 342 139 z "},"e":{"ha":836,"x_min":49,"x_max":790,"o":"m 239 315 q 299 181 246 231 q 435 132 353 132 q 504 141 474 132 q 558 165 535 150 q 599 199 582 181 q 628 236 617 217 l 786 174 q 732 99 765 133 q 655 38 699 64 q 555 -3 611 13 q 432 -18 499 -18 q 274 9 344 -18 q 153 85 203 36 q 76 206 103 135 q 49 364 49 276 q 76 518 49 447 q 152 640 103 589 q 272 721 201 692 q 428 750 342 750 q 591 718 522 750 q 704 628 660 686 q 769 491 749 571 q 790 315 790 411 l 239 315 m 599 446 q 584 508 596 478 q 551 560 572 538 q 498 597 529 583 q 426 610 467 610 q 299 563 347 610 q 240 446 251 517 l 599 446 z "},"f":{"ha":454,"x_min":3,"x_max":453,"o":"m 108 581 l 3 581 l 3 731 l 108 731 l 108 781 q 124 894 108 849 q 172 968 140 940 q 250 1008 203 996 q 360 1019 297 1019 q 409 1017 385 1019 q 453 1013 433 1015 l 446 861 q 390 869 421 869 q 321 848 342 869 q 300 778 300 826 l 300 731 l 446 731 l 446 581 l 303 581 l 303 0 l 108 0 l 108 581 z "},"g":{"ha":882,"x_min":50,"x_max":796,"o":"m 796 731 q 796 698 796 713 q 795 669 796 683 q 794 637 794 654 q 794 597 794 619 l 794 67 q 767 -85 794 -21 q 689 -192 739 -149 q 569 -256 639 -235 q 418 -276 500 -276 q 192 -224 283 -276 q 63 -82 101 -171 l 226 -18 q 300 -94 253 -65 q 421 -124 347 -124 q 556 -81 510 -124 q 606 58 603 -37 l 606 61 q 607 90 607 76 q 610 124 607 104 l 607 124 q 516 48 574 78 q 379 18 458 18 q 247 45 307 18 q 142 120 186 72 q 74 235 99 168 q 50 382 50 303 q 75 530 50 463 q 144 646 100 597 q 250 722 189 694 q 382 749 311 749 q 519 719 461 749 q 610 643 578 689 l 613 643 q 610 674 610 656 q 610 706 610 693 l 610 731 l 796 731 m 428 593 q 352 577 386 593 q 295 533 318 561 q 260 465 272 504 q 247 382 247 426 q 295 230 247 289 q 428 171 343 171 q 501 187 468 171 q 558 231 535 203 q 595 297 582 258 q 608 382 608 336 q 596 466 608 428 q 560 533 583 504 q 503 577 536 561 q 428 593 469 593 z "},"h":{"ha":858,"x_min":89,"x_max":771,"o":"m 89 1014 l 285 1014 l 285 740 q 284 695 285 721 q 282 650 283 669 q 371 722 315 694 q 506 750 426 750 q 701 674 632 750 q 771 449 771 599 l 771 0 l 576 0 l 576 357 q 541 535 576 483 q 438 588 506 588 q 322 532 358 588 q 285 364 285 476 l 285 0 l 89 0 l 89 1014 z "},"i":{"ha":375,"x_min":89,"x_max":286,"o":"m 89 1014 l 286 1014 l 286 831 l 89 831 l 89 1014 m 89 731 l 286 731 l 286 0 l 89 0 l 89 731 z "},"j":{"ha":372,"x_min":-36,"x_max":286,"o":"m 285 731 l 285 -18 q 269 -138 285 -90 q 224 -215 254 -186 q 149 -255 194 -243 q 46 -267 104 -267 q 5 -265 22 -267 q -36 -260 -12 -264 l -31 -110 q -15 -111 -22 -111 q -1 -111 -8 -111 q 69 -83 51 -111 q 88 6 88 -56 l 88 731 l 285 731 m 86 1014 l 286 1014 l 286 831 l 86 831 l 86 1014 z "},"k":{"ha":794,"x_min":89,"x_max":808,"o":"m 89 1014 l 282 1014 l 282 653 q 281 524 282 586 q 281 417 281 463 q 365 515 325 471 q 438 599 404 558 l 550 731 l 788 731 l 489 408 l 808 0 l 563 0 l 357 281 l 282 200 l 282 0 l 89 0 l 89 1014 z "},"l":{"ha":375,"x_min":89,"x_max":286,"o":"m 89 1014 l 286 1014 l 286 0 l 89 0 l 89 1014 z "},"m":{"ha":1314,"x_min":88,"x_max":1226,"o":"m 89 601 q 89 665 89 638 q 88 731 89 693 l 274 731 l 274 689 q 274 665 274 678 q 272 640 274 653 l 275 640 q 359 717 303 685 q 494 750 415 750 q 626 719 569 750 q 714 628 682 688 q 808 715 749 679 q 958 750 868 750 q 1158 670 1090 750 q 1226 435 1226 590 l 1226 0 l 1032 0 l 1032 392 q 1002 540 1032 492 q 901 588 972 588 q 788 530 821 588 q 756 374 756 472 l 756 0 l 561 0 l 561 389 q 530 538 561 489 q 429 588 499 588 q 314 524 344 588 q 283 342 283 460 l 283 0 l 89 0 l 89 601 z "},"n":{"ha":857,"x_min":88,"x_max":769,"o":"m 89 592 q 89 660 89 619 q 88 731 89 701 l 274 731 l 274 701 q 274 672 274 688 q 272 643 274 657 l 275 643 q 366 721 307 692 q 504 750 425 750 q 699 676 628 750 q 769 449 769 601 l 769 0 l 575 0 l 575 353 q 546 531 575 474 q 439 588 517 588 q 319 533 356 588 q 283 365 283 479 l 283 0 l 89 0 l 89 592 z "},"o":{"ha":867,"x_min":49,"x_max":818,"o":"m 244 365 q 293 200 244 261 q 433 139 342 139 q 572 200 524 139 q 619 364 619 261 q 572 528 619 464 q 433 593 524 593 q 293 529 342 593 q 244 365 244 465 m 49 365 q 76 522 49 450 q 156 644 104 593 q 278 723 207 694 q 435 751 349 751 q 590 723 519 751 q 712 644 661 694 q 790 522 763 593 q 818 365 818 450 q 790 209 818 279 q 711 88 763 139 q 589 10 660 38 q 433 -18 518 -18 q 276 10 347 -18 q 155 88 206 38 q 76 209 104 139 q 49 365 49 279 z "},"p":{"ha":890,"x_min":88,"x_max":842,"o":"m 89 607 q 89 672 89 640 q 88 731 89 703 l 279 731 l 279 706 q 279 676 279 693 q 278 642 279 658 l 279 642 q 371 719 314 686 q 508 751 428 751 q 642 724 581 751 q 748 644 704 696 q 817 522 792 593 q 842 367 842 451 q 817 210 842 281 q 749 89 793 139 q 642 11 704 39 q 506 -17 581 -17 q 372 10 426 -17 q 283 82 318 36 l 281 82 q 283 29 283 54 q 283 -24 283 4 l 283 -261 l 89 -261 l 89 607 m 463 589 q 328 527 378 589 q 278 364 278 465 q 327 201 278 264 q 464 139 376 139 q 597 201 549 139 q 644 363 644 263 q 597 526 644 463 q 463 589 549 589 z "},"q":{"ha":890,"x_min":49,"x_max":803,"o":"m 803 731 q 801 672 801 707 q 801 593 801 638 l 801 -261 l 607 -261 l 607 -11 q 607 33 607 10 q 608 83 607 57 q 520 10 574 36 q 385 -17 467 -17 q 247 11 310 -17 q 141 89 185 39 q 73 209 97 139 q 49 365 49 279 q 74 521 49 450 q 143 643 99 592 q 249 723 188 694 q 385 751 311 751 q 522 719 465 751 q 614 642 579 686 l 615 642 q 614 678 614 660 q 614 708 614 697 l 614 731 l 803 731 m 428 590 q 294 526 342 590 q 246 363 246 463 q 294 201 246 263 q 428 139 342 139 q 565 201 515 139 q 614 365 614 264 q 601 456 614 415 q 563 527 588 497 q 505 574 539 557 q 428 590 471 590 z "},"r":{"ha":532,"x_min":88,"x_max":524,"o":"m 89 596 q 89 667 89 636 q 88 731 89 699 l 272 731 l 272 697 q 272 662 272 679 q 271 628 272 644 l 275 628 q 482 747 332 747 q 505 747 494 747 q 524 744 515 746 l 521 563 q 494 568 507 567 q 469 569 482 569 q 381 555 417 569 q 322 508 344 540 q 291 427 300 476 q 282 308 282 378 l 282 0 l 89 0 l 89 596 z "},"s":{"ha":719,"x_min":26,"x_max":681,"o":"m 490 514 q 351 608 464 608 q 274 589 304 608 q 244 536 244 569 q 275 483 244 500 q 368 451 306 467 l 442 433 q 542 402 497 419 q 617 360 586 385 q 664 299 647 335 q 681 215 681 264 q 656 113 681 157 q 588 40 632 69 q 485 -3 544 11 q 354 -18 425 -18 q 138 34 225 -18 q 26 193 50 86 l 200 232 q 257 150 219 179 q 363 121 294 121 q 446 139 408 121 q 483 200 483 157 q 453 253 483 236 q 360 285 422 269 l 274 307 q 181 338 222 321 q 110 378 139 354 q 65 438 81 403 q 50 522 50 472 q 73 619 50 576 q 136 690 96 661 q 232 735 176 719 q 354 750 288 750 q 558 699 478 750 q 661 550 639 649 l 490 514 z "},"t":{"ha":474,"x_min":-3,"x_max":457,"o":"m 457 582 l 311 582 l 311 289 q 319 175 311 219 q 341 103 326 131 q 377 60 356 75 q 426 33 399 44 l 426 0 l 194 0 q 157 31 172 13 q 133 77 142 50 q 120 142 124 104 q 117 231 117 179 l 117 582 l -3 582 l -3 731 l 117 731 l 117 931 l 311 931 l 311 731 l 457 731 l 457 582 z "},"u":{"ha":835,"x_min":72,"x_max":749,"o":"m 747 113 q 747 58 747 85 q 749 0 747 32 l 563 0 l 563 29 q 563 56 563 42 q 564 86 563 71 l 561 86 q 472 10 528 38 q 336 -17 415 -17 q 143 52 214 -17 q 72 271 72 121 l 72 731 l 267 731 l 267 319 q 301 183 267 224 q 403 142 336 142 q 515 192 478 142 q 553 338 553 242 l 553 731 l 747 731 l 747 113 z "},"v":{"ha":735,"x_min":-7,"x_max":742,"o":"m -7 731 l 199 731 l 300 404 q 335 294 318 346 q 367 189 351 242 l 371 189 q 401 294 386 242 q 435 406 415 347 l 539 731 l 742 731 l 469 0 l 254 0 l -7 731 z "},"w":{"ha":1133,"x_min":-6,"x_max":1139,"o":"m -6 731 l 194 731 l 265 449 q 295 324 281 388 q 324 193 310 260 l 329 193 q 361 331 344 263 q 389 443 378 400 l 463 731 l 675 731 l 747 446 q 777 319 763 382 q 806 192 792 257 l 811 192 q 840 316 825 253 q 872 451 854 379 l 943 731 l 1139 731 l 921 0 l 697 0 l 624 289 q 594 420 606 360 q 569 543 582 481 l 563 543 q 537 418 550 481 q 506 288 524 356 l 432 0 l 210 0 l -6 731 z "},"x":{"ha":751,"x_min":-7,"x_max":758,"o":"m 260 374 l 10 731 l 238 731 l 376 506 l 517 731 l 736 731 l 489 378 l 758 0 l 529 0 l 372 242 l 215 0 l -7 0 l 260 374 z "},"y":{"ha":740,"x_min":-6,"x_max":747,"o":"m -6 731 l 206 731 l 286 481 q 331 340 308 411 q 374 196 353 268 l 379 196 q 401 274 392 239 q 420 340 411 308 q 440 406 429 372 q 463 479 450 439 l 542 731 l 747 731 l 453 -51 q 397 -158 428 -117 q 328 -222 367 -199 q 240 -255 289 -246 q 133 -264 192 -264 q 105 -263 119 -264 q 75 -261 90 -262 l 57 -114 q 85 -115 72 -115 q 111 -115 99 -115 q 167 -112 142 -115 q 212 -97 192 -108 q 247 -62 232 -85 q 275 -3 263 -40 l -6 731 z "},"z":{"ha":696,"x_min":29,"x_max":658,"o":"m 29 146 l 244 393 q 320 481 281 436 q 403 574 360 525 l 403 576 q 356 574 378 575 q 308 574 333 574 l 44 574 l 44 731 l 640 731 l 640 581 l 453 363 q 363 258 408 310 q 271 154 317 207 l 271 151 q 319 152 299 151 q 360 153 340 153 q 399 153 379 153 q 443 153 418 153 l 658 153 l 658 0 l 29 0 l 29 146 z "},"{":{"ha":453,"x_min":33,"x_max":410,"o":"m 206 418 q 251 393 232 407 q 281 356 269 379 q 299 297 293 332 q 304 208 304 261 l 304 39 q 321 -50 304 -22 q 396 -78 338 -78 l 410 -78 l 410 -204 l 325 -204 q 227 -192 265 -204 q 167 -156 189 -181 q 136 -94 144 -132 q 128 -4 128 -57 l 128 186 q 124 263 128 232 q 109 315 119 294 q 81 346 99 335 q 33 363 63 357 l 33 474 q 81 490 63 479 q 109 522 99 501 q 124 573 119 542 q 128 650 128 604 l 128 842 q 135 931 128 893 q 165 993 143 968 q 225 1030 186 1018 q 325 1042 264 1042 l 410 1042 l 410 915 l 397 915 q 321 885 338 915 q 304 796 304 854 l 304 624 q 299 535 304 569 q 281 478 293 500 q 251 442 269 456 q 206 419 232 429 l 206 418 z "},"|":{"ha":451,"x_min":139,"x_max":311,"o":"m 311 1040 l 311 -212 l 139 -212 l 139 1040 l 311 1040 z "},"}":{"ha":461,"x_min":38,"x_max":414,"o":"m 242 419 q 197 442 215 429 q 166 478 178 456 q 149 535 154 500 q 143 624 143 569 l 143 796 q 126 885 143 854 q 50 915 110 915 l 38 915 l 38 1042 l 122 1042 q 222 1030 183 1042 q 283 993 261 1018 q 312 931 304 968 q 319 842 319 893 l 319 650 q 324 573 319 604 q 338 522 328 542 q 367 490 349 501 q 414 474 385 479 l 414 363 q 367 346 385 357 q 338 315 349 335 q 324 263 328 294 q 319 186 319 232 l 319 -4 q 311 -94 319 -57 q 281 -156 303 -132 q 220 -192 258 -181 q 122 -204 182 -204 l 38 -204 l 38 -78 l 51 -78 q 126 -50 110 -78 q 143 39 143 -22 l 143 208 q 149 297 143 261 q 166 356 154 332 q 197 393 178 379 q 242 418 215 407 l 242 419 l 242 419 z "},"~":{"ha":817,"x_min":57,"x_max":758,"o":"m 758 506 q 670 388 721 435 q 549 340 619 340 q 474 354 507 340 q 404 385 440 368 l 357 407 q 316 426 333 418 q 275 433 299 433 q 164 349 214 433 l 57 433 q 145 551 94 504 q 267 599 196 599 q 342 585 308 599 q 411 554 375 571 l 458 532 q 499 513 482 521 q 540 506 517 506 q 651 590 601 506 l 758 506 z "},"Ä":{"ha":1006,"x_min":-6,"x_max":1011,"o":"m 388 1014 l 617 1014 l 1011 0 l 793 0 l 697 251 l 300 251 l 206 0 l -6 0 l 388 1014 m 639 422 l 579 593 q 557 655 568 622 q 535 718 546 688 q 516 776 525 749 q 501 825 507 804 l 496 825 q 481 778 490 808 q 461 715 472 749 q 439 649 450 682 q 419 593 428 615 l 357 422 l 639 422 m 444 1282 l 444 1119 l 282 1119 l 282 1282 l 444 1282 m 715 1282 l 715 1119 l 551 1119 l 551 1282 l 715 1282 z "},"Å":{"ha":1006,"x_min":-6,"x_max":1011,"o":"m 388 1014 l 617 1014 l 1011 0 l 793 0 l 697 251 l 300 251 l 206 0 l -6 0 l 388 1014 m 639 422 l 579 593 q 557 655 568 622 q 535 718 546 688 q 516 776 525 749 q 501 825 507 804 l 496 825 q 481 778 490 808 q 461 715 472 749 q 439 649 450 682 q 419 593 428 615 l 357 422 l 639 422 m 497 1374 q 556 1362 528 1374 q 603 1330 583 1350 q 635 1283 624 1310 q 647 1226 647 1257 q 635 1167 647 1194 q 603 1120 624 1140 q 556 1088 583 1100 q 497 1076 529 1076 q 439 1088 465 1076 q 392 1120 413 1100 q 361 1167 372 1140 q 350 1226 350 1194 q 362 1283 350 1257 q 393 1330 374 1310 q 440 1362 413 1350 q 497 1374 467 1374 m 492 1283 q 454 1265 469 1281 q 439 1226 439 1249 q 456 1184 439 1201 q 497 1167 474 1167 q 539 1184 521 1167 q 557 1226 557 1201 q 539 1267 557 1250 q 497 1283 521 1283 l 492 1283 z "},"Ç":{"ha":1019,"x_min":49,"x_max":997,"o":"m 793 690 q 702 812 763 769 q 550 854 642 854 q 430 828 483 854 q 340 755 376 801 q 283 645 303 708 q 264 507 264 582 q 284 365 264 429 q 342 254 304 301 q 435 181 381 207 q 556 156 489 156 q 703 200 643 156 q 793 319 764 244 l 997 282 q 838 61 954 142 q 553 -19 722 -19 q 346 19 439 -19 q 187 126 253 57 q 85 292 121 196 q 49 506 49 389 q 86 719 49 622 q 190 887 124 817 q 350 996 257 957 q 556 1035 443 1035 q 838 954 724 1035 q 993 733 951 874 l 793 690 m 540 -249 l 321 -249 l 471 -65 l 647 -65 l 540 -249 z "},"É":{"ha":868,"x_min":101,"x_max":806,"o":"m 101 1014 l 794 1014 l 794 839 l 306 839 l 306 607 l 757 607 l 757 432 l 306 432 l 306 175 l 806 175 l 806 0 l 101 0 l 101 1014 m 657 1294 l 493 1111 l 319 1111 q 372 1203 346 1157 q 422 1294 397 1249 l 657 1294 z "},"Ñ":{"ha":1083,"x_min":101,"x_max":982,"o":"m 101 1014 l 372 1014 l 651 507 q 726 366 696 428 q 782 249 756 304 l 786 249 q 783 401 783 322 q 782 549 782 479 l 782 1014 l 982 1014 l 982 0 l 719 0 l 458 467 q 411 553 435 508 q 367 639 388 597 q 328 716 346 681 q 300 775 311 751 l 297 775 q 299 717 297 751 q 301 644 300 682 q 302 570 301 607 q 303 506 303 533 l 303 0 l 101 0 l 101 1014 m 790 1279 q 744 1160 781 1207 q 640 1114 707 1114 q 557 1132 600 1114 l 538 1140 q 497 1158 518 1149 q 461 1167 476 1167 q 410 1115 425 1167 l 300 1128 q 347 1247 310 1200 q 450 1293 383 1293 q 533 1275 490 1293 l 553 1267 q 593 1249 572 1258 q 629 1240 614 1240 q 681 1292 665 1240 l 790 1279 z "},"Ö":{"ha":1125,"x_min":50,"x_max":1074,"o":"m 561 154 q 685 181 631 154 q 779 254 740 207 q 838 367 818 301 q 858 508 858 432 q 838 647 858 583 q 779 758 818 711 q 685 831 740 804 q 561 857 631 857 q 437 831 492 857 q 344 758 382 804 q 285 647 306 711 q 265 508 265 583 q 285 367 265 432 q 344 254 306 301 q 437 181 382 207 q 561 154 492 154 m 563 -19 q 353 19 447 -19 q 191 126 258 57 q 87 291 124 194 q 50 506 50 388 q 88 721 50 624 q 192 888 125 818 q 353 996 260 957 q 561 1035 447 1035 q 769 996 675 1035 q 931 888 863 957 q 1036 721 999 818 q 1074 506 1074 624 q 1037 291 1074 388 q 933 126 1000 194 q 772 19 867 57 q 563 -19 678 -19 m 508 1282 l 508 1119 l 346 1119 l 346 1282 l 508 1282 m 779 1282 l 779 1119 l 615 1119 l 615 1282 l 779 1282 z "},"Ü":{"ha":1001,"x_min":93,"x_max":907,"o":"m 500 -19 q 324 3 400 -19 q 197 75 247 25 q 119 205 146 125 q 93 400 93 285 l 93 1014 l 303 1014 l 303 400 q 349 218 303 279 q 500 157 396 157 q 651 218 604 157 q 697 400 697 279 l 697 1014 l 907 1014 l 907 400 q 880 203 907 283 q 801 74 853 124 q 673 3 749 25 q 500 -19 597 -19 m 451 1282 l 451 1119 l 289 1119 l 289 1282 l 451 1282 m 722 1282 l 722 1119 l 558 1119 l 558 1282 l 722 1282 z "},"á":{"ha":796,"x_min":46,"x_max":710,"o":"m 69 497 q 163 677 78 608 q 394 746 247 746 q 629 678 550 746 q 708 463 708 610 l 708 35 q 709 13 708 22 q 710 0 710 4 l 544 0 q 543 18 543 8 q 543 38 543 28 l 543 65 l 542 65 q 448 8 504 29 q 313 -14 392 -14 q 118 44 190 -14 q 46 206 46 101 q 62 292 46 256 q 112 356 78 329 q 200 401 146 382 q 329 433 254 419 l 449 456 q 484 463 469 460 q 507 470 499 465 q 519 483 515 475 q 522 504 522 490 q 488 577 522 550 q 392 604 454 604 q 291 572 325 604 q 253 486 257 539 l 69 497 m 529 339 q 483 328 503 332 q 428 318 463 325 q 346 301 381 308 q 288 282 311 293 q 252 253 264 271 q 240 208 240 236 q 272 140 240 164 q 361 115 303 115 q 483 158 439 115 q 526 283 526 201 l 526 310 q 526 324 526 317 q 529 339 526 332 m 447 831 l 274 831 l 378 1014 l 611 1014 l 447 831 z "},"à":{"ha":796,"x_min":46,"x_max":710,"o":"m 69 497 q 163 677 78 608 q 394 746 247 746 q 629 678 550 746 q 708 463 708 610 l 708 35 q 709 13 708 22 q 710 0 710 4 l 544 0 q 543 18 543 8 q 543 38 543 28 l 543 65 l 542 65 q 448 8 504 29 q 313 -14 392 -14 q 118 44 190 -14 q 46 206 46 101 q 62 292 46 256 q 112 356 78 329 q 200 401 146 382 q 329 433 254 419 l 449 456 q 484 463 469 460 q 507 470 499 465 q 519 483 515 475 q 522 504 522 490 q 488 577 522 550 q 392 604 454 604 q 291 572 325 604 q 253 486 257 539 l 69 497 m 529 339 q 483 328 503 332 q 428 318 463 325 q 346 301 381 308 q 288 282 311 293 q 252 253 264 271 q 240 208 240 236 q 272 140 240 164 q 361 115 303 115 q 483 158 439 115 q 526 283 526 201 l 526 310 q 526 324 526 317 q 529 339 526 332 m 401 1014 l 506 831 l 332 831 l 168 1014 l 401 1014 z "},"â":{"ha":796,"x_min":46,"x_max":710,"o":"m 69 497 q 163 677 78 608 q 394 746 247 746 q 629 678 550 746 q 708 463 708 610 l 708 35 q 709 13 708 22 q 710 0 710 4 l 544 0 q 543 18 543 8 q 543 38 543 28 l 543 65 l 542 65 q 448 8 504 29 q 313 -14 392 -14 q 118 44 190 -14 q 46 206 46 101 q 62 292 46 256 q 112 356 78 329 q 200 401 146 382 q 329 433 254 419 l 449 456 q 484 463 469 460 q 507 470 499 465 q 519 483 515 475 q 522 504 522 490 q 488 577 522 550 q 392 604 454 604 q 291 572 325 604 q 253 486 257 539 l 69 497 m 529 339 q 483 328 503 332 q 428 318 463 325 q 346 301 381 308 q 288 282 311 293 q 252 253 264 271 q 240 208 240 236 q 272 140 240 164 q 361 115 303 115 q 483 158 439 115 q 526 283 526 201 l 526 310 q 526 324 526 317 q 529 339 526 332 m 308 831 l 140 831 l 282 1014 l 506 1014 l 646 831 l 479 831 l 393 919 l 308 831 z "},"ä":{"ha":796,"x_min":46,"x_max":710,"o":"m 69 497 q 163 677 78 608 q 394 746 247 746 q 629 678 550 746 q 708 463 708 610 l 708 35 q 709 13 708 22 q 710 0 710 4 l 544 0 q 543 18 543 8 q 543 38 543 28 l 543 65 l 542 65 q 448 8 504 29 q 313 -14 392 -14 q 118 44 190 -14 q 46 206 46 101 q 62 292 46 256 q 112 356 78 329 q 200 401 146 382 q 329 433 254 419 l 449 456 q 484 463 469 460 q 507 470 499 465 q 519 483 515 475 q 522 504 522 490 q 488 577 522 550 q 392 604 454 604 q 291 572 325 604 q 253 486 257 539 l 69 497 m 529 339 q 483 328 503 332 q 428 318 463 325 q 346 301 381 308 q 288 282 311 293 q 252 253 264 271 q 240 208 240 236 q 272 140 240 164 q 361 115 303 115 q 483 158 439 115 q 526 283 526 201 l 526 310 q 526 324 526 317 q 529 339 526 332 m 342 839 l 179 839 l 179 1001 l 342 1001 l 342 839 m 614 839 l 450 839 l 450 1001 l 614 1001 l 614 839 z "},"ã":{"ha":796,"x_min":46,"x_max":710,"o":"m 69 497 q 163 677 78 608 q 394 746 247 746 q 629 678 550 746 q 708 463 708 610 l 708 35 q 709 13 708 22 q 710 0 710 4 l 544 0 q 543 18 543 8 q 543 38 543 28 l 543 65 l 542 65 q 448 8 504 29 q 313 -14 392 -14 q 118 44 190 -14 q 46 206 46 101 q 62 292 46 256 q 112 356 78 329 q 200 401 146 382 q 329 433 254 419 l 449 456 q 484 463 469 460 q 507 470 499 465 q 519 483 515 475 q 522 504 522 490 q 488 577 522 550 q 392 604 454 604 q 291 572 325 604 q 253 486 257 539 l 69 497 m 529 339 q 483 328 503 332 q 428 318 463 325 q 346 301 381 308 q 288 282 311 293 q 252 253 264 271 q 240 208 240 236 q 272 140 240 164 q 361 115 303 115 q 483 158 439 115 q 526 283 526 201 l 526 310 q 526 324 526 317 q 529 339 526 332 m 639 999 q 592 880 629 926 q 489 833 556 833 q 406 851 449 833 l 386 860 q 346 877 367 868 q 310 886 325 886 q 258 835 274 886 l 149 847 q 195 966 158 919 q 299 1013 232 1013 q 382 994 339 1013 l 401 986 q 442 969 421 978 q 478 960 463 960 q 529 1011 514 960 l 639 999 z "},"å":{"ha":796,"x_min":46,"x_max":710,"o":"m 69 497 q 163 677 78 608 q 394 746 247 746 q 629 678 550 746 q 708 463 708 610 l 708 35 q 709 13 708 22 q 710 0 710 4 l 544 0 q 543 18 543 8 q 543 38 543 28 l 543 65 l 542 65 q 448 8 504 29 q 313 -14 392 -14 q 118 44 190 -14 q 46 206 46 101 q 62 292 46 256 q 112 356 78 329 q 200 401 146 382 q 329 433 254 419 l 449 456 q 484 463 469 460 q 507 470 499 465 q 519 483 515 475 q 522 504 522 490 q 488 577 522 550 q 392 604 454 604 q 291 572 325 604 q 253 486 257 539 l 69 497 m 529 339 q 483 328 503 332 q 428 318 463 325 q 346 301 381 308 q 288 282 311 293 q 252 253 264 271 q 240 208 240 236 q 272 140 240 164 q 361 115 303 115 q 483 158 439 115 q 526 283 526 201 l 526 310 q 526 324 526 317 q 529 339 526 332 m 400 1093 q 459 1081 432 1093 q 506 1049 486 1069 q 538 1003 526 1029 q 550 946 550 976 q 538 887 550 914 q 506 840 526 860 q 459 808 486 819 q 400 796 432 796 q 342 808 368 796 q 295 840 315 819 q 264 887 275 860 q 253 946 253 914 q 265 1003 253 976 q 296 1049 276 1029 q 342 1081 315 1069 q 400 1093 369 1093 m 400 1003 q 359 986 376 1003 q 342 946 342 969 q 359 903 342 921 q 400 886 376 886 q 442 903 424 886 q 460 946 460 921 q 442 986 460 969 q 400 1003 424 1003 z "},"ç":{"ha":792,"x_min":49,"x_max":763,"o":"m 582 475 q 527 559 565 526 q 428 592 489 592 q 294 531 340 592 q 247 364 247 471 q 296 198 247 257 q 428 139 344 139 q 529 171 490 139 q 585 256 568 203 l 763 215 q 717 120 747 163 q 644 47 688 78 q 544 -1 600 15 q 422 -18 488 -18 q 267 10 336 -18 q 149 88 197 38 q 74 209 100 139 q 49 364 49 279 q 76 522 49 450 q 153 644 103 593 q 273 723 203 694 q 428 751 343 751 q 646 685 558 751 q 763 514 733 619 l 582 475 m 417 -249 l 197 -249 l 347 -65 l 524 -65 l 417 -249 z "},"é":{"ha":836,"x_min":49,"x_max":790,"o":"m 239 315 q 299 181 246 231 q 435 132 353 132 q 504 141 474 132 q 558 165 535 150 q 599 199 582 181 q 628 236 617 217 l 786 174 q 732 99 765 133 q 655 38 699 64 q 555 -3 611 13 q 432 -18 499 -18 q 274 9 344 -18 q 153 85 203 36 q 76 206 103 135 q 49 364 49 276 q 76 518 49 447 q 152 640 103 589 q 272 721 201 692 q 428 750 342 750 q 591 718 522 750 q 704 628 660 686 q 769 491 749 571 q 790 315 790 411 l 239 315 m 599 446 q 584 508 596 478 q 551 560 572 538 q 498 597 529 583 q 426 610 467 610 q 299 563 347 610 q 240 446 251 517 l 599 446 m 499 831 l 325 831 l 429 1014 l 663 1014 l 499 831 z "},"è":{"ha":836,"x_min":49,"x_max":790,"o":"m 239 315 q 299 181 246 231 q 435 132 353 132 q 504 141 474 132 q 558 165 535 150 q 599 199 582 181 q 628 236 617 217 l 786 174 q 732 99 765 133 q 655 38 699 64 q 555 -3 611 13 q 432 -18 499 -18 q 274 9 344 -18 q 153 85 203 36 q 76 206 103 135 q 49 364 49 276 q 76 518 49 447 q 152 640 103 589 q 272 721 201 692 q 428 750 342 750 q 591 718 522 750 q 704 628 660 686 q 769 491 749 571 q 790 315 790 411 l 239 315 m 599 446 q 584 508 596 478 q 551 560 572 538 q 498 597 529 583 q 426 610 467 610 q 299 563 347 610 q 240 446 251 517 l 599 446 m 425 1014 l 529 831 l 356 831 l 192 1014 l 425 1014 z "},"ê":{"ha":836,"x_min":49,"x_max":790,"o":"m 239 315 q 299 181 246 231 q 435 132 353 132 q 504 141 474 132 q 558 165 535 150 q 599 199 582 181 q 628 236 617 217 l 786 174 q 732 99 765 133 q 655 38 699 64 q 555 -3 611 13 q 432 -18 499 -18 q 274 9 344 -18 q 153 85 203 36 q 76 206 103 135 q 49 364 49 276 q 76 518 49 447 q 152 640 103 589 q 272 721 201 692 q 428 750 342 750 q 591 718 522 750 q 704 628 660 686 q 769 491 749 571 q 790 315 790 411 l 239 315 m 599 446 q 584 508 596 478 q 551 560 572 538 q 498 597 529 583 q 426 610 467 610 q 299 563 347 610 q 240 446 251 517 l 599 446 m 340 831 l 172 831 l 314 1014 l 538 1014 l 678 831 l 511 831 l 425 919 l 340 831 z "},"ë":{"ha":836,"x_min":49,"x_max":790,"o":"m 239 315 q 299 181 246 231 q 435 132 353 132 q 504 141 474 132 q 558 165 535 150 q 599 199 582 181 q 628 236 617 217 l 786 174 q 732 99 765 133 q 655 38 699 64 q 555 -3 611 13 q 432 -18 499 -18 q 274 9 344 -18 q 153 85 203 36 q 76 206 103 135 q 49 364 49 276 q 76 518 49 447 q 152 640 103 589 q 272 721 201 692 q 428 750 342 750 q 591 718 522 750 q 704 628 660 686 q 769 491 749 571 q 790 315 790 411 l 239 315 m 599 446 q 584 508 596 478 q 551 560 572 538 q 498 597 529 583 q 426 610 467 610 q 299 563 347 610 q 240 446 251 517 l 599 446 m 374 839 l 211 839 l 211 1001 l 374 1001 l 374 839 m 646 839 l 482 839 l 482 1001 l 646 1001 l 646 839 z "},"í":{"ha":375,"x_min":89,"x_max":429,"o":"m 265 831 l 92 831 l 196 1014 l 429 1014 l 265 831 m 89 731 l 286 731 l 286 0 l 89 0 l 89 731 z "},"ì":{"ha":375,"x_min":-54,"x_max":286,"o":"m 179 1014 l 283 831 l 110 831 l -54 1014 l 179 1014 m 89 731 l 286 731 l 286 0 l 89 0 l 89 731 z "},"î":{"ha":375,"x_min":-68,"x_max":438,"o":"m 89 731 l 286 731 l 286 0 l 89 0 l 89 731 m 100 831 l -68 831 l 74 1014 l 297 1014 l 438 831 l 271 831 l 185 919 l 100 831 z "},"ï":{"ha":375,"x_min":-31,"x_max":404,"o":"m 132 839 l -31 839 l -31 1001 l 132 1001 l 132 839 m 404 839 l 240 839 l 240 1001 l 404 1001 l 404 839 m 89 731 l 286 731 l 286 0 l 89 0 l 89 731 z "},"ñ":{"ha":857,"x_min":88,"x_max":769,"o":"m 89 592 q 89 660 89 619 q 88 731 89 701 l 274 731 l 274 701 q 274 672 274 688 q 272 643 274 657 l 275 643 q 366 721 307 692 q 504 750 425 750 q 699 676 628 750 q 769 449 769 601 l 769 0 l 575 0 l 575 353 q 546 531 575 474 q 439 588 517 588 q 319 533 356 588 q 283 365 283 479 l 283 0 l 89 0 l 89 592 m 683 999 q 637 880 674 926 q 533 833 600 833 q 450 851 493 833 l 431 860 q 390 877 411 868 q 354 886 369 886 q 303 835 318 886 l 193 847 q 240 966 203 919 q 343 1013 276 1013 q 426 994 383 1013 l 446 986 q 486 969 465 978 q 522 960 507 960 q 574 1011 558 960 l 683 999 z "},"ó":{"ha":867,"x_min":49,"x_max":818,"o":"m 244 365 q 293 200 244 261 q 433 139 342 139 q 572 200 524 139 q 619 364 619 261 q 572 528 619 464 q 433 593 524 593 q 293 529 342 593 q 244 365 244 465 m 49 365 q 76 522 49 450 q 156 644 104 593 q 278 723 207 694 q 435 751 349 751 q 590 723 519 751 q 712 644 661 694 q 790 522 763 593 q 818 365 818 450 q 790 209 818 279 q 711 88 763 139 q 589 10 660 38 q 433 -18 518 -18 q 276 10 347 -18 q 155 88 206 38 q 76 209 104 139 q 49 365 49 279 m 494 831 l 321 831 l 425 1014 l 658 1014 l 494 831 z "},"ò":{"ha":867,"x_min":49,"x_max":818,"o":"m 244 365 q 293 200 244 261 q 433 139 342 139 q 572 200 524 139 q 619 364 619 261 q 572 528 619 464 q 433 593 524 593 q 293 529 342 593 q 244 365 244 465 m 49 365 q 76 522 49 450 q 156 644 104 593 q 278 723 207 694 q 435 751 349 751 q 590 723 519 751 q 712 644 661 694 q 790 522 763 593 q 818 365 818 450 q 790 209 818 279 q 711 88 763 139 q 589 10 660 38 q 433 -18 518 -18 q 276 10 347 -18 q 155 88 206 38 q 76 209 104 139 q 49 365 49 279 m 438 1014 l 542 831 l 368 831 l 204 1014 l 438 1014 z "},"ô":{"ha":867,"x_min":49,"x_max":818,"o":"m 244 365 q 293 200 244 261 q 433 139 342 139 q 572 200 524 139 q 619 364 619 261 q 572 528 619 464 q 433 593 524 593 q 293 529 342 593 q 244 365 244 465 m 49 365 q 76 522 49 450 q 156 644 104 593 q 278 723 207 694 q 435 751 349 751 q 590 723 519 751 q 712 644 661 694 q 790 522 763 593 q 818 365 818 450 q 790 209 818 279 q 711 88 763 139 q 589 10 660 38 q 433 -18 518 -18 q 276 10 347 -18 q 155 88 206 38 q 76 209 104 139 q 49 365 49 279 m 350 831 l 182 831 l 324 1014 l 547 1014 l 688 831 l 521 831 l 435 919 l 350 831 z "},"ö":{"ha":867,"x_min":49,"x_max":818,"o":"m 244 365 q 293 200 244 261 q 433 139 342 139 q 572 200 524 139 q 619 364 619 261 q 572 528 619 464 q 433 593 524 593 q 293 529 342 593 q 244 365 244 465 m 49 365 q 76 522 49 450 q 156 644 104 593 q 278 723 207 694 q 435 751 349 751 q 590 723 519 751 q 712 644 661 694 q 790 522 763 593 q 818 365 818 450 q 790 209 818 279 q 711 88 763 139 q 589 10 660 38 q 433 -18 518 -18 q 276 10 347 -18 q 155 88 206 38 q 76 209 104 139 q 49 365 49 279 m 382 839 l 219 839 l 219 1001 l 382 1001 l 382 839 m 654 839 l 490 839 l 490 1001 l 654 1001 l 654 839 z "},"õ":{"ha":867,"x_min":49,"x_max":818,"o":"m 244 365 q 293 200 244 261 q 433 139 342 139 q 572 200 524 139 q 619 364 619 261 q 572 528 619 464 q 433 593 524 593 q 293 529 342 593 q 244 365 244 465 m 49 365 q 76 522 49 450 q 156 644 104 593 q 278 723 207 694 q 435 751 349 751 q 590 723 519 751 q 712 644 661 694 q 790 522 763 593 q 818 365 818 450 q 790 209 818 279 q 711 88 763 139 q 589 10 660 38 q 433 -18 518 -18 q 276 10 347 -18 q 155 88 206 38 q 76 209 104 139 q 49 365 49 279 m 682 999 q 635 880 672 926 q 532 833 599 833 q 449 851 492 833 l 429 860 q 389 877 410 868 q 353 886 368 886 q 301 835 317 886 l 192 847 q 238 966 201 919 q 342 1013 275 1013 q 425 994 382 1013 l 444 986 q 485 969 464 978 q 521 960 506 960 q 572 1011 557 960 l 682 999 z "},"ú":{"ha":839,"x_min":72,"x_max":749,"o":"m 747 113 q 747 58 747 85 q 749 0 747 32 l 563 0 l 563 29 q 563 56 563 42 q 564 86 563 71 l 561 86 q 472 10 528 38 q 336 -17 415 -17 q 143 52 214 -17 q 72 271 72 121 l 72 731 l 267 731 l 267 319 q 301 183 267 224 q 403 142 336 142 q 515 192 478 142 q 553 338 553 242 l 553 731 l 747 731 l 747 113 m 476 831 l 303 831 l 407 1014 l 640 1014 l 476 831 z "},"ù":{"ha":839,"x_min":72,"x_max":749,"o":"m 747 113 q 747 58 747 85 q 749 0 747 32 l 563 0 l 563 29 q 563 56 563 42 q 564 86 563 71 l 561 86 q 472 10 528 38 q 336 -17 415 -17 q 143 52 214 -17 q 72 271 72 121 l 72 731 l 267 731 l 267 319 q 301 183 267 224 q 403 142 336 142 q 515 192 478 142 q 553 338 553 242 l 553 731 l 747 731 l 747 113 m 426 1014 l 531 831 l 357 831 l 193 1014 l 426 1014 z "},"û":{"ha":839,"x_min":72,"x_max":749,"o":"m 747 113 q 747 58 747 85 q 749 0 747 32 l 563 0 l 563 29 q 563 56 563 42 q 564 86 563 71 l 561 86 q 472 10 528 38 q 336 -17 415 -17 q 143 52 214 -17 q 72 271 72 121 l 72 731 l 267 731 l 267 319 q 301 183 267 224 q 403 142 336 142 q 515 192 478 142 q 553 338 553 242 l 553 731 l 747 731 l 747 113 m 328 831 l 160 831 l 301 1014 l 525 1014 l 665 831 l 499 831 l 413 919 l 328 831 z "},"ü":{"ha":839,"x_min":72,"x_max":749,"o":"m 747 113 q 747 58 747 85 q 749 0 747 32 l 563 0 l 563 29 q 563 56 563 42 q 564 86 563 71 l 561 86 q 472 10 528 38 q 336 -17 415 -17 q 143 52 214 -17 q 72 271 72 121 l 72 731 l 267 731 l 267 319 q 301 183 267 224 q 403 142 336 142 q 515 192 478 142 q 553 338 553 242 l 553 731 l 747 731 l 747 113 m 353 839 l 190 839 l 190 1001 l 353 1001 l 353 839 m 625 839 l 461 839 l 461 1001 l 625 1001 l 625 839 z "},"†":{"ha":763,"x_min":60,"x_max":700,"o":"m 282 -69 l 282 596 l 60 596 l 60 765 l 282 765 l 282 1014 l 479 1014 l 479 765 l 700 765 l 700 596 l 479 596 l 479 -69 l 282 -69 z "},"°":{"ha":557,"x_min":51,"x_max":503,"o":"m 278 1031 q 366 1013 325 1031 q 438 966 407 996 q 485 896 468 936 q 503 808 503 856 q 485 720 503 761 q 438 649 468 679 q 366 603 407 619 q 278 586 325 586 q 189 603 231 586 q 117 649 147 619 q 69 720 86 679 q 51 808 51 761 q 69 896 51 856 q 117 966 86 936 q 188 1013 147 996 q 278 1031 229 1031 m 278 917 q 199 885 231 917 q 168 808 168 854 q 199 730 168 761 q 278 699 231 699 q 353 730 322 699 q 385 808 385 761 q 353 885 385 854 q 278 917 322 917 z "},"¢":{"ha":817,"x_min":49,"x_max":763,"o":"m 582 642 q 527 726 565 693 q 428 758 489 758 q 294 698 340 758 q 247 531 247 638 q 296 365 247 424 q 428 306 344 306 q 529 338 490 306 q 585 422 568 369 l 763 382 q 678 243 739 300 q 529 164 618 186 l 529 -28 l 335 -28 l 335 160 q 124 285 200 186 q 49 531 49 383 q 69 667 49 604 q 126 778 89 729 q 217 859 164 826 q 335 906 269 892 l 335 1089 l 529 1089 l 529 903 q 679 822 619 881 q 763 681 739 764 l 582 642 z "},"£":{"ha":817,"x_min":29,"x_max":783,"o":"m 213 314 q 206 371 213 343 q 193 431 200 399 l 29 431 l 29 579 l 147 579 q 136 638 140 607 q 132 701 132 669 q 156 826 132 769 q 223 921 179 882 q 329 981 267 960 q 468 1003 392 1003 q 698 928 615 1003 q 783 725 781 854 l 593 707 q 555 799 586 765 q 465 832 524 832 q 367 792 399 832 q 336 688 336 751 q 341 631 336 658 q 353 581 346 604 l 572 581 l 572 431 l 394 431 q 408 374 403 404 q 414 315 414 344 q 399 226 414 261 q 354 157 385 190 q 473 160 408 160 q 593 160 538 160 l 772 160 l 771 0 l 54 0 l 54 146 q 176 201 139 157 q 213 314 213 246 z "},"¤":{"ha":817,"x_min":33,"x_max":781,"o":"m 658 879 l 781 754 l 692 665 q 739 504 739 586 q 727 419 739 460 q 693 342 715 378 l 781 253 l 658 129 l 571 218 q 408 175 497 175 q 244 218 321 175 l 157 129 l 33 253 l 122 342 q 90 419 101 381 q 79 503 79 458 q 122 665 79 589 l 33 754 l 157 879 l 246 789 q 407 832 325 832 q 569 789 493 832 l 658 879 m 408 674 q 342 660 372 674 q 288 624 311 647 q 251 569 264 600 q 238 503 238 538 q 251 437 238 468 q 288 383 264 406 q 342 346 311 360 q 408 332 372 332 q 474 346 443 332 q 529 383 506 360 q 566 437 553 406 q 579 503 579 468 q 566 569 579 538 q 529 624 553 600 q 474 660 506 647 q 408 674 443 674 z "},"¥":{"ha":817,"x_min":-18,"x_max":836,"o":"m 640 646 l 769 646 l 769 511 l 571 511 l 513 400 l 769 400 l 769 265 l 504 265 l 504 0 l 306 0 l 306 265 l 31 265 l 31 400 l 299 400 l 239 511 l 31 511 l 31 646 l 171 646 l -18 1003 l 201 1003 l 317 769 q 362 670 343 715 q 407 572 381 625 l 411 572 q 461 678 438 629 q 508 778 485 728 l 618 1003 l 836 1003 l 640 646 z "},"§":{"ha":817,"x_min":51,"x_max":754,"o":"m 540 786 q 498 864 533 839 q 408 889 463 889 q 333 869 364 889 q 301 818 301 850 q 324 769 301 786 q 397 731 346 751 l 529 676 q 694 578 635 633 q 754 431 754 522 q 720 313 754 360 q 638 238 686 267 q 694 172 674 207 q 715 81 715 136 q 692 -16 715 26 q 626 -87 669 -58 q 524 -131 583 -115 q 392 -146 464 -146 q 161 -85 246 -146 q 60 88 76 -24 l 250 108 q 296 25 258 53 q 393 -3 333 -3 q 480 17 444 -3 q 515 75 515 36 q 486 131 515 108 q 392 178 457 153 l 285 219 q 188 263 231 240 q 115 317 144 286 q 68 386 85 347 q 51 478 51 425 q 85 588 51 543 q 175 661 119 632 q 122 726 139 690 q 104 810 104 761 q 126 902 104 861 q 189 972 149 943 q 285 1017 229 1001 q 411 1032 342 1032 q 626 975 542 1032 q 722 806 710 918 l 540 786 m 304 579 q 260 551 278 569 q 242 499 242 532 q 271 435 242 463 q 354 383 300 407 l 504 319 q 547 351 531 331 q 564 404 564 371 q 531 471 564 446 q 433 524 499 496 l 304 579 z "},"•":{"ha":682,"x_min":75,"x_max":607,"o":"m 342 768 q 444 747 396 768 q 529 690 493 726 q 586 606 565 654 q 607 503 607 557 q 586 399 607 447 q 529 314 565 350 q 444 257 493 278 q 342 236 396 236 q 238 257 286 236 q 153 314 189 278 q 96 399 117 350 q 75 503 75 447 q 96 606 75 557 q 153 690 117 654 q 238 747 189 726 q 342 768 286 768 z "},"¶":{"ha":844,"x_min":21,"x_max":842,"o":"m 335 444 q 213 463 269 444 q 113 515 156 481 q 45 601 69 550 q 21 721 21 653 q 42 838 21 786 q 108 927 63 890 q 226 983 154 964 q 401 1003 299 1003 l 842 1003 l 842 863 l 778 863 q 753 863 764 863 q 728 864 742 863 q 729 824 729 843 q 729 785 729 806 l 729 -187 l 592 -187 l 592 785 q 592 824 592 806 q 593 864 592 843 q 567 863 578 863 q 543 863 556 863 l 524 863 q 496 863 508 863 q 468 864 483 863 q 469 818 469 847 q 469 774 469 789 l 469 -187 l 335 -187 l 335 444 z "},"ß":{"ha":825,"x_min":85,"x_max":783,"o":"m 85 689 q 165 947 85 865 q 415 1029 246 1029 q 648 963 567 1029 q 729 781 729 896 q 693 649 729 701 q 593 572 657 597 q 732 478 681 544 q 783 308 783 413 q 757 170 783 229 q 685 72 731 111 q 576 14 639 33 q 440 -6 514 -6 q 400 -4 417 -6 q 364 0 383 -3 l 364 150 q 406 146 385 146 q 474 156 442 146 q 530 185 506 165 q 568 238 554 206 q 582 315 582 269 q 563 400 582 368 q 514 450 544 432 q 444 474 483 468 q 364 479 404 479 l 364 632 q 486 662 443 632 q 529 758 529 692 q 497 844 529 810 q 407 878 465 878 q 313 842 346 878 q 287 793 293 821 q 281 725 281 765 l 281 0 l 85 0 l 85 689 z "},"®":{"ha":1147,"x_min":42,"x_max":1101,"o":"m 347 814 l 610 814 q 774 769 718 814 q 829 640 829 724 q 803 543 829 579 q 735 488 778 507 q 810 354 801 458 l 814 297 q 822 248 817 272 q 840 204 826 224 l 840 200 l 704 200 q 694 235 697 215 q 689 283 692 256 l 685 332 q 676 378 682 358 q 658 413 671 399 q 622 433 644 426 q 564 439 600 439 l 478 439 l 478 200 l 347 200 l 347 814 m 478 543 l 597 543 q 669 565 642 543 q 696 628 696 586 q 667 690 696 674 q 590 707 639 707 l 478 707 l 478 543 m 571 1035 q 778 994 681 1035 q 947 881 875 953 q 1060 713 1018 810 q 1101 507 1101 617 q 1060 298 1101 394 q 946 131 1018 201 q 776 19 874 60 q 567 -21 679 -21 q 363 20 458 -21 q 195 133 267 61 q 83 300 124 204 q 42 507 42 396 q 83 713 42 617 q 196 881 124 810 q 364 994 268 953 q 571 1035 460 1035 m 571 936 q 404 903 482 936 q 269 811 326 869 q 179 674 213 753 q 146 507 146 596 q 179 338 146 417 q 269 200 213 258 q 404 108 326 142 q 572 74 482 74 q 738 108 661 74 q 873 200 815 142 q 964 338 931 258 q 997 507 997 417 q 964 674 997 596 q 873 811 931 753 q 738 903 815 869 q 571 936 660 936 z "},"©":{"ha":1147,"x_min":42,"x_max":1101,"o":"m 717 403 q 782 391 749 396 q 847 381 815 386 q 752 240 822 290 q 578 189 682 189 q 453 212 508 189 q 358 276 397 235 q 297 375 318 317 q 275 504 275 433 q 297 632 275 574 q 359 732 319 690 q 454 797 399 774 q 578 821 510 821 q 751 769 682 821 q 844 631 821 718 l 717 606 q 667 681 701 654 q 578 708 632 708 q 456 651 499 708 q 413 504 413 594 q 456 357 413 414 q 578 300 500 300 q 666 328 631 300 q 717 403 701 356 m 571 1035 q 778 994 681 1035 q 947 881 875 953 q 1060 713 1018 810 q 1101 507 1101 617 q 1060 298 1101 394 q 946 131 1018 201 q 776 19 874 60 q 567 -21 679 -21 q 363 20 458 -21 q 195 133 267 61 q 83 300 124 204 q 42 507 42 396 q 83 713 42 617 q 196 881 124 810 q 364 994 268 953 q 571 1035 460 1035 m 571 936 q 404 903 482 936 q 269 811 326 869 q 179 674 213 753 q 146 507 146 596 q 179 338 146 417 q 269 200 213 258 q 404 108 326 142 q 572 74 482 74 q 738 108 661 74 q 873 200 815 142 q 964 338 931 258 q 997 507 997 417 q 964 674 997 596 q 873 811 931 753 q 738 903 815 869 q 571 936 660 936 z "},"™":{"ha":1338,"x_min":8,"x_max":1268,"o":"m 1268 400 l 1136 400 l 1136 742 l 1140 889 l 1136 889 q 1094 756 1113 817 q 1057 632 1076 694 l 986 400 l 860 400 l 788 632 q 749 758 768 694 q 711 885 729 822 l 706 885 q 708 790 707 840 q 710 686 710 740 l 710 400 l 576 400 l 576 1014 l 785 1014 q 819 901 801 960 q 856 783 838 842 q 890 668 874 725 q 922 560 907 611 l 928 560 q 991 783 956 669 q 1063 1014 1026 897 l 1268 1014 l 1268 400 m 8 1014 l 504 1014 l 504 899 l 328 899 l 328 400 l 189 400 l 189 899 l 8 899 l 8 1014 z "},"´":{"ha":426,"x_min":136,"x_max":474,"o":"m 310 831 l 136 831 l 240 1014 l 474 1014 l 310 831 z "},"¨":{"ha":389,"x_min":38,"x_max":472,"o":"m 200 839 l 38 839 l 38 1001 l 200 1001 l 200 839 m 472 839 l 308 839 l 308 1001 l 472 1001 l 472 839 z "},"Æ":{"ha":1389,"x_min":-32,"x_max":1326,"o":"m 525 1014 l 1315 1014 l 1315 839 l 842 839 l 856 607 l 1276 607 l 1276 432 l 863 432 l 876 174 l 1326 174 l 1326 0 l 678 0 l 667 247 l 317 247 l 186 0 l -32 0 l 525 1014 m 626 840 q 560 709 594 778 q 489 574 525 640 l 404 417 l 658 417 q 655 492 657 456 q 651 564 653 528 l 640 840 l 626 840 z "},"Ø":{"ha":1118,"x_min":50,"x_max":1067,"o":"m 982 1015 q 947 960 964 988 q 910 906 929 933 q 1026 734 985 835 q 1067 508 1067 633 q 1031 292 1067 389 q 928 126 994 194 q 767 19 861 57 q 557 -19 674 -19 q 436 -8 493 -19 q 329 26 379 4 l 254 -86 l 117 -1 l 196 117 q 88 287 125 188 q 50 508 50 386 q 87 722 50 625 q 190 889 124 819 q 350 997 257 958 q 557 1036 443 1036 q 772 993 678 1036 l 843 1101 l 982 1015 m 847 508 q 792 728 847 640 l 433 183 q 554 157 489 157 q 678 183 624 157 q 769 254 732 208 q 827 365 807 300 q 847 508 847 429 m 557 858 q 433 832 486 858 q 342 758 379 806 q 288 644 306 710 q 269 500 269 578 q 281 390 269 442 q 315 300 293 339 l 668 835 q 557 858 618 858 z "},"±":{"ha":817,"x_min":88,"x_max":728,"o":"m 88 592 l 321 592 l 321 778 l 494 778 l 494 592 l 728 592 l 728 422 l 494 422 l 494 246 l 321 246 l 321 422 l 88 422 l 88 592 m 88 0 l 88 168 l 728 168 l 728 0 l 88 0 z "},"µ":{"ha":854,"x_min":81,"x_max":767,"o":"m 765 111 q 765 58 765 83 q 767 0 765 32 l 579 0 l 579 29 q 579 56 579 42 q 581 85 579 71 q 492 13 544 39 q 364 -14 439 -14 q 321 -11 342 -14 q 279 -4 300 -8 l 279 -74 q 278 -169 279 -119 q 274 -256 278 -219 l 81 -256 q 85 -191 83 -218 q 87 -144 86 -164 q 88 -108 88 -124 q 88 -76 88 -92 l 88 731 l 282 731 l 282 319 q 317 182 282 224 q 419 140 353 140 q 532 191 494 140 q 569 336 569 242 l 569 731 l 765 731 l 765 111 z "},"ª":{"ha":571,"x_min":71,"x_max":493,"o":"m 492 579 q 492 567 492 572 q 493 557 493 561 l 383 557 q 382 586 382 564 l 382 593 q 381 594 382 594 q 322 563 357 575 q 236 550 286 550 q 117 587 164 550 q 71 688 71 624 q 93 757 71 731 q 149 799 115 783 q 220 824 182 815 q 292 838 258 832 q 347 851 325 844 q 369 874 369 858 q 348 915 369 899 q 293 931 326 931 q 231 911 251 931 q 208 857 211 892 l 88 861 q 146 981 92 938 q 292 1025 200 1025 q 441 980 390 1025 q 492 826 492 935 l 492 579 m 372 767 l 265 743 q 213 724 231 736 q 196 689 196 713 q 216 649 196 663 q 268 635 236 635 q 344 662 317 635 q 372 742 372 689 l 372 767 z "},"º":{"ha":592,"x_min":56,"x_max":535,"o":"m 296 1028 q 394 1010 350 1028 q 469 960 438 993 q 517 883 500 928 q 535 785 535 839 q 517 686 535 731 q 469 610 500 642 q 393 560 438 578 q 294 543 349 543 q 196 560 240 543 q 120 610 151 578 q 72 686 89 642 q 56 785 56 731 q 73 883 56 839 q 122 960 90 928 q 197 1010 153 993 q 296 1028 242 1028 m 296 921 q 214 884 243 921 q 185 785 185 847 q 213 685 185 721 q 294 649 242 649 q 376 685 347 649 q 404 785 404 722 q 376 883 404 846 q 296 921 349 921 z "},"æ":{"ha":1282,"x_min":46,"x_max":1236,"o":"m 701 313 q 758 181 707 229 q 889 132 808 132 q 957 141 928 132 q 1009 165 986 150 q 1048 197 1032 179 q 1075 233 1064 215 l 1233 172 q 1179 99 1211 133 q 1104 38 1147 64 q 1007 -3 1061 13 q 886 -18 953 -18 q 726 11 794 -18 q 608 96 657 40 l 600 96 q 554 55 579 75 q 495 20 529 35 q 416 -3 461 6 q 311 -12 371 -12 q 117 44 189 -12 q 46 203 46 100 q 76 314 46 272 q 158 381 106 356 q 285 422 211 407 q 449 453 360 436 q 483 460 469 457 q 506 467 497 463 q 517 480 514 472 q 521 501 521 488 q 488 573 521 546 q 392 600 454 600 q 292 567 326 600 q 253 483 257 535 q 161 489 207 486 q 71 494 115 492 q 99 594 75 549 q 165 672 124 640 q 265 722 207 704 q 393 740 322 740 q 639 654 567 740 q 747 719 686 696 q 883 743 807 743 q 1039 713 972 743 q 1149 629 1106 683 q 1215 499 1193 575 q 1236 333 1236 424 l 1236 313 l 701 313 m 528 338 q 480 326 501 331 q 426 314 458 321 q 342 298 378 306 q 283 279 307 290 q 248 251 260 268 q 236 207 236 233 q 269 138 236 161 q 357 114 301 114 q 480 157 435 114 q 525 281 525 200 l 525 308 q 525 323 525 315 q 528 338 525 331 m 1047 442 q 1033 503 1044 474 q 1001 555 1021 532 q 951 591 981 578 q 881 604 921 604 q 757 558 801 604 q 703 442 713 513 l 1047 442 z "},"ø":{"ha":867,"x_min":49,"x_max":818,"o":"m 701 653 q 788 528 757 600 q 818 365 818 456 q 790 209 818 279 q 711 88 763 139 q 589 10 660 38 q 433 -18 518 -18 q 348 -10 389 -18 q 271 11 307 -3 l 206 -86 l 88 -14 l 154 88 q 76 209 104 139 q 49 365 49 279 q 76 522 49 450 q 156 644 104 593 q 278 723 207 694 q 435 751 349 751 q 579 726 513 751 l 643 824 l 765 749 l 701 653 m 621 364 q 593 493 621 438 l 364 150 q 433 139 397 139 q 572 200 524 139 q 621 364 621 261 m 243 365 q 263 251 243 301 l 485 586 q 433 593 460 593 q 292 529 342 593 q 243 365 243 465 z "},"¿":{"ha":775,"x_min":40,"x_max":738,"o":"m 497 471 q 493 382 497 421 q 478 311 489 343 q 447 252 467 279 q 396 197 428 225 l 326 135 q 298 109 313 122 q 273 81 283 96 q 256 46 263 65 q 249 0 249 26 q 283 -83 249 -50 q 385 -117 318 -117 q 500 -68 464 -117 q 535 63 536 -19 l 738 54 q 714 -87 738 -24 q 645 -196 690 -151 q 533 -267 600 -242 q 379 -292 467 -292 q 238 -270 300 -292 q 131 -211 175 -249 q 64 -121 88 -174 q 40 -6 40 -68 q 79 140 40 81 q 189 254 117 199 l 215 275 q 261 317 243 297 q 290 358 279 336 q 304 406 300 379 q 308 471 308 433 l 497 471 m 503 547 l 300 547 l 300 744 l 503 744 l 503 547 z "},"¡":{"ha":378,"x_min":88,"x_max":290,"o":"m 89 153 l 89 -269 l 289 -269 l 289 153 l 268 471 l 110 471 l 89 153 m 88 547 l 290 547 l 290 744 l 88 744 l 88 547 z "},"¬":{"ha":817,"x_min":51,"x_max":751,"o":"m 751 675 l 751 211 l 568 211 l 568 418 q 568 461 568 440 q 569 506 568 482 l 51 506 l 51 675 l 751 675 z "},"ƒ":{"ha":817,"x_min":11,"x_max":719,"o":"m 408 40 l 403 14 q 368 -97 389 -50 q 315 -173 347 -143 q 239 -217 283 -203 q 132 -232 194 -232 q 65 -226 94 -232 q 11 -212 35 -221 l 35 -60 q 90 -68 65 -68 q 172 -37 143 -68 q 213 65 201 -6 l 285 531 l 157 531 l 181 688 l 308 688 q 313 714 311 701 q 317 742 314 726 l 321 767 q 354 885 333 835 q 408 968 375 935 q 487 1017 440 1001 q 597 1033 533 1033 q 663 1030 631 1033 q 719 1019 696 1026 l 693 863 q 640 869 668 869 q 585 857 607 869 q 549 821 563 844 q 526 764 535 797 q 511 688 518 731 l 667 688 l 644 531 l 488 531 l 408 40 z "},"«":{"ha":744,"x_min":50,"x_max":683,"o":"m 239 393 l 378 121 l 200 121 l 50 393 l 200 667 l 378 667 l 239 393 m 683 667 q 616 530 650 597 q 547 393 582 463 l 683 121 l 506 121 l 357 393 q 432 530 394 463 q 506 667 469 597 l 683 667 z "},"»":{"ha":744,"x_min":60,"x_max":693,"o":"m 365 667 l 543 667 l 693 393 l 543 121 l 365 121 l 503 393 l 365 667 m 60 667 l 238 667 l 385 393 l 238 121 l 60 121 l 194 393 l 60 667 z "},"…":{"ha":1458,"x_min":146,"x_max":1307,"o":"m 146 211 l 363 211 l 363 0 l 146 0 l 146 211 m 618 211 l 835 211 l 835 0 l 618 0 l 618 211 m 1090 211 l 1307 211 l 1307 0 l 1090 0 l 1090 211 z "},"À":{"ha":1006,"x_min":-6,"x_max":1011,"o":"m 388 1014 l 617 1014 l 1011 0 l 793 0 l 697 251 l 300 251 l 206 0 l -6 0 l 388 1014 m 639 422 l 579 593 q 557 655 568 622 q 535 718 546 688 q 516 776 525 749 q 501 825 507 804 l 496 825 q 481 778 490 808 q 461 715 472 749 q 439 649 450 682 q 419 593 428 615 l 357 422 l 639 422 m 488 1294 q 538 1203 513 1249 q 590 1111 564 1157 l 417 1111 l 253 1294 l 488 1294 l 488 1294 z "},"Ã":{"ha":1006,"x_min":-6,"x_max":1011,"o":"m 388 1014 l 617 1014 l 1011 0 l 793 0 l 697 251 l 300 251 l 206 0 l -6 0 l 388 1014 m 639 422 l 579 593 q 557 655 568 622 q 535 718 546 688 q 516 776 525 749 q 501 825 507 804 l 496 825 q 481 778 490 808 q 461 715 472 749 q 439 649 450 682 q 419 593 428 615 l 357 422 l 639 422 m 740 1279 q 694 1160 731 1207 q 590 1114 657 1114 q 507 1132 550 1114 l 488 1140 q 447 1158 468 1149 q 411 1167 426 1167 q 360 1115 375 1167 l 250 1128 q 297 1247 260 1200 q 400 1293 333 1293 q 483 1275 440 1293 l 503 1267 q 543 1249 522 1258 q 579 1240 564 1240 q 631 1292 615 1240 l 740 1279 z "},"Õ":{"ha":1125,"x_min":50,"x_max":1074,"o":"m 561 154 q 685 181 631 154 q 779 254 740 207 q 838 367 818 301 q 858 508 858 432 q 838 647 858 583 q 779 758 818 711 q 685 831 740 804 q 561 857 631 857 q 437 831 492 857 q 344 758 382 804 q 285 647 306 711 q 265 508 265 583 q 285 367 265 432 q 344 254 306 301 q 437 181 382 207 q 561 154 492 154 m 563 -19 q 353 19 447 -19 q 191 126 258 57 q 87 291 124 194 q 50 506 50 388 q 88 721 50 624 q 192 888 125 818 q 353 996 260 957 q 561 1035 447 1035 q 769 996 675 1035 q 931 888 863 957 q 1036 721 999 818 q 1074 506 1074 624 q 1037 291 1074 388 q 933 126 1000 194 q 772 19 867 57 q 563 -19 678 -19 m 806 1279 q 759 1160 796 1207 q 656 1114 722 1114 q 572 1132 615 1114 l 553 1140 q 513 1158 533 1149 q 476 1167 492 1167 q 425 1115 440 1167 l 315 1128 q 362 1247 325 1200 q 465 1293 399 1293 q 549 1275 506 1293 l 568 1267 q 608 1249 588 1258 q 644 1240 629 1240 q 696 1292 681 1240 l 806 1279 z "},"Œ":{"ha":1518,"x_min":50,"x_max":1456,"o":"m 765 38 q 544 -11 676 -11 q 345 26 436 -11 q 188 131 254 63 q 86 294 122 199 q 50 508 50 390 q 87 719 50 624 q 189 884 124 815 q 344 990 254 953 q 540 1028 433 1028 q 663 1014 607 1028 q 765 975 718 1000 l 765 1014 l 1444 1014 l 1444 839 l 960 839 l 960 607 l 1406 607 l 1406 432 l 960 432 l 960 174 l 1456 174 l 1456 0 l 765 0 l 765 38 m 563 165 q 671 183 621 165 q 757 236 721 200 l 757 781 q 670 832 719 815 q 563 849 621 849 q 438 824 493 849 q 343 756 382 800 q 284 648 304 711 q 264 508 264 585 q 284 367 264 431 q 343 258 304 303 q 438 190 382 214 q 563 165 493 165 z "},"œ":{"ha":1371,"x_min":49,"x_max":1325,"o":"m 49 365 q 76 521 49 450 q 152 643 103 592 q 272 722 201 694 q 428 750 342 750 q 584 719 514 750 q 704 633 654 689 q 819 717 753 686 q 971 747 885 747 q 1128 717 1061 747 q 1238 633 1194 688 q 1303 504 1282 579 q 1325 339 1325 429 l 1325 315 l 790 315 q 846 183 796 232 q 978 133 896 133 q 1046 142 1017 133 q 1097 166 1075 151 q 1135 199 1119 181 q 1164 236 1151 218 l 1322 175 q 1268 100 1300 135 q 1193 40 1236 65 q 1095 -1 1150 14 q 974 -17 1040 -17 q 815 13 883 -17 q 700 94 747 42 q 582 13 651 42 q 426 -17 513 -17 q 271 11 340 -17 q 152 89 201 39 q 76 209 103 139 q 49 365 49 279 m 244 365 q 290 200 244 261 q 426 139 336 139 q 561 200 515 139 q 607 364 607 261 q 561 528 607 464 q 426 592 515 592 q 348 575 382 592 q 291 528 314 558 q 256 456 268 497 q 244 365 244 415 m 1135 444 q 1121 506 1132 476 q 1089 559 1110 536 q 1038 595 1068 582 q 968 608 1008 608 q 844 562 889 608 q 790 444 800 515 l 1135 444 z "},"–":{"ha":725,"x_min":43,"x_max":681,"o":"m 43 488 l 681 488 l 681 322 l 43 322 l 43 488 z "},"—":{"ha":1229,"x_min":35,"x_max":1193,"o":"m 35 488 l 1193 488 l 1193 322 l 35 322 l 35 488 z "},"“":{"ha":661,"x_min":81,"x_max":579,"o":"m 578 806 l 578 601 l 372 601 l 372 790 q 579 1018 372 1006 l 579 921 q 509 884 532 914 q 486 806 486 854 l 578 806 m 286 806 l 286 601 l 81 601 l 81 790 q 288 1018 81 1006 l 288 921 q 217 884 239 914 q 194 806 194 854 l 286 806 z "},"”":{"ha":661,"x_min":81,"x_max":579,"o":"m 82 1014 l 288 1014 l 288 825 q 81 597 288 610 l 81 694 q 151 731 129 701 q 174 811 174 760 l 82 811 l 82 1014 m 374 1014 l 579 1014 l 579 825 q 372 597 579 610 l 372 694 q 443 731 421 701 q 465 811 465 760 l 374 811 l 374 1014 z "},"‘":{"ha":371,"x_min":81,"x_max":289,"o":"m 288 804 l 288 601 l 81 601 l 81 790 q 289 1018 81 1006 l 289 919 q 218 883 240 913 q 196 804 196 853 l 288 804 z "},"’":{"ha":378,"x_min":81,"x_max":297,"o":"m 81 1014 l 297 1014 l 297 815 q 247 653 297 708 q 81 590 197 597 l 81 692 q 154 723 129 699 q 179 796 179 747 l 179 803 l 81 803 l 81 1014 z "},"÷":{"ha":817,"x_min":72,"x_max":744,"o":"m 744 551 l 744 386 l 72 386 l 72 551 l 744 551 m 304 740 q 334 814 304 783 q 408 844 364 844 q 482 814 451 844 q 513 740 513 783 q 482 667 513 696 q 408 638 451 638 q 334 667 364 638 q 304 740 304 696 m 304 197 q 334 271 304 240 q 408 301 364 301 q 482 271 451 301 q 513 197 513 240 q 482 124 513 153 q 408 94 451 94 q 334 124 364 94 q 304 197 304 153 z "},"ÿ":{"ha":754,"x_min":-3,"x_max":750,"o":"m -3 731 l 208 731 l 289 481 q 333 340 311 411 q 376 196 356 268 l 382 196 q 404 274 394 239 q 423 340 414 308 q 442 406 432 372 q 465 479 453 439 l 544 731 l 750 731 l 456 -51 q 400 -158 431 -117 q 331 -222 369 -199 q 243 -255 292 -246 q 136 -264 194 -264 q 108 -263 122 -264 q 78 -261 93 -262 l 60 -114 q 88 -115 75 -115 q 114 -115 101 -115 q 169 -112 144 -115 q 215 -97 194 -108 q 250 -62 235 -85 q 278 -3 265 -40 l -3 731 m 324 839 l 161 839 l 161 1001 l 324 1001 l 324 839 m 596 839 l 432 839 l 432 1001 l 596 1001 l 596 839 z "},"Ÿ":{"ha":878,"x_min":-12,"x_max":890,"o":"m 331 392 l -12 1014 l 218 1014 l 315 821 q 378 699 347 757 q 439 579 408 642 l 442 579 q 503 700 474 642 q 565 822 533 758 l 665 1014 l 890 1014 l 540 392 l 540 0 l 331 0 l 331 392 m 386 1282 l 386 1119 l 224 1119 l 224 1282 l 386 1282 m 657 1282 l 657 1119 l 493 1119 l 493 1282 l 657 1282 z "},"⁄":{"ha":583,"x_min":-61,"x_max":643,"o":"m 113 -46 l -61 -46 q 203 486 71 221 q 468 1018 335 751 l 643 1018 l 113 -46 z "},"‹":{"ha":440,"x_min":50,"x_max":379,"o":"m 242 393 l 379 121 l 200 121 l 50 393 l 200 667 l 379 667 l 242 393 z "},"›":{"ha":440,"x_min":60,"x_max":389,"o":"m 60 667 l 239 667 l 389 393 l 239 121 l 60 121 l 197 393 l 60 667 z "},"ﬁ":{"ha":833,"x_min":3,"x_max":744,"o":"m 550 582 l 300 582 l 300 0 l 108 0 l 108 582 l 3 582 l 3 731 l 108 731 l 108 782 q 124 895 108 850 q 172 968 140 940 q 249 1008 203 996 q 358 1019 296 1019 q 408 1017 383 1019 q 451 1013 433 1015 l 446 863 q 417 868 429 867 q 389 869 404 869 q 319 848 340 869 q 299 778 299 826 l 299 731 l 744 731 l 744 0 l 550 0 l 550 582 m 550 1014 l 744 1014 l 744 831 l 550 831 l 550 1014 z "},"ﬂ":{"ha":831,"x_min":4,"x_max":742,"o":"m 299 731 l 447 731 l 447 581 l 301 581 l 301 0 l 110 0 l 110 581 l 4 581 l 4 731 l 110 731 l 110 774 q 129 905 110 856 q 191 981 149 954 q 301 1015 233 1007 q 468 1024 369 1024 q 599 1022 535 1024 q 742 1014 663 1021 l 742 0 l 549 0 l 549 874 q 503 876 525 876 q 450 876 482 876 q 377 874 406 876 q 331 859 349 871 q 306 825 313 847 q 299 765 299 803 l 299 731 z "},"‡":{"ha":763,"x_min":60,"x_max":700,"o":"m 282 -69 l 282 213 l 60 213 l 60 382 l 282 382 l 282 600 l 60 600 l 60 769 l 282 769 l 282 1014 l 479 1014 l 479 769 l 700 769 l 700 600 l 479 600 l 479 382 l 700 382 l 700 213 l 479 213 l 479 -69 l 282 -69 z "},"·":{"ha":379,"x_min":79,"x_max":296,"o":"m 79 614 l 296 614 l 296 403 l 79 403 l 79 614 z "},"‚":{"ha":371,"x_min":75,"x_max":292,"o":"m 75 211 l 292 211 l 292 13 q 242 -150 292 -94 q 75 -212 192 -206 l 75 -111 q 149 -80 124 -104 q 174 -7 174 -56 l 174 0 l 75 0 l 75 211 z "},"„":{"ha":664,"x_min":81,"x_max":581,"o":"m 82 203 l 289 203 l 289 14 q 238 -149 289 -93 q 81 -212 188 -206 l 81 -115 q 152 -79 131 -108 q 174 0 174 -50 l 82 0 l 82 203 m 375 203 l 581 203 l 581 14 q 374 -212 581 -200 l 374 -115 q 444 -79 422 -108 q 467 0 467 -50 l 375 0 l 375 203 z "},"‰":{"ha":1663,"x_min":32,"x_max":1624,"o":"m 257 1006 q 422 933 364 1006 q 481 726 481 860 q 422 517 481 590 q 257 443 364 443 q 92 517 151 443 q 32 725 32 590 q 91 933 32 860 q 257 1006 150 1006 m 257 894 q 183 849 204 894 q 161 722 161 803 q 183 600 161 644 q 257 556 204 556 q 331 600 310 556 q 353 724 353 644 q 331 850 353 806 q 257 894 310 894 m 825 989 q 634 493 729 739 q 443 -1 539 247 l 315 -1 l 697 989 l 825 989 m 886 542 q 1051 469 992 542 q 1110 263 1110 397 q 1051 54 1110 126 q 886 -18 993 -18 q 721 55 781 -18 q 661 263 661 128 q 720 469 661 396 q 886 542 779 542 m 886 431 q 812 385 833 431 q 790 258 790 339 q 812 136 790 181 q 886 92 833 92 q 960 137 939 92 q 982 261 982 182 q 960 386 982 342 q 886 431 939 431 m 1400 542 q 1565 469 1506 542 q 1624 263 1624 397 q 1565 54 1624 126 q 1400 -18 1507 -18 q 1234 55 1293 -18 q 1175 263 1175 128 q 1234 469 1175 396 q 1400 542 1293 542 m 1400 431 q 1325 385 1346 431 q 1304 258 1304 339 q 1326 136 1304 181 q 1400 92 1347 92 q 1474 137 1453 92 q 1494 261 1494 182 q 1474 386 1494 342 q 1400 431 1453 431 z "},"Â":{"ha":1006,"x_min":-6,"x_max":1011,"o":"m 388 1014 l 617 1014 l 1011 0 l 793 0 l 697 251 l 300 251 l 206 0 l -6 0 l 388 1014 m 639 422 l 579 593 q 557 655 568 622 q 535 718 546 688 q 516 776 525 749 q 501 825 507 804 l 496 825 q 481 778 490 808 q 461 715 472 749 q 439 649 450 682 q 419 593 428 615 l 357 422 l 639 422 m 414 1111 l 246 1111 l 386 1294 l 610 1294 l 751 1111 l 583 1111 l 499 1200 l 497 1200 l 414 1111 z "},"Ê":{"ha":868,"x_min":101,"x_max":806,"o":"m 101 1014 l 794 1014 l 794 839 l 306 839 l 306 607 l 757 607 l 757 432 l 306 432 l 306 175 l 806 175 l 806 0 l 101 0 l 101 1014 m 365 1111 l 197 1111 l 338 1294 l 561 1294 l 703 1111 l 535 1111 l 450 1200 l 449 1200 l 365 1111 z "},"Á":{"ha":1006,"x_min":-6,"x_max":1011,"o":"m 388 1014 l 617 1014 l 1011 0 l 793 0 l 697 251 l 300 251 l 206 0 l -6 0 l 388 1014 m 639 422 l 579 593 q 557 655 568 622 q 535 718 546 688 q 516 776 525 749 q 501 825 507 804 l 496 825 q 481 778 490 808 q 461 715 472 749 q 439 649 450 682 q 419 593 428 615 l 357 422 l 639 422 m 744 1294 l 581 1111 l 407 1111 q 459 1203 433 1157 q 510 1294 485 1249 l 744 1294 z "},"Ë":{"ha":868,"x_min":101,"x_max":806,"o":"m 101 1014 l 794 1014 l 794 839 l 306 839 l 306 607 l 757 607 l 757 432 l 306 432 l 306 175 l 806 175 l 806 0 l 101 0 l 101 1014 m 392 1282 l 392 1119 l 229 1119 l 229 1282 l 392 1282 m 663 1282 l 663 1119 l 499 1119 l 499 1282 l 663 1282 z "},"È":{"ha":868,"x_min":101,"x_max":806,"o":"m 101 1014 l 794 1014 l 794 839 l 306 839 l 306 607 l 757 607 l 757 432 l 306 432 l 306 175 l 806 175 l 806 0 l 101 0 l 101 1014 m 458 1294 q 509 1203 483 1249 q 561 1111 535 1157 l 388 1111 l 224 1294 l 458 1294 l 458 1294 z "},"Í":{"ha":414,"x_min":101,"x_max":450,"o":"m 101 1014 l 313 1014 l 313 0 l 101 0 l 101 1014 m 450 1294 l 286 1111 l 113 1111 q 165 1203 139 1157 q 215 1294 190 1249 l 450 1294 z "},"Î":{"ha":414,"x_min":-47,"x_max":458,"o":"m 101 1014 l 313 1014 l 313 0 l 101 0 l 101 1014 m 121 1111 l -47 1111 l 93 1294 l 317 1294 l 458 1111 l 290 1111 l 206 1200 l 204 1200 l 121 1111 z "},"Ï":{"ha":414,"x_min":-11,"x_max":422,"o":"m 101 1014 l 313 1014 l 313 0 l 101 0 l 101 1014 m 151 1282 l 151 1119 l -11 1119 l -11 1282 l 151 1282 m 422 1282 l 422 1119 l 258 1119 l 258 1282 l 422 1282 z "},"Ì":{"ha":414,"x_min":-36,"x_max":313,"o":"m 101 1014 l 313 1014 l 313 0 l 101 0 l 101 1014 m 199 1294 q 249 1203 224 1249 q 301 1111 275 1157 l 128 1111 l -36 1294 l 199 1294 l 199 1294 z "},"Ó":{"ha":1125,"x_min":50,"x_max":1074,"o":"m 561 154 q 685 181 631 154 q 779 254 740 207 q 838 367 818 301 q 858 508 858 432 q 838 647 858 583 q 779 758 818 711 q 685 831 740 804 q 561 857 631 857 q 437 831 492 857 q 344 758 382 804 q 285 647 306 711 q 265 508 265 583 q 285 367 265 432 q 344 254 306 301 q 437 181 382 207 q 561 154 492 154 m 563 -19 q 353 19 447 -19 q 191 126 258 57 q 87 291 124 194 q 50 506 50 388 q 88 721 50 624 q 192 888 125 818 q 353 996 260 957 q 561 1035 447 1035 q 769 996 675 1035 q 931 888 863 957 q 1036 721 999 818 q 1074 506 1074 624 q 1037 291 1074 388 q 933 126 1000 194 q 772 19 867 57 q 563 -19 678 -19 m 796 1294 l 632 1111 l 458 1111 q 510 1203 485 1157 q 561 1294 536 1249 l 796 1294 z "},"Ô":{"ha":1125,"x_min":50,"x_max":1074,"o":"m 561 154 q 685 181 631 154 q 779 254 740 207 q 838 367 818 301 q 858 508 858 432 q 838 647 858 583 q 779 758 818 711 q 685 831 740 804 q 561 857 631 857 q 437 831 492 857 q 344 758 382 804 q 285 647 306 711 q 265 508 265 583 q 285 367 265 432 q 344 254 306 301 q 437 181 382 207 q 561 154 492 154 m 563 -19 q 353 19 447 -19 q 191 126 258 57 q 87 291 124 194 q 50 506 50 388 q 88 721 50 624 q 192 888 125 818 q 353 996 260 957 q 561 1035 447 1035 q 769 996 675 1035 q 931 888 863 957 q 1036 721 999 818 q 1074 506 1074 624 q 1037 291 1074 388 q 933 126 1000 194 q 772 19 867 57 q 563 -19 678 -19 m 478 1111 l 310 1111 l 450 1294 l 674 1294 l 815 1111 l 647 1111 l 563 1200 l 561 1200 l 478 1111 z "},"Ò":{"ha":1125,"x_min":50,"x_max":1074,"o":"m 561 154 q 685 181 631 154 q 779 254 740 207 q 838 367 818 301 q 858 508 858 432 q 838 647 858 583 q 779 758 818 711 q 685 831 740 804 q 561 857 631 857 q 437 831 492 857 q 344 758 382 804 q 285 647 306 711 q 265 508 265 583 q 285 367 265 432 q 344 254 306 301 q 437 181 382 207 q 561 154 492 154 m 563 -19 q 353 19 447 -19 q 191 126 258 57 q 87 291 124 194 q 50 506 50 388 q 88 721 50 624 q 192 888 125 818 q 353 996 260 957 q 561 1035 447 1035 q 769 996 675 1035 q 931 888 863 957 q 1036 721 999 818 q 1074 506 1074 624 q 1037 291 1074 388 q 933 126 1000 194 q 772 19 867 57 q 563 -19 678 -19 m 569 1294 q 620 1203 594 1249 q 672 1111 646 1157 l 499 1111 l 335 1294 l 569 1294 l 569 1294 z "},"Ú":{"ha":1001,"x_min":93,"x_max":907,"o":"m 500 -19 q 324 3 400 -19 q 197 75 247 25 q 119 205 146 125 q 93 400 93 285 l 93 1014 l 303 1014 l 303 400 q 349 218 303 279 q 500 157 396 157 q 651 218 604 157 q 697 400 697 279 l 697 1014 l 907 1014 l 907 400 q 880 203 907 283 q 801 74 853 124 q 673 3 749 25 q 500 -19 597 -19 m 722 1294 l 558 1111 l 385 1111 q 437 1203 411 1157 q 488 1294 463 1249 l 722 1294 z "},"Û":{"ha":1001,"x_min":93,"x_max":907,"o":"m 500 -19 q 324 3 400 -19 q 197 75 247 25 q 119 205 146 125 q 93 400 93 285 l 93 1014 l 303 1014 l 303 400 q 349 218 303 279 q 500 157 396 157 q 651 218 604 157 q 697 400 697 279 l 697 1014 l 907 1014 l 907 400 q 880 203 907 283 q 801 74 853 124 q 673 3 749 25 q 500 -19 597 -19 m 417 1111 l 249 1111 l 389 1294 l 613 1294 l 754 1111 l 586 1111 l 501 1200 l 500 1200 l 417 1111 z "},"Ù":{"ha":1001,"x_min":93,"x_max":907,"o":"m 500 -19 q 324 3 400 -19 q 197 75 247 25 q 119 205 146 125 q 93 400 93 285 l 93 1014 l 303 1014 l 303 400 q 349 218 303 279 q 500 157 396 157 q 651 218 604 157 q 697 400 697 279 l 697 1014 l 907 1014 l 907 400 q 880 203 907 283 q 801 74 853 124 q 673 3 749 25 q 500 -19 597 -19 m 510 1294 q 560 1203 535 1249 q 613 1111 586 1157 l 439 1111 l 275 1294 l 510 1294 l 510 1294 z "},"ı":{"ha":375,"x_min":89,"x_max":286,"o":"m 89 731 l 286 731 l 286 0 l 89 0 l 89 731 z "},"ˆ":{"ha":457,"x_min":4,"x_max":510,"o":"m 172 831 l 4 831 l 146 1014 l 369 1014 l 510 831 l 343 831 l 257 919 l 172 831 z "},"˜":{"ha":467,"x_min":0,"x_max":490,"o":"m 490 999 q 444 880 481 926 q 340 833 407 833 q 257 851 300 833 l 238 860 q 197 877 218 868 q 161 886 176 886 q 110 835 125 886 l 0 847 q 47 966 10 919 q 150 1013 83 1013 q 233 994 190 1013 l 253 986 q 293 969 272 978 q 329 960 314 960 q 381 1011 365 960 l 490 999 z "},"¯":{"ha":401,"x_min":11,"x_max":392,"o":"m 11 864 l 11 994 l 392 994 l 392 864 l 11 864 z "},"˘":{"ha":439,"x_min":-12,"x_max":442,"o":"m 214 950 q 328 1019 296 950 q 384 1009 356 1014 q 442 997 413 1004 q 363 870 422 914 q 214 826 304 826 q 65 870 124 826 q -12 997 6 914 q 43 1009 15 1004 q 100 1019 71 1014 q 214 950 129 950 z "},"˙":{"ha":307,"x_min":75,"x_max":243,"o":"m 243 1001 l 243 839 l 75 839 l 75 1001 l 243 1001 l 243 1001 z "},"˚":{"ha":374,"x_min":47,"x_max":344,"o":"m 194 1093 q 253 1081 226 1093 q 301 1049 281 1069 q 333 1003 321 1029 q 344 946 344 976 q 333 887 344 914 q 301 840 321 860 q 253 808 281 819 q 194 796 226 796 q 136 808 163 796 q 90 840 110 819 q 58 887 69 860 q 47 946 47 914 q 59 1003 47 976 q 90 1049 71 1029 q 137 1081 110 1069 q 194 1093 164 1093 m 194 1003 q 153 986 171 1003 q 136 946 136 969 q 153 903 136 921 q 194 886 171 886 q 236 903 218 886 q 254 946 254 921 q 236 986 254 969 q 194 1003 218 1003 z "},"¸":{"ha":328,"x_min":-44,"x_max":282,"o":"m 175 -249 l -44 -249 l 106 -65 l 282 -65 l 175 -249 z "},"˝":{"ha":540,"x_min":39,"x_max":663,"o":"m 364 1014 l 201 831 l 39 831 q 90 922 64 876 q 142 1014 115 968 l 364 1014 m 663 1014 l 493 831 l 331 831 l 439 1014 l 663 1014 z "},"˛":{"ha":308,"x_min":11,"x_max":339,"o":"m 11 -65 l 188 -65 q 263 -157 225 -111 q 339 -249 300 -203 l 118 -249 l 11 -65 z "},"ˇ":{"ha":457,"x_min":4,"x_max":510,"o":"m 343 1014 l 510 1014 l 369 831 l 146 831 l 4 1014 l 172 1014 q 215 968 194 990 q 258 925 235 946 l 343 1014 z "},"Ð":{"ha":1040,"x_min":7,"x_max":988,"o":"m 7 597 l 99 597 l 99 1014 l 474 1014 q 856 885 724 1014 q 988 511 988 757 q 958 304 988 397 q 867 144 928 211 q 713 40 806 78 q 496 0 621 3 l 99 0 l 99 433 l 7 433 l 7 597 m 306 597 l 510 597 l 510 433 l 306 433 l 306 171 l 454 171 q 585 189 526 171 q 687 247 644 207 q 753 349 729 286 q 776 501 776 411 q 758 649 776 585 q 696 755 740 713 q 577 819 651 797 q 392 840 503 840 l 306 840 l 306 597 z "},"ð":{"ha":847,"x_min":49,"x_max":796,"o":"m 588 1029 l 651 953 l 538 899 q 727 676 658 806 q 796 386 796 547 q 769 212 796 288 q 693 85 742 136 q 574 8 644 35 q 419 -18 504 -18 q 268 8 336 -18 q 151 83 200 35 q 76 202 103 132 q 49 360 49 272 q 76 520 49 449 q 150 640 103 592 q 261 715 197 689 q 399 742 325 742 q 453 736 431 742 q 499 719 476 731 l 501 722 q 446 783 474 758 q 382 831 418 807 q 305 795 343 813 q 228 758 267 778 l 160 835 q 223 864 192 850 q 286 892 254 878 q 209 930 246 913 q 128 967 172 947 l 231 1051 q 359 1006 310 1029 q 447 963 408 983 l 588 1029 m 419 597 q 287 533 332 597 q 242 363 242 469 q 287 190 242 253 q 419 128 332 128 q 553 191 507 128 q 599 363 599 254 q 553 534 599 471 q 419 597 507 597 z "},"Ł":{"ha":779,"x_min":3,"x_max":760,"o":"m 506 586 q 408 533 457 560 q 310 479 360 506 l 310 178 l 760 178 l 760 0 l 101 0 l 101 364 q 51 338 76 351 q 3 311 26 325 l 3 468 q 51 495 26 482 q 101 521 76 508 l 101 1014 l 310 1014 l 310 636 q 408 690 360 663 q 506 743 457 717 l 506 586 l 506 586 z "},"∏":{"ha":1042,"x_min":0,"x_max":1042,"o":"m 139 839 l 0 839 l 0 1014 l 1042 1014 l 1042 839 l 900 839 l 900 -136 l 692 -136 l 692 839 l 347 839 l 347 -136 l 139 -136 l 139 839 z "},"∑":{"ha":857,"x_min":35,"x_max":814,"o":"m 369 438 l 40 857 l 40 1014 l 800 1014 l 800 836 l 307 836 l 611 451 l 290 51 l 814 51 l 814 -128 l 35 -128 l 35 25 l 369 438 z "},"π":{"ha":864,"x_min":-4,"x_max":856,"o":"m 856 576 l 713 576 l 713 289 q 720 175 713 219 q 742 103 728 131 q 778 60 757 75 q 828 33 800 44 l 828 0 l 604 0 q 567 31 582 13 q 542 77 551 50 q 530 142 533 104 q 526 231 526 179 l 526 576 l 322 576 l 322 0 l 135 0 l 135 576 l -4 576 l -4 731 l 856 731 l 856 576 z "},"Ω":{"ha":1115,"x_min":51,"x_max":1064,"o":"m 557 856 q 431 831 486 856 q 340 765 376 807 q 284 665 303 722 q 265 542 265 608 q 327 305 265 403 q 501 163 389 207 l 501 0 l 51 0 l 51 171 l 131 171 q 172 170 150 171 q 218 168 193 169 l 218 172 q 51 558 51 297 q 85 741 51 654 q 185 894 119 828 q 344 999 250 960 q 557 1038 438 1038 q 771 999 676 1038 q 931 894 865 960 q 1030 741 996 828 q 1064 558 1064 654 q 1020 333 1064 425 q 896 172 976 240 l 896 168 q 942 170 921 169 q 983 171 964 171 l 1064 171 l 1064 0 l 613 0 l 613 163 q 788 305 725 207 q 850 542 850 403 q 831 665 850 608 q 775 765 813 722 q 683 831 738 807 q 557 856 628 856 z "},"⅛":{"ha":1136,"x_min":24,"x_max":1089,"o":"m 860 -14 q 692 35 756 -14 q 628 171 628 85 q 657 263 628 226 q 732 321 686 300 q 670 374 693 342 q 647 451 647 406 q 704 574 647 526 q 860 622 761 622 q 1013 574 957 622 q 1069 451 1069 526 q 1047 374 1069 406 q 986 321 1024 342 q 1060 263 1031 300 q 1089 171 1089 226 q 1026 35 1089 85 q 860 -14 964 -14 m 860 265 q 788 242 814 265 q 763 181 763 218 q 789 117 763 140 q 860 93 815 93 q 930 117 904 93 q 956 181 956 140 q 930 242 956 218 q 860 265 904 265 m 860 515 q 797 494 819 515 q 775 442 775 474 q 797 390 775 410 q 860 369 819 369 q 921 390 899 369 q 943 442 943 410 q 921 494 943 474 q 860 515 899 515 m 175 382 l 175 794 l 24 794 l 24 890 q 147 914 110 890 q 190 992 183 938 l 301 992 l 301 382 l 175 382 m 369 0 l 242 0 l 622 988 l 749 988 l 369 0 z "},"⅔":{"ha":1232,"x_min":28,"x_max":1188,"o":"m 467 0 l 340 0 l 721 988 l 847 988 l 467 0 m 858 207 q 885 129 861 158 q 957 100 908 100 q 1027 124 1001 100 q 1053 188 1053 149 q 1021 249 1053 229 q 938 269 989 269 l 903 269 l 903 374 q 919 371 913 371 q 931 371 925 371 q 1008 390 981 371 q 1035 446 1035 410 q 1013 494 1035 474 q 956 515 992 515 q 894 489 915 515 q 872 422 872 463 l 742 429 q 806 572 749 519 q 960 625 863 625 q 1111 578 1056 625 q 1167 458 1167 532 q 1143 378 1167 411 q 1083 328 1119 346 q 1158 272 1128 308 q 1188 182 1188 235 q 1171 103 1188 138 q 1124 44 1154 68 q 1051 6 1093 19 q 957 -7 1008 -7 q 791 47 851 -7 q 726 201 731 101 l 858 207 m 211 493 q 263 494 239 494 q 310 494 286 494 l 461 494 l 461 383 l 31 383 l 31 486 q 115 557 71 522 q 204 629 158 592 q 263 681 239 658 q 301 725 286 704 q 322 765 315 746 q 329 807 329 785 q 308 863 329 839 q 249 886 288 886 q 180 855 201 886 q 158 774 158 824 l 28 776 q 85 942 28 881 q 251 1004 143 1004 q 408 953 351 1004 q 465 813 465 903 q 438 705 465 750 q 365 617 411 660 l 321 579 q 290 554 306 567 q 258 530 274 542 q 229 508 242 518 q 211 494 217 499 l 211 493 z "},"⅜":{"ha":1261,"x_min":32,"x_max":1214,"o":"m 983 -14 q 816 35 879 -14 q 753 171 753 85 q 782 263 753 226 q 857 321 811 300 q 795 374 818 342 q 772 451 772 406 q 829 574 772 526 q 983 622 886 622 q 1138 574 1082 622 q 1194 451 1194 526 q 1172 374 1194 406 q 1111 321 1149 342 q 1185 263 1156 300 q 1214 171 1214 226 q 1151 35 1214 85 q 983 -14 1088 -14 m 983 265 q 913 242 939 265 q 888 181 888 218 q 913 117 888 140 q 983 93 939 93 q 1054 117 1028 93 q 1081 181 1081 140 q 1054 242 1081 218 q 983 265 1028 265 m 983 515 q 922 494 943 515 q 900 442 900 474 q 922 390 900 410 q 983 369 944 369 q 1045 390 1024 369 q 1067 442 1067 410 q 1045 494 1067 474 q 983 515 1024 515 m 494 0 l 367 0 l 747 988 l 874 988 l 494 0 m 165 581 q 191 502 168 532 q 263 472 214 472 q 333 497 307 472 q 358 561 358 521 q 327 623 358 603 q 243 643 296 643 l 210 643 l 210 746 q 225 744 219 744 q 236 744 231 744 q 313 764 286 744 q 340 819 340 783 q 319 869 340 849 q 263 889 297 889 q 200 863 221 889 q 178 796 179 836 l 49 801 q 112 945 54 893 q 265 997 169 997 q 417 951 361 997 q 472 832 472 906 q 449 752 472 785 q 390 701 426 719 q 464 645 435 682 q 493 554 493 608 q 429 416 493 467 q 263 365 365 365 q 97 420 157 365 q 32 575 36 475 l 165 581 z "},"⅝":{"ha":1261,"x_min":40,"x_max":1214,"o":"m 186 803 q 184 781 185 792 q 183 758 183 769 q 289 790 221 790 q 435 733 379 790 q 492 581 492 675 q 476 492 492 532 q 429 423 460 451 q 356 378 399 394 q 263 363 314 363 q 109 415 169 363 q 40 554 49 467 l 172 561 q 201 497 178 521 q 265 474 225 474 q 334 503 310 474 q 358 578 358 532 q 333 650 358 621 q 265 679 308 679 q 181 626 207 679 l 57 636 l 86 986 l 457 986 l 457 871 l 193 871 l 186 803 m 983 -14 q 816 35 879 -14 q 753 171 753 85 q 782 263 753 226 q 857 321 811 300 q 795 374 818 342 q 772 451 772 406 q 829 574 772 526 q 983 622 886 622 q 1138 574 1082 622 q 1194 451 1194 526 q 1172 374 1194 406 q 1111 321 1149 342 q 1185 263 1156 300 q 1214 171 1214 226 q 1151 35 1214 85 q 983 -14 1088 -14 m 983 265 q 913 242 939 265 q 888 181 888 218 q 913 117 888 140 q 983 93 939 93 q 1054 117 1028 93 q 1081 181 1081 140 q 1054 242 1081 218 q 983 265 1028 265 m 983 515 q 922 494 943 515 q 900 442 900 474 q 922 390 900 410 q 983 369 944 369 q 1045 390 1024 369 q 1067 442 1067 410 q 1045 494 1067 474 q 983 515 1024 515 m 494 0 l 367 0 l 747 988 l 874 988 l 494 0 z "},"⅞":{"ha":1154,"x_min":13,"x_max":1106,"o":"m 76 375 q 165 630 108 504 q 292 868 221 756 l 13 868 l 13 986 l 440 986 l 440 879 q 422 853 432 868 q 404 824 413 839 q 300 608 346 725 q 224 375 254 490 l 76 375 m 876 -14 q 709 35 772 -14 q 646 171 646 85 q 675 263 646 226 q 749 321 704 300 q 688 374 711 342 q 665 451 665 406 q 722 574 665 526 q 876 622 778 622 q 1030 574 974 622 q 1086 451 1086 526 q 1063 374 1086 406 q 1004 321 1040 342 q 1077 263 1049 300 q 1106 171 1106 226 q 1043 35 1106 85 q 876 -14 981 -14 m 876 265 q 806 242 831 265 q 781 181 781 218 q 806 117 781 140 q 876 93 832 93 q 947 117 921 93 q 972 181 972 140 q 947 242 972 218 q 876 265 921 265 m 876 515 q 814 494 836 515 q 792 442 792 474 q 814 390 792 410 q 876 369 836 369 q 938 390 915 369 q 960 442 960 410 q 938 494 960 474 q 876 515 917 515 m 386 0 l 260 0 l 639 988 l 767 988 l 386 0 z "},"←":{"ha":1157,"x_min":43,"x_max":1099,"o":"m 1099 356 l 642 356 q 525 356 586 356 q 382 357 464 356 l 382 356 q 445 294 413 326 q 532 207 478 263 l 732 3 l 472 3 l 260 228 q 144 350 201 290 q 43 453 86 410 q 144 556 86 496 q 260 678 201 615 l 472 903 l 732 903 l 532 699 q 481 648 501 668 q 446 612 461 628 q 416 581 431 596 q 382 549 401 567 l 382 547 q 526 549 465 550 q 643 549 586 549 l 1099 549 l 1099 356 z "},"↑":{"ha":1014,"x_min":56,"x_max":956,"o":"m 404 0 l 404 496 q 404 594 404 543 q 406 715 404 644 q 376 685 390 700 q 344 652 361 669 q 307 613 328 635 q 258 565 286 592 l 56 364 l 56 613 l 281 825 q 403 941 343 883 q 506 1042 463 999 q 608 941 549 999 q 731 825 668 883 l 956 613 l 956 364 l 751 565 q 701 616 721 596 q 667 651 682 636 q 638 681 651 667 q 604 715 624 696 q 606 594 606 646 q 606 496 606 543 l 606 0 l 404 0 z "},"→":{"ha":1157,"x_min":57,"x_max":1113,"o":"m 513 549 q 630 549 569 549 q 774 547 690 550 l 774 549 q 740 581 754 567 q 710 612 725 596 q 674 648 694 628 q 624 699 654 668 l 424 903 l 683 903 l 896 678 q 1012 556 954 615 q 1113 453 1069 496 q 1012 350 1069 410 q 896 228 954 290 l 683 3 l 424 3 l 624 207 q 710 294 678 263 q 774 356 743 326 l 774 357 q 631 356 692 356 q 514 356 569 356 l 57 356 l 57 549 l 513 549 z "},"↓":{"ha":1014,"x_min":56,"x_max":956,"o":"m 606 993 l 606 496 l 606 397 q 606 340 606 369 q 604 276 606 311 q 636 310 622 296 q 666 340 650 324 q 701 376 682 356 q 753 426 721 396 l 956 628 l 956 381 l 731 167 q 608 51 668 107 q 506 -49 547 -6 q 403 51 463 -6 q 281 167 343 107 l 56 381 l 56 628 l 260 426 q 308 378 288 399 q 346 339 329 357 q 377 306 363 321 q 407 276 392 290 q 406 341 406 311 q 406 397 406 371 l 406 496 l 406 993 l 606 993 z "},"↖":{"ha":957,"x_min":85,"x_max":911,"o":"m 772 -36 q 629 106 699 33 q 486 249 560 178 q 416 319 446 289 q 361 374 386 349 q 313 424 336 400 q 265 474 290 447 l 265 472 l 265 431 q 266 358 265 394 q 267 261 267 321 q 266 118 267 189 q 264 -24 265 47 l 85 153 l 93 463 q 97 631 96 549 q 99 775 99 714 q 242 776 160 774 q 411 781 325 778 l 721 789 l 899 614 q 755 613 826 615 q 611 611 683 611 q 540 611 568 611 q 489 612 511 611 q 446 613 467 613 q 399 613 425 613 q 485 526 447 563 q 557 456 524 490 l 667 344 q 790 222 728 282 q 911 100 851 163 l 772 -36 z "},"↗":{"ha":957,"x_min":44,"x_max":872,"o":"m 371 426 q 406 463 383 439 q 456 513 429 486 q 510 567 483 540 q 558 613 538 593 l 557 613 q 509 613 529 613 q 467 613 489 613 q 416 613 444 613 q 344 613 388 613 l 58 615 l 236 789 l 546 782 q 715 778 632 779 q 858 776 797 776 q 860 633 858 715 q 864 464 861 550 l 872 154 l 693 -24 l 689 263 q 690 331 689 301 q 690 385 690 361 q 691 431 690 410 q 692 474 692 453 l 692 475 q 592 373 633 415 q 511 290 551 331 l 185 -36 l 44 101 l 371 426 z "},"↘":{"ha":957,"x_min":43,"x_max":871,"o":"m 183 818 l 510 492 q 591 409 550 451 q 690 307 632 367 l 690 308 q 690 351 690 329 q 689 397 689 372 q 688 451 689 421 q 688 519 688 481 l 692 806 l 871 628 l 863 318 q 858 149 860 232 q 857 6 857 67 q 713 4 796 6 q 544 0 631 3 l 235 -7 l 57 167 l 343 169 q 415 169 386 169 q 465 169 443 169 q 508 169 488 169 q 556 169 528 169 l 557 169 q 509 215 536 189 q 455 269 482 242 q 405 319 428 296 q 369 356 382 343 l 43 681 l 183 818 z "},"↙":{"ha":957,"x_min":86,"x_max":913,"o":"m 913 679 l 572 339 q 493 260 533 300 q 399 168 453 219 l 400 168 l 443 168 q 482 168 465 168 q 516 169 499 168 q 555 169 533 169 q 611 169 576 169 l 900 165 l 722 -7 q 557 -3 642 -6 q 390 1 472 -1 q 234 4 308 3 q 100 6 160 6 q 99 149 100 67 q 94 317 97 231 l 86 626 l 265 806 l 269 518 q 269 449 269 479 q 268 394 268 419 q 267 348 268 369 q 267 306 267 326 q 351 392 315 356 q 419 463 386 429 l 774 817 l 913 679 z "},"≠":{"ha":817,"x_min":72,"x_max":744,"o":"m 285 403 l 360 528 l 72 528 l 72 681 l 451 681 q 499 763 475 722 q 549 844 524 803 l 721 844 q 672 763 696 803 q 624 681 647 722 l 744 681 l 744 528 l 532 528 l 457 403 l 744 403 l 744 250 l 365 250 q 317 166 342 207 q 268 83 292 125 l 96 83 q 144 166 119 125 q 193 250 169 207 l 72 250 l 72 403 l 285 403 z "},"∞":{"ha":1113,"x_min":42,"x_max":1071,"o":"m 286 719 q 359 709 325 719 q 426 680 393 699 q 491 636 458 661 q 557 582 524 611 q 622 636 590 611 q 685 680 653 661 q 752 709 718 699 q 825 719 786 719 q 1006 649 942 719 q 1071 465 1071 579 q 1056 373 1071 418 q 1012 292 1042 328 q 936 235 982 257 q 828 214 890 214 q 747 226 785 214 q 676 259 710 239 q 613 305 643 279 q 556 357 583 331 q 496 303 526 329 q 433 258 465 278 q 363 226 400 238 q 283 214 326 214 q 175 235 221 214 q 99 292 129 257 q 56 373 69 328 q 42 465 42 418 q 106 649 42 579 q 286 719 169 719 m 817 381 q 881 404 857 381 q 904 468 904 428 q 881 529 904 504 q 819 554 858 554 q 738 527 779 554 q 657 467 697 500 q 733 408 696 435 q 817 381 771 381 m 294 381 q 338 388 317 381 q 378 408 358 396 q 416 435 397 419 q 454 467 435 450 q 373 527 414 500 q 292 554 332 554 q 230 529 253 554 q 207 468 207 504 q 231 404 207 428 q 294 381 254 381 z "},"≤":{"ha":817,"x_min":133,"x_max":683,"o":"m 133 611 q 408 740 272 676 q 683 868 544 804 l 683 675 q 589 639 639 658 q 493 601 539 619 q 409 567 447 583 q 349 542 371 551 l 349 538 l 683 401 l 683 206 q 408 331 544 269 q 133 458 272 393 l 133 611 m 133 0 l 133 174 l 683 174 l 683 0 l 133 0 z "},"≥":{"ha":817,"x_min":133,"x_max":683,"o":"m 683 458 q 408 331 544 393 q 133 206 272 269 l 133 401 q 226 440 176 419 q 321 478 275 460 q 405 513 367 497 q 467 538 443 528 l 467 542 q 405 567 443 551 q 321 601 367 583 q 226 639 275 619 q 133 675 178 658 l 133 868 q 408 740 272 804 q 683 611 544 676 l 683 458 m 133 0 l 133 174 l 683 174 l 683 0 l 133 0 z "},"€":{"ha":817,"x_min":13,"x_max":800,"o":"m 53 663 l 119 663 q 156 802 129 739 q 224 911 182 865 q 328 983 267 957 q 468 1008 389 1008 q 601 987 543 1008 q 699 926 658 965 q 764 833 739 888 q 799 713 789 779 l 611 693 q 564 798 597 760 q 468 836 531 836 q 363 789 399 836 q 317 663 328 742 l 625 663 l 585 519 l 308 519 l 308 456 l 568 456 l 529 314 l 318 314 q 365 193 329 239 q 468 147 401 147 q 564 186 531 147 q 613 294 597 225 l 800 275 q 765 153 789 208 q 700 60 740 99 q 602 1 660 22 q 468 -19 544 -19 q 327 4 388 -19 q 224 72 267 28 q 156 177 182 115 q 119 314 131 239 l 13 314 l 53 456 l 108 456 l 108 519 l 14 519 l 53 663 z "},"":{"ha":264,"x_min":92,"x_max":269,"o":"m 92 -62 l 269 -62 l 269 -172 q 262 -237 269 -210 q 235 -284 254 -265 q 181 -312 215 -303 q 92 -321 146 -321 l 92 -250 q 150 -239 131 -249 q 169 -200 169 -229 l 169 -197 l 92 -197 l 92 -62 z "},"≈":{"ha":817,"x_min":57,"x_max":760,"o":"m 760 678 q 672 560 722 607 q 550 513 621 513 q 475 526 508 513 q 406 557 442 540 l 358 579 q 317 598 335 590 q 276 606 300 606 q 165 521 215 606 l 58 606 q 147 724 96 676 q 268 771 197 771 q 343 757 310 771 q 413 726 376 743 l 460 704 q 501 685 483 693 q 542 678 518 678 q 653 763 603 678 l 760 678 m 758 322 q 670 204 721 251 q 549 157 619 157 q 474 171 507 157 q 404 201 440 185 l 357 224 q 316 242 333 235 q 275 250 299 250 q 164 165 214 250 l 57 250 q 145 368 94 321 q 267 415 196 415 q 342 401 308 415 q 411 371 375 388 l 458 349 q 499 330 482 338 q 540 322 517 322 q 651 407 601 322 l 758 322 z "},"∆":{"ha":817,"x_min":-25,"x_max":842,"o":"m 518 957 q 680 478 599 715 q 842 1 761 242 l -25 1 q 136 478 56 242 q 300 957 217 715 l 518 957 m 218 164 l 597 164 l 410 765 q 408 764 408 765 l 218 164 z "},"◊":{"ha":817,"x_min":26,"x_max":789,"o":"m 332 0 l 26 494 l 332 993 l 485 993 l 789 494 l 485 0 l 332 0 m 579 494 l 408 794 l 235 494 l 408 200 l 579 494 z "},"∫":{"ha":817,"x_min":11,"x_max":719,"o":"m 518 725 q 467 412 492 568 q 417 97 443 256 q 386 -49 406 13 q 334 -151 367 -111 q 253 -211 301 -192 q 135 -231 204 -231 q 67 -226 99 -231 q 11 -212 35 -222 l 35 -60 q 90 -68 65 -68 q 213 65 192 -68 l 308 685 q 339 840 319 774 q 391 949 358 906 q 473 1015 424 993 q 593 1036 522 1036 q 663 1031 629 1036 q 719 1019 697 1026 l 693 863 q 640 869 668 869 q 556 835 582 869 q 518 725 529 800 z "},"∂":{"ha":847,"x_min":49,"x_max":797,"o":"m 231 1051 q 446 962 343 1021 q 627 818 549 903 q 751 624 706 733 q 797 386 797 515 q 770 212 797 288 q 694 85 743 136 q 576 8 646 35 q 421 -18 506 -18 q 269 8 338 -18 q 151 83 200 35 q 76 202 103 132 q 49 360 49 272 q 76 520 49 449 q 151 640 103 592 q 263 715 199 689 q 400 742 326 742 q 455 736 432 742 q 500 719 478 731 l 503 722 q 425 801 471 764 q 328 867 379 838 q 223 922 276 897 q 122 964 169 946 l 231 1051 m 421 597 q 288 533 333 597 q 243 363 243 469 q 288 190 243 253 q 421 128 333 128 q 554 191 508 128 q 600 363 600 254 q 554 534 600 471 q 421 597 508 597 z "},"√":{"ha":817,"x_min":21,"x_max":826,"o":"m 21 729 l 299 729 l 365 519 q 383 460 375 488 q 399 403 390 432 q 415 341 407 374 q 436 269 424 308 l 439 269 q 456 338 449 307 q 470 399 463 368 q 485 462 478 429 q 504 536 493 494 l 625 993 l 826 993 l 521 0 l 343 0 q 299 122 326 46 q 244 280 272 197 q 189 439 215 363 q 146 563 163 515 l 21 563 l 21 729 z "},"Ǽ":{"ha":1389,"x_min":-32,"x_max":1326,"o":"m 525 1014 l 1315 1014 l 1315 839 l 842 839 l 856 607 l 1276 607 l 1276 432 l 863 432 l 876 174 l 1326 174 l 1326 0 l 678 0 l 667 247 l 317 247 l 186 0 l -32 0 l 525 1014 m 626 840 q 560 709 594 778 q 489 574 525 640 l 404 417 l 658 417 q 655 492 657 456 q 651 564 653 528 l 640 840 l 626 840 m 1101 1294 l 938 1111 l 764 1111 q 816 1203 790 1157 q 867 1294 842 1249 l 1101 1294 z "},"ǽ":{"ha":1282,"x_min":46,"x_max":1236,"o":"m 701 313 q 758 181 707 229 q 889 132 808 132 q 957 141 928 132 q 1009 165 986 150 q 1048 197 1032 179 q 1075 233 1064 215 l 1233 172 q 1179 99 1211 133 q 1104 38 1147 64 q 1007 -3 1061 13 q 886 -18 953 -18 q 726 11 794 -18 q 608 96 657 40 l 600 96 q 554 55 579 75 q 495 20 529 35 q 416 -3 461 6 q 311 -12 371 -12 q 117 44 189 -12 q 46 203 46 100 q 76 314 46 272 q 158 381 106 356 q 285 422 211 407 q 449 453 360 436 q 483 460 469 457 q 506 467 497 463 q 517 480 514 472 q 521 501 521 488 q 488 573 521 546 q 392 600 454 600 q 292 567 326 600 q 253 483 257 535 q 161 489 207 486 q 71 494 115 492 q 99 594 75 549 q 165 672 124 640 q 265 722 207 704 q 393 740 322 740 q 639 654 567 740 q 747 719 686 696 q 883 743 807 743 q 1039 713 972 743 q 1149 629 1106 683 q 1215 499 1193 575 q 1236 333 1236 424 l 1236 313 l 701 313 m 528 338 q 480 326 501 331 q 426 314 458 321 q 342 298 378 306 q 283 279 307 290 q 248 251 260 268 q 236 207 236 233 q 269 138 236 161 q 357 114 301 114 q 480 157 435 114 q 525 281 525 200 l 525 308 q 525 323 525 315 q 528 338 525 331 m 1047 442 q 1033 503 1044 474 q 1001 555 1021 532 q 951 591 981 578 q 881 604 921 604 q 757 558 801 604 q 703 442 713 513 l 1047 442 m 726 831 l 553 831 l 657 1014 l 890 1014 l 726 831 z "},"Ă":{"ha":1006,"x_min":-6,"x_max":1011,"o":"m 388 1014 l 617 1014 l 1011 0 l 793 0 l 697 251 l 300 251 l 206 0 l -6 0 l 388 1014 m 639 422 l 579 593 q 557 655 568 622 q 535 718 546 688 q 516 776 525 749 q 501 825 507 804 l 496 825 q 481 778 490 808 q 461 715 472 749 q 439 649 450 682 q 419 593 428 615 l 357 422 l 639 422 m 496 1231 q 610 1300 578 1231 q 667 1290 639 1294 q 724 1278 694 1285 q 645 1151 704 1194 q 496 1107 586 1107 q 347 1151 407 1107 q 268 1278 288 1194 q 326 1290 297 1285 q 382 1300 354 1294 q 496 1231 411 1231 z "},"ă":{"ha":796,"x_min":46,"x_max":710,"o":"m 69 497 q 163 677 78 608 q 394 746 247 746 q 629 678 550 746 q 708 463 708 610 l 708 35 q 709 13 708 22 q 710 0 710 4 l 544 0 q 543 18 543 8 q 543 38 543 28 l 543 65 l 542 65 q 448 8 504 29 q 313 -14 392 -14 q 118 44 190 -14 q 46 206 46 101 q 62 292 46 256 q 112 356 78 329 q 200 401 146 382 q 329 433 254 419 l 449 456 q 484 463 469 460 q 507 470 499 465 q 519 483 515 475 q 522 504 522 490 q 488 577 522 550 q 392 604 454 604 q 291 572 325 604 q 253 486 257 539 l 69 497 m 529 339 q 483 328 503 332 q 428 318 463 325 q 346 301 381 308 q 288 282 311 293 q 252 253 264 271 q 240 208 240 236 q 272 140 240 164 q 361 115 303 115 q 483 158 439 115 q 526 283 526 201 l 526 310 q 526 324 526 317 q 529 339 526 332 m 397 950 q 511 1019 479 950 q 567 1009 539 1014 q 625 997 596 1004 q 547 870 606 914 q 397 826 488 826 q 248 870 307 826 q 171 997 189 914 q 226 1009 199 1004 q 283 1019 254 1014 q 397 950 313 950 z "},"Ā":{"ha":1006,"x_min":-6,"x_max":1011,"o":"m 388 1014 l 617 1014 l 1011 0 l 793 0 l 697 251 l 300 251 l 206 0 l -6 0 l 388 1014 m 639 422 l 579 593 q 557 655 568 622 q 535 718 546 688 q 516 776 525 749 q 501 825 507 804 l 496 825 q 481 778 490 808 q 461 715 472 749 q 439 649 450 682 q 419 593 428 615 l 357 422 l 639 422 m 307 1146 l 307 1276 l 688 1276 l 688 1146 l 307 1146 z "},"ā":{"ha":796,"x_min":46,"x_max":710,"o":"m 69 497 q 163 677 78 608 q 394 746 247 746 q 629 678 550 746 q 708 463 708 610 l 708 35 q 709 13 708 22 q 710 0 710 4 l 544 0 q 543 18 543 8 q 543 38 543 28 l 543 65 l 542 65 q 448 8 504 29 q 313 -14 392 -14 q 118 44 190 -14 q 46 206 46 101 q 62 292 46 256 q 112 356 78 329 q 200 401 146 382 q 329 433 254 419 l 449 456 q 484 463 469 460 q 507 470 499 465 q 519 483 515 475 q 522 504 522 490 q 488 577 522 550 q 392 604 454 604 q 291 572 325 604 q 253 486 257 539 l 69 497 m 529 339 q 483 328 503 332 q 428 318 463 325 q 346 301 381 308 q 288 282 311 293 q 252 253 264 271 q 240 208 240 236 q 272 140 240 164 q 361 115 303 115 q 483 158 439 115 q 526 283 526 201 l 526 310 q 526 324 526 317 q 529 339 526 332 m 201 864 l 201 994 l 582 994 l 582 864 l 201 864 z "},"Ą":{"ha":1006,"x_min":-6,"x_max":1121,"o":"m 388 1014 l 617 1014 l 1011 0 l 793 0 l 697 251 l 300 251 l 206 0 l -6 0 l 388 1014 m 639 422 l 579 593 q 557 655 568 622 q 535 718 546 688 q 516 776 525 749 q 501 825 507 804 l 496 825 q 481 778 490 808 q 461 715 472 749 q 439 649 450 682 q 419 593 428 615 l 357 422 l 639 422 m 793 -65 l 969 -65 q 1044 -157 1007 -111 q 1121 -249 1082 -203 l 900 -249 l 793 -65 z "},"ą":{"ha":796,"x_min":46,"x_max":846,"o":"m 69 497 q 163 677 78 608 q 394 746 247 746 q 629 678 550 746 q 708 463 708 610 l 708 35 q 709 13 708 22 q 710 0 710 4 l 544 0 q 543 18 543 8 q 543 38 543 28 l 543 65 l 542 65 q 448 8 504 29 q 313 -14 392 -14 q 118 44 190 -14 q 46 206 46 101 q 62 292 46 256 q 112 356 78 329 q 200 401 146 382 q 329 433 254 419 l 449 456 q 484 463 469 460 q 507 470 499 465 q 519 483 515 475 q 522 504 522 490 q 488 577 522 550 q 392 604 454 604 q 291 572 325 604 q 253 486 257 539 l 69 497 m 529 339 q 483 328 503 332 q 428 318 463 325 q 346 301 381 308 q 288 282 311 293 q 252 253 264 271 q 240 208 240 236 q 272 140 240 164 q 361 115 303 115 q 483 158 439 115 q 526 283 526 201 l 526 310 q 526 324 526 317 q 529 339 526 332 m 518 -65 l 694 -65 q 769 -157 732 -111 q 846 -249 807 -203 l 625 -249 l 518 -65 z "},"Ǻ":{"ha":1007,"x_min":-4,"x_max":1013,"o":"m -4 0 q 191 507 93 254 q 389 1014 289 760 l 618 1014 l 1013 0 l 794 0 q 746 126 769 63 q 699 251 722 189 l 301 251 l 207 0 l -4 0 m 640 422 l 578 601 q 535 722 557 661 q 501 825 513 783 l 497 825 q 474 749 486 792 q 444 660 461 706 l 358 422 l 640 422 m 749 1604 l 585 1421 l 411 1421 l 514 1604 l 749 1604 m 501 1375 q 560 1363 532 1375 q 608 1331 588 1351 q 640 1284 628 1311 q 651 1226 651 1257 q 640 1169 651 1196 q 608 1122 628 1142 q 560 1090 588 1101 q 501 1078 533 1078 q 443 1090 469 1078 q 397 1122 417 1101 q 365 1169 376 1142 q 354 1226 354 1196 q 366 1284 354 1257 q 397 1331 378 1311 q 444 1363 417 1351 q 501 1375 471 1375 m 501 1285 q 460 1267 478 1285 q 443 1226 443 1250 q 460 1185 443 1203 q 501 1168 478 1168 q 543 1185 525 1168 q 561 1226 561 1203 q 543 1267 561 1250 q 501 1285 525 1285 z "},"ǻ":{"ha":796,"x_min":46,"x_max":710,"o":"m 69 497 q 163 677 78 608 q 394 746 247 746 q 629 678 550 746 q 708 463 708 610 l 708 35 q 709 13 708 22 q 710 0 710 4 l 544 0 q 543 18 543 8 q 543 38 543 28 l 543 65 l 542 65 q 448 8 504 29 q 313 -14 392 -14 q 118 44 190 -14 q 46 206 46 101 q 62 292 46 256 q 112 356 78 329 q 200 401 146 382 q 329 433 254 419 l 449 456 q 484 463 469 460 q 507 470 499 465 q 519 483 515 475 q 522 504 522 490 q 488 577 522 550 q 392 604 454 604 q 291 572 325 604 q 253 486 257 539 l 69 497 m 529 339 q 483 328 503 332 q 428 318 463 325 q 346 301 381 308 q 288 282 311 293 q 252 253 264 271 q 240 208 240 236 q 272 140 240 164 q 361 115 303 115 q 483 158 439 115 q 526 283 526 201 l 526 310 q 526 324 526 317 q 529 339 526 332 m 393 1093 q 452 1081 425 1093 q 499 1049 479 1069 q 531 1003 519 1029 q 543 946 543 976 q 531 887 543 914 q 499 840 519 860 q 452 808 479 819 q 393 796 425 796 q 335 808 361 796 q 288 840 308 819 q 257 887 268 860 q 246 946 246 914 q 258 1003 246 976 q 289 1049 269 1029 q 335 1081 308 1069 q 393 1093 363 1093 m 393 1003 q 352 986 369 1003 q 335 946 335 969 q 352 903 335 921 q 393 886 369 886 q 435 903 417 886 q 453 946 453 921 q 435 986 453 969 q 393 1003 417 1003 m 469 1135 l 296 1135 l 400 1318 l 633 1318 l 469 1135 z "},"Ŋ":{"ha":1083,"x_min":101,"x_max":982,"o":"m 101 1014 l 372 1014 l 651 507 q 726 366 696 428 q 782 249 756 304 l 786 249 q 783 401 783 322 q 782 549 782 479 l 782 1014 l 982 1014 l 982 -18 q 967 -138 982 -90 q 922 -215 951 -186 q 847 -255 892 -243 q 743 -267 801 -267 q 702 -265 719 -267 q 661 -260 685 -264 l 667 -110 q 682 -111 675 -111 q 696 -111 689 -111 q 767 -86 749 -111 q 786 -7 786 -61 l 786 0 l 719 0 l 458 467 q 411 553 435 508 q 367 639 388 597 q 328 716 346 681 q 300 775 311 751 l 297 775 q 299 717 297 751 q 301 644 300 682 q 302 570 301 607 q 303 506 303 533 l 303 0 l 101 0 l 101 1014 z "},"ŋ":{"ha":857,"x_min":88,"x_max":769,"o":"m 89 592 q 89 660 89 619 q 88 731 89 701 l 274 731 l 274 701 q 274 672 274 688 q 272 643 274 657 l 275 643 q 366 721 307 692 q 504 750 425 750 q 699 676 628 750 q 769 449 769 601 l 769 -18 q 754 -138 769 -90 q 709 -215 739 -186 q 634 -255 679 -243 q 531 -267 589 -267 q 490 -265 507 -267 q 449 -260 472 -264 l 454 -110 q 469 -111 463 -111 q 483 -111 476 -111 q 556 -86 536 -111 q 575 -7 575 -61 l 575 353 q 546 531 575 474 q 439 588 517 588 q 319 533 356 588 q 283 365 283 479 l 283 0 l 89 0 l 89 592 z "},"Ć":{"ha":1019,"x_min":49,"x_max":997,"o":"m 793 690 q 702 812 763 769 q 550 854 642 854 q 430 828 483 854 q 340 755 376 801 q 283 645 303 708 q 264 507 264 582 q 284 365 264 429 q 342 254 304 301 q 435 181 381 207 q 556 156 489 156 q 703 200 643 156 q 793 319 764 244 l 997 282 q 838 61 954 142 q 553 -19 722 -19 q 346 19 439 -19 q 187 126 253 57 q 85 292 121 196 q 49 506 49 389 q 86 719 49 622 q 190 887 124 817 q 350 996 257 957 q 556 1035 443 1035 q 838 954 724 1035 q 993 733 951 874 l 793 690 m 800 1294 l 636 1111 l 463 1111 q 515 1203 489 1157 q 565 1294 540 1249 l 800 1294 z "},"ć":{"ha":792,"x_min":49,"x_max":763,"o":"m 582 475 q 527 559 565 526 q 428 592 489 592 q 294 531 340 592 q 247 364 247 471 q 296 198 247 257 q 428 139 344 139 q 529 171 490 139 q 585 256 568 203 l 763 215 q 717 120 747 163 q 644 47 688 78 q 544 -1 600 15 q 422 -18 488 -18 q 267 10 336 -18 q 149 88 197 38 q 74 209 100 139 q 49 364 49 279 q 76 522 49 450 q 153 644 103 593 q 273 723 203 694 q 428 751 343 751 q 646 685 558 751 q 763 514 733 619 l 582 475 m 507 831 l 333 831 l 438 1014 l 671 1014 l 507 831 z "},"Č":{"ha":1019,"x_min":49,"x_max":997,"o":"m 793 690 q 702 812 763 769 q 550 854 642 854 q 430 828 483 854 q 340 755 376 801 q 283 645 303 708 q 264 507 264 582 q 284 365 264 429 q 342 254 304 301 q 435 181 381 207 q 556 156 489 156 q 703 200 643 156 q 793 319 764 244 l 997 282 q 838 61 954 142 q 553 -19 722 -19 q 346 19 439 -19 q 187 126 253 57 q 85 292 121 196 q 49 506 49 389 q 86 719 49 622 q 190 887 124 817 q 350 996 257 957 q 556 1035 443 1035 q 838 954 724 1035 q 993 733 951 874 l 793 690 m 557 1206 q 599 1249 579 1228 q 642 1294 619 1271 l 810 1294 l 668 1111 l 444 1111 l 304 1294 l 472 1294 l 556 1206 l 557 1206 l 557 1206 z "},"č":{"ha":792,"x_min":49,"x_max":763,"o":"m 582 475 q 527 559 565 526 q 428 592 489 592 q 294 531 340 592 q 247 364 247 471 q 296 198 247 257 q 428 139 344 139 q 529 171 490 139 q 585 256 568 203 l 763 215 q 717 120 747 163 q 644 47 688 78 q 544 -1 600 15 q 422 -18 488 -18 q 267 10 336 -18 q 149 88 197 38 q 74 209 100 139 q 49 364 49 279 q 76 522 49 450 q 153 644 103 593 q 273 723 203 694 q 428 751 343 751 q 646 685 558 751 q 763 514 733 619 l 582 475 m 519 1014 l 686 1014 l 546 831 l 322 831 l 181 1014 l 349 1014 q 391 968 371 990 q 435 925 411 946 l 519 1014 z "},"Ĉ":{"ha":1019,"x_min":49,"x_max":997,"o":"m 793 690 q 702 812 763 769 q 550 854 642 854 q 430 828 483 854 q 340 755 376 801 q 283 645 303 708 q 264 507 264 582 q 284 365 264 429 q 342 254 304 301 q 435 181 381 207 q 556 156 489 156 q 703 200 643 156 q 793 319 764 244 l 997 282 q 838 61 954 142 q 553 -19 722 -19 q 346 19 439 -19 q 187 126 253 57 q 85 292 121 196 q 49 506 49 389 q 86 719 49 622 q 190 887 124 817 q 350 996 257 957 q 556 1035 443 1035 q 838 954 724 1035 q 993 733 951 874 l 793 690 m 475 1111 l 307 1111 l 447 1294 l 671 1294 l 813 1111 l 644 1111 l 560 1200 l 558 1200 l 475 1111 z "},"ĉ":{"ha":792,"x_min":49,"x_max":763,"o":"m 582 475 q 527 559 565 526 q 428 592 489 592 q 294 531 340 592 q 247 364 247 471 q 296 198 247 257 q 428 139 344 139 q 529 171 490 139 q 585 256 568 203 l 763 215 q 717 120 747 163 q 644 47 688 78 q 544 -1 600 15 q 422 -18 488 -18 q 267 10 336 -18 q 149 88 197 38 q 74 209 100 139 q 49 364 49 279 q 76 522 49 450 q 153 644 103 593 q 273 723 203 694 q 428 751 343 751 q 646 685 558 751 q 763 514 733 619 l 582 475 m 349 831 l 181 831 l 322 1014 l 546 1014 l 686 831 l 519 831 l 433 919 l 349 831 z "},"Ċ":{"ha":1019,"x_min":49,"x_max":997,"o":"m 793 690 q 702 812 763 769 q 550 854 642 854 q 430 828 483 854 q 340 755 376 801 q 283 645 303 708 q 264 507 264 582 q 284 365 264 429 q 342 254 304 301 q 435 181 381 207 q 556 156 489 156 q 703 200 643 156 q 793 319 764 244 l 997 282 q 838 61 954 142 q 553 -19 722 -19 q 346 19 439 -19 q 187 126 253 57 q 85 292 121 196 q 49 506 49 389 q 86 719 49 622 q 190 887 124 817 q 350 996 257 957 q 556 1035 443 1035 q 838 954 724 1035 q 993 733 951 874 l 793 690 m 646 1282 l 646 1119 l 476 1119 l 476 1282 l 646 1282 l 646 1282 z "},"ċ":{"ha":792,"x_min":49,"x_max":763,"o":"m 582 475 q 527 559 565 526 q 428 592 489 592 q 294 531 340 592 q 247 364 247 471 q 296 198 247 257 q 428 139 344 139 q 529 171 490 139 q 585 256 568 203 l 763 215 q 717 120 747 163 q 644 47 688 78 q 544 -1 600 15 q 422 -18 488 -18 q 267 10 336 -18 q 149 88 197 38 q 74 209 100 139 q 49 364 49 279 q 76 522 49 450 q 153 644 103 593 q 273 723 203 694 q 428 751 343 751 q 646 685 558 751 q 763 514 733 619 l 582 475 m 521 1001 l 521 839 l 353 839 l 353 1001 l 521 1001 l 521 1001 z "},"Ď":{"ha":1040,"x_min":99,"x_max":988,"o":"m 99 1014 l 469 1014 q 853 890 719 1014 q 988 519 986 765 q 955 303 988 400 q 855 140 922 207 q 686 36 788 72 q 447 0 585 0 l 99 0 l 99 1014 m 307 171 l 454 171 q 585 190 526 171 q 687 251 644 210 q 753 359 729 293 q 776 518 776 425 q 697 758 776 676 q 433 840 618 840 l 307 840 l 307 171 m 496 1206 q 538 1249 518 1228 q 581 1294 558 1271 l 749 1294 l 607 1111 l 383 1111 l 243 1294 l 411 1294 l 494 1206 l 496 1206 l 496 1206 z "},"ď":{"ha":1107,"x_min":49,"x_max":1121,"o":"m 803 104 q 803 49 803 78 q 804 0 803 19 l 617 0 l 617 28 q 617 53 617 40 q 618 90 617 67 l 617 90 q 524 12 579 40 q 385 -17 468 -17 q 249 10 311 -17 q 143 88 188 38 q 74 208 99 138 q 49 364 49 278 q 73 520 49 449 q 142 643 97 592 q 247 723 186 694 q 382 751 308 751 q 521 721 465 751 q 610 644 576 690 q 608 714 608 681 q 608 781 608 747 l 608 1014 l 803 1014 l 803 104 m 426 139 q 504 156 469 139 q 563 202 539 172 q 601 274 588 232 q 614 365 614 315 q 564 528 614 465 q 428 590 514 590 q 294 527 342 590 q 246 364 246 464 q 294 201 246 264 q 426 139 342 139 m 1121 1014 l 1036 774 l 867 774 l 913 1014 l 1121 1014 z "},"Đ":{"ha":1043,"x_min":7,"x_max":988,"o":"m 7 597 l 99 597 l 99 1014 l 474 1014 q 856 885 724 1014 q 988 511 988 757 q 958 304 988 397 q 867 144 928 211 q 713 40 806 78 q 496 0 621 3 l 99 0 l 99 433 l 7 433 l 7 597 m 306 597 l 510 597 l 510 433 l 306 433 l 306 171 l 454 171 q 585 189 526 171 q 687 247 644 207 q 753 349 729 286 q 776 501 776 411 q 758 649 776 585 q 696 755 740 713 q 577 819 651 797 q 392 840 503 840 l 306 840 l 306 597 z "},"đ":{"ha":892,"x_min":49,"x_max":853,"o":"m 803 807 l 803 104 q 803 49 803 78 q 804 0 803 19 l 617 0 l 617 28 q 617 53 617 40 q 618 90 617 67 l 617 90 q 524 12 579 40 q 385 -17 468 -17 q 249 10 311 -17 q 143 88 188 38 q 74 208 99 138 q 49 364 49 278 q 73 520 49 449 q 142 643 97 592 q 247 723 186 694 q 382 751 308 751 q 522 721 465 751 q 611 644 578 690 q 610 714 610 681 q 610 781 610 747 l 610 807 l 444 807 l 444 944 l 610 944 l 610 1014 l 803 1014 l 803 944 l 853 944 l 853 807 l 803 807 m 426 139 q 504 156 469 139 q 563 202 539 172 q 601 274 588 232 q 614 365 614 315 q 564 528 614 465 q 428 590 514 590 q 294 527 342 590 q 246 364 246 464 q 294 201 246 264 q 426 139 342 139 z "},"ħ":{"ha":858,"x_min":38,"x_max":771,"o":"m 283 807 l 283 740 q 283 695 283 721 q 281 650 282 669 q 370 722 314 694 q 506 750 426 750 q 701 674 632 750 q 771 449 771 599 l 771 0 l 576 0 l 576 357 q 541 535 576 483 q 438 588 506 588 q 322 532 358 588 q 285 364 285 476 l 285 0 l 89 0 l 89 807 l 38 807 l 38 944 l 89 944 l 89 1014 l 283 1014 l 283 944 l 446 944 l 446 807 l 283 807 z "},"ŧ":{"ha":474,"x_min":-3,"x_max":457,"o":"m 11 476 l 117 476 l 117 581 l -3 581 l -3 731 l 117 731 l 117 931 l 311 931 l 311 731 l 457 731 l 457 581 l 310 581 l 310 476 l 442 476 l 442 339 l 310 339 l 310 338 l 310 289 q 317 175 310 219 q 340 103 325 131 q 377 60 356 75 q 426 33 399 44 l 426 0 l 194 0 q 156 35 171 14 q 132 85 140 56 q 120 158 124 115 q 117 260 117 201 l 117 339 l 11 339 l 11 476 z "},"Ŧ":{"ha":806,"x_min":10,"x_max":797,"o":"m 81 586 l 299 586 l 299 836 l 10 836 l 10 1014 l 797 1014 l 797 836 l 510 836 l 510 586 l 725 586 l 725 447 l 510 447 l 510 0 l 299 0 l 299 447 l 81 447 l 81 586 z "},"ľ":{"ha":590,"x_min":89,"x_max":604,"o":"m 89 1014 l 286 1014 l 286 0 l 89 0 l 89 1014 m 604 1014 l 519 774 l 350 774 l 396 1014 l 604 1014 z "},"Ĕ":{"ha":868,"x_min":101,"x_max":806,"o":"m 101 1014 l 794 1014 l 794 839 l 306 839 l 306 607 l 757 607 l 757 432 l 306 432 l 306 175 l 806 175 l 806 0 l 101 0 l 101 1014 m 446 1231 q 560 1300 528 1231 q 617 1290 589 1294 q 674 1278 644 1285 q 595 1151 654 1194 q 446 1107 536 1107 q 297 1151 357 1107 q 218 1278 238 1194 q 276 1290 247 1285 q 332 1300 304 1294 q 446 1231 361 1231 z "},"ĕ":{"ha":836,"x_min":49,"x_max":790,"o":"m 239 315 q 299 181 246 231 q 435 132 353 132 q 504 141 474 132 q 558 165 535 150 q 599 199 582 181 q 628 236 617 217 l 786 174 q 732 99 765 133 q 655 38 699 64 q 555 -3 611 13 q 432 -18 499 -18 q 274 9 344 -18 q 153 85 203 36 q 76 206 103 135 q 49 364 49 276 q 76 518 49 447 q 152 640 103 589 q 272 721 201 692 q 428 750 342 750 q 591 718 522 750 q 704 628 660 686 q 769 491 749 571 q 790 315 790 411 l 239 315 m 599 446 q 584 508 596 478 q 551 560 572 538 q 498 597 529 583 q 426 610 467 610 q 299 563 347 610 q 240 446 251 517 l 599 446 m 431 950 q 544 1019 513 950 q 601 1009 572 1014 q 658 997 629 1004 q 580 870 639 914 q 431 826 521 826 q 281 870 340 826 q 204 997 222 914 q 260 1009 232 1004 q 317 1019 288 1014 q 431 950 346 950 z "},"Ě":{"ha":868,"x_min":101,"x_max":806,"o":"m 101 1014 l 794 1014 l 794 839 l 306 839 l 306 607 l 757 607 l 757 432 l 306 432 l 306 175 l 806 175 l 806 0 l 101 0 l 101 1014 m 451 1206 q 494 1249 474 1228 q 536 1294 514 1271 l 704 1294 l 563 1111 l 339 1111 l 199 1294 l 367 1294 l 450 1206 l 451 1206 l 451 1206 z "},"ě":{"ha":836,"x_min":49,"x_max":790,"o":"m 239 315 q 299 181 246 231 q 435 132 353 132 q 504 141 474 132 q 558 165 535 150 q 599 199 582 181 q 628 236 617 217 l 786 174 q 732 99 765 133 q 655 38 699 64 q 555 -3 611 13 q 432 -18 499 -18 q 274 9 344 -18 q 153 85 203 36 q 76 206 103 135 q 49 364 49 276 q 76 518 49 447 q 152 640 103 589 q 272 721 201 692 q 428 750 342 750 q 591 718 522 750 q 704 628 660 686 q 769 491 749 571 q 790 315 790 411 l 239 315 m 599 446 q 584 508 596 478 q 551 560 572 538 q 498 597 529 583 q 426 610 467 610 q 299 563 347 610 q 240 446 251 517 l 599 446 m 515 1014 l 682 1014 l 542 831 l 318 831 l 176 1014 l 344 1014 q 387 968 367 990 q 431 925 407 946 l 515 1014 z "},"Ė":{"ha":868,"x_min":101,"x_max":806,"o":"m 101 1014 l 794 1014 l 794 839 l 306 839 l 306 607 l 757 607 l 757 432 l 306 432 l 306 175 l 806 175 l 806 0 l 101 0 l 101 1014 m 536 1282 l 536 1119 l 367 1119 l 367 1282 l 536 1282 l 536 1282 z "},"ė":{"ha":836,"x_min":49,"x_max":790,"o":"m 239 315 q 299 181 246 231 q 435 132 353 132 q 504 141 474 132 q 558 165 535 150 q 599 199 582 181 q 628 236 617 217 l 786 174 q 732 99 765 133 q 655 38 699 64 q 555 -3 611 13 q 432 -18 499 -18 q 274 9 344 -18 q 153 85 203 36 q 76 206 103 135 q 49 364 49 276 q 76 518 49 447 q 152 640 103 589 q 272 721 201 692 q 428 750 342 750 q 591 718 522 750 q 704 628 660 686 q 769 491 749 571 q 790 315 790 411 l 239 315 m 599 446 q 584 508 596 478 q 551 560 572 538 q 498 597 529 583 q 426 610 467 610 q 299 563 347 610 q 240 446 251 517 l 599 446 m 518 1001 l 518 839 l 350 839 l 350 1001 l 518 1001 l 518 1001 z "},"Ē":{"ha":868,"x_min":101,"x_max":806,"o":"m 101 1014 l 794 1014 l 794 839 l 306 839 l 306 607 l 757 607 l 757 432 l 306 432 l 306 175 l 806 175 l 806 0 l 101 0 l 101 1014 m 256 1146 l 256 1276 l 636 1276 l 636 1146 l 256 1146 z "},"ē":{"ha":836,"x_min":49,"x_max":790,"o":"m 239 315 q 299 181 246 231 q 435 132 353 132 q 504 141 474 132 q 558 165 535 150 q 599 199 582 181 q 628 236 617 217 l 786 174 q 732 99 765 133 q 655 38 699 64 q 555 -3 611 13 q 432 -18 499 -18 q 274 9 344 -18 q 153 85 203 36 q 76 206 103 135 q 49 364 49 276 q 76 518 49 447 q 152 640 103 589 q 272 721 201 692 q 428 750 342 750 q 591 718 522 750 q 704 628 660 686 q 769 491 749 571 q 790 315 790 411 l 239 315 m 599 446 q 584 508 596 478 q 551 560 572 538 q 498 597 529 583 q 426 610 467 610 q 299 563 347 610 q 240 446 251 517 l 599 446 m 243 864 l 243 994 l 624 994 l 624 864 l 243 864 z "},"Ę":{"ha":868,"x_min":101,"x_max":806,"o":"m 101 1014 l 794 1014 l 794 839 l 306 839 l 306 607 l 757 607 l 757 432 l 306 432 l 306 175 l 806 175 l 806 0 l 101 0 l 101 1014 m 343 -65 l 519 -65 q 594 -157 557 -111 q 671 -249 632 -203 l 450 -249 l 343 -65 z "},"ę":{"ha":836,"x_min":49,"x_max":790,"o":"m 239 315 q 299 181 246 231 q 435 132 353 132 q 504 141 474 132 q 558 165 535 150 q 599 199 582 181 q 628 236 617 217 l 786 174 q 732 99 765 133 q 655 38 699 64 q 555 -3 611 13 q 432 -18 499 -18 q 274 9 344 -18 q 153 85 203 36 q 76 206 103 135 q 49 364 49 276 q 76 518 49 447 q 152 640 103 589 q 272 721 201 692 q 428 750 342 750 q 591 718 522 750 q 704 628 660 686 q 769 491 749 571 q 790 315 790 411 l 239 315 m 599 446 q 584 508 596 478 q 551 560 572 538 q 498 597 529 583 q 426 610 467 610 q 299 563 347 610 q 240 446 251 517 l 599 446 m 324 -65 l 500 -65 q 575 -157 538 -111 q 651 -249 613 -203 l 431 -249 l 324 -65 z "},"Ğ":{"ha":1103,"x_min":49,"x_max":1014,"o":"m 1014 557 l 1014 0 l 824 0 l 824 24 q 824 55 824 39 q 825 83 825 71 l 822 83 q 783 47 810 65 q 718 15 756 29 q 634 -10 681 0 q 536 -19 588 -19 q 338 19 428 -19 q 184 128 249 58 q 84 294 119 197 q 49 508 49 392 q 85 722 49 625 q 190 888 122 818 q 351 997 257 958 q 561 1035 446 1035 q 848 958 733 1035 q 1007 754 963 881 l 810 703 q 717 813 779 771 q 560 856 654 856 q 436 830 490 856 q 343 758 382 804 q 284 647 304 711 q 264 506 264 582 q 285 361 264 426 q 347 249 307 296 q 443 177 386 203 q 571 151 500 151 q 753 213 689 151 q 829 385 818 275 l 521 385 l 521 557 l 1014 557 m 569 1231 q 683 1300 651 1231 q 740 1290 713 1294 q 797 1278 768 1285 q 719 1151 778 1194 q 569 1107 660 1107 q 421 1151 481 1107 q 342 1278 361 1194 q 399 1290 371 1285 q 456 1300 428 1294 q 569 1231 485 1231 z "},"ğ":{"ha":882,"x_min":50,"x_max":796,"o":"m 796 731 q 796 698 796 713 q 795 669 796 683 q 794 637 794 654 q 794 597 794 619 l 794 67 q 767 -85 794 -21 q 689 -192 739 -149 q 569 -256 639 -235 q 418 -276 500 -276 q 192 -224 283 -276 q 63 -82 101 -171 l 226 -18 q 300 -94 253 -65 q 421 -124 347 -124 q 556 -81 510 -124 q 606 58 603 -37 l 606 61 q 607 90 607 76 q 610 124 607 104 l 607 124 q 516 48 574 78 q 379 18 458 18 q 247 45 307 18 q 142 120 186 72 q 74 235 99 168 q 50 382 50 303 q 75 530 50 463 q 144 646 100 597 q 250 722 189 694 q 382 749 311 749 q 519 719 461 749 q 610 643 578 689 l 613 643 q 610 674 610 656 q 610 706 610 693 l 610 731 l 796 731 m 428 593 q 352 577 386 593 q 295 533 318 561 q 260 465 272 504 q 247 382 247 426 q 295 230 247 289 q 428 171 343 171 q 501 187 468 171 q 558 231 535 203 q 595 297 582 258 q 608 382 608 336 q 596 466 608 428 q 560 533 583 504 q 503 577 536 561 q 428 593 469 593 m 447 950 q 561 1019 529 950 q 617 1009 589 1014 q 675 997 646 1004 q 597 870 656 914 q 447 826 538 826 q 298 870 357 826 q 221 997 239 914 q 276 1009 249 1004 q 333 1019 304 1014 q 447 950 363 950 z "},"Ĝ":{"ha":1103,"x_min":49,"x_max":1014,"o":"m 1014 557 l 1014 0 l 824 0 l 824 24 q 824 55 824 39 q 825 83 825 71 l 822 83 q 783 47 810 65 q 718 15 756 29 q 634 -10 681 0 q 536 -19 588 -19 q 338 19 428 -19 q 184 128 249 58 q 84 294 119 197 q 49 508 49 392 q 85 722 49 625 q 190 888 122 818 q 351 997 257 958 q 561 1035 446 1035 q 848 958 733 1035 q 1007 754 963 881 l 810 703 q 717 813 779 771 q 560 856 654 856 q 436 830 490 856 q 343 758 382 804 q 284 647 304 711 q 264 506 264 582 q 285 361 264 426 q 347 249 307 296 q 443 177 386 203 q 571 151 500 151 q 753 213 689 151 q 829 385 818 275 l 521 385 l 521 557 l 1014 557 m 486 1111 l 318 1111 l 458 1294 l 682 1294 l 824 1111 l 656 1111 l 571 1200 l 569 1200 l 486 1111 z "},"ĝ":{"ha":882,"x_min":50,"x_max":796,"o":"m 796 731 q 796 698 796 713 q 795 669 796 683 q 794 637 794 654 q 794 597 794 619 l 794 67 q 767 -85 794 -21 q 689 -192 739 -149 q 569 -256 639 -235 q 418 -276 500 -276 q 192 -224 283 -276 q 63 -82 101 -171 l 226 -18 q 300 -94 253 -65 q 421 -124 347 -124 q 556 -81 510 -124 q 606 58 603 -37 l 606 61 q 607 90 607 76 q 610 124 607 104 l 607 124 q 516 48 574 78 q 379 18 458 18 q 247 45 307 18 q 142 120 186 72 q 74 235 99 168 q 50 382 50 303 q 75 530 50 463 q 144 646 100 597 q 250 722 189 694 q 382 749 311 749 q 519 719 461 749 q 610 643 578 689 l 613 643 q 610 674 610 656 q 610 706 610 693 l 610 731 l 796 731 m 428 593 q 352 577 386 593 q 295 533 318 561 q 260 465 272 504 q 247 382 247 426 q 295 230 247 289 q 428 171 343 171 q 501 187 468 171 q 558 231 535 203 q 595 297 582 258 q 608 382 608 336 q 596 466 608 428 q 560 533 583 504 q 503 577 536 561 q 428 593 469 593 m 356 831 l 188 831 l 329 1014 l 553 1014 l 693 831 l 526 831 l 440 919 l 356 831 z "},"Ģ":{"ha":1103,"x_min":49,"x_max":1014,"o":"m 1014 557 l 1014 0 l 824 0 l 824 24 q 824 55 824 39 q 825 83 825 71 l 822 83 q 783 47 810 65 q 718 15 756 29 q 634 -10 681 0 q 536 -19 588 -19 q 338 19 428 -19 q 184 128 249 58 q 84 294 119 197 q 49 508 49 392 q 85 722 49 625 q 190 888 122 818 q 351 997 257 958 q 561 1035 446 1035 q 848 958 733 1035 q 1007 754 963 881 l 810 703 q 717 813 779 771 q 560 856 654 856 q 436 830 490 856 q 343 758 382 804 q 284 647 304 711 q 264 506 264 582 q 285 361 264 426 q 347 249 307 296 q 443 177 386 203 q 571 151 500 151 q 753 213 689 151 q 829 385 818 275 l 521 385 l 521 557 l 1014 557 m 471 -62 l 649 -62 l 649 -172 q 641 -237 649 -210 q 614 -284 633 -265 q 560 -312 594 -303 q 471 -321 525 -321 l 471 -250 q 529 -239 510 -249 q 549 -200 549 -229 l 549 -197 l 471 -197 l 471 -62 z "},"ģ":{"ha":882,"x_min":50,"x_max":796,"o":"m 796 731 q 796 698 796 713 q 795 669 796 683 q 794 637 794 654 q 794 597 794 619 l 794 67 q 767 -85 794 -21 q 689 -192 739 -149 q 569 -256 639 -235 q 418 -276 500 -276 q 192 -224 283 -276 q 63 -82 101 -171 l 226 -18 q 300 -94 253 -65 q 421 -124 347 -124 q 556 -81 510 -124 q 606 58 603 -37 l 606 61 q 607 90 607 76 q 610 124 607 104 l 607 124 q 516 48 574 78 q 379 18 458 18 q 247 45 307 18 q 142 120 186 72 q 74 235 99 168 q 50 382 50 303 q 75 530 50 463 q 144 646 100 597 q 250 722 189 694 q 382 749 311 749 q 519 719 461 749 q 610 643 578 689 l 613 643 q 610 674 610 656 q 610 706 610 693 l 610 731 l 796 731 m 428 593 q 352 577 386 593 q 295 533 318 561 q 260 465 272 504 q 247 382 247 426 q 295 230 247 289 q 428 171 343 171 q 501 187 468 171 q 558 231 535 203 q 595 297 582 258 q 608 382 608 336 q 596 466 608 428 q 560 533 583 504 q 503 577 536 561 q 428 593 469 593 m 515 819 l 338 819 l 338 929 q 345 994 338 967 q 372 1041 353 1022 q 426 1069 392 1060 q 515 1078 461 1078 l 515 1007 q 457 996 476 1006 q 438 957 438 986 l 438 954 l 515 954 l 515 819 z "},"Ġ":{"ha":1103,"x_min":49,"x_max":1014,"o":"m 1014 557 l 1014 0 l 824 0 l 824 24 q 824 55 824 39 q 825 83 825 71 l 822 83 q 783 47 810 65 q 718 15 756 29 q 634 -10 681 0 q 536 -19 588 -19 q 338 19 428 -19 q 184 128 249 58 q 84 294 119 197 q 49 508 49 392 q 85 722 49 625 q 190 888 122 818 q 351 997 257 958 q 561 1035 446 1035 q 848 958 733 1035 q 1007 754 963 881 l 810 703 q 717 813 779 771 q 560 856 654 856 q 436 830 490 856 q 343 758 382 804 q 284 647 304 711 q 264 506 264 582 q 285 361 264 426 q 347 249 307 296 q 443 177 386 203 q 571 151 500 151 q 753 213 689 151 q 829 385 818 275 l 521 385 l 521 557 l 1014 557 m 649 1282 l 649 1119 l 479 1119 l 479 1282 l 649 1282 l 649 1282 z "},"ġ":{"ha":882,"x_min":50,"x_max":796,"o":"m 796 731 q 796 698 796 713 q 795 669 796 683 q 794 637 794 654 q 794 597 794 619 l 794 67 q 767 -85 794 -21 q 689 -192 739 -149 q 569 -256 639 -235 q 418 -276 500 -276 q 192 -224 283 -276 q 63 -82 101 -171 l 226 -18 q 300 -94 253 -65 q 421 -124 347 -124 q 556 -81 510 -124 q 606 58 603 -37 l 606 61 q 607 90 607 76 q 610 124 607 104 l 607 124 q 516 48 574 78 q 379 18 458 18 q 247 45 307 18 q 142 120 186 72 q 74 235 99 168 q 50 382 50 303 q 75 530 50 463 q 144 646 100 597 q 250 722 189 694 q 382 749 311 749 q 519 719 461 749 q 610 643 578 689 l 613 643 q 610 674 610 656 q 610 706 610 693 l 610 731 l 796 731 m 428 593 q 352 577 386 593 q 295 533 318 561 q 260 465 272 504 q 247 382 247 426 q 295 230 247 289 q 428 171 343 171 q 501 187 468 171 q 558 231 535 203 q 595 297 582 258 q 608 382 608 336 q 596 466 608 428 q 560 533 583 504 q 503 577 536 561 q 428 593 469 593 m 517 1001 l 517 839 l 349 839 l 349 1001 l 517 1001 l 517 1001 z "},"Ħ":{"ha":1043,"x_min":101,"x_max":942,"o":"m 101 1014 l 308 1014 l 308 893 l 733 893 l 733 1014 l 942 1014 l 942 0 l 733 0 l 733 432 l 308 432 l 308 0 l 101 0 l 101 1014 m 733 613 l 733 747 l 308 747 l 308 613 l 733 613 z "},"Ĥ":{"ha":1043,"x_min":101,"x_max":942,"o":"m 101 1014 l 310 1014 l 310 617 l 733 617 l 733 1014 l 942 1014 l 942 0 l 733 0 l 733 432 l 310 432 l 310 0 l 101 0 l 101 1014 m 438 1111 l 269 1111 l 410 1294 l 633 1294 l 775 1111 l 607 1111 l 522 1200 l 521 1200 l 438 1111 z "},"ĥ":{"ha":857,"x_min":88,"x_max":769,"o":"m 88 1014 l 283 1014 l 283 740 q 283 695 283 721 q 281 650 282 669 q 369 722 314 694 q 504 750 425 750 q 700 674 631 750 q 769 449 769 599 l 769 0 l 575 0 l 575 357 q 540 535 575 483 q 436 588 504 588 q 320 532 357 588 q 283 364 283 476 l 283 0 l 88 0 l 88 1014 m 354 1111 l 186 1111 l 326 1294 l 550 1294 l 692 1111 l 524 1111 l 439 1200 l 438 1200 l 354 1111 z "},"Ĳ":{"ha":1100,"x_min":101,"x_max":1008,"o":"m 101 1014 l 313 1014 l 313 0 l 101 0 l 101 1014 m 797 1014 l 1008 1014 l 1008 349 q 992 200 1008 267 q 938 85 976 133 q 836 10 900 36 q 678 -17 772 -17 q 447 53 524 -17 q 360 257 371 122 l 553 278 q 585 190 558 225 q 676 154 613 154 q 773 203 749 154 q 797 333 797 253 l 797 1014 z "},"ĳ":{"ha":739,"x_min":89,"x_max":653,"o":"m 89 1014 l 286 1014 l 286 831 l 89 831 l 89 1014 m 89 731 l 286 731 l 286 0 l 89 0 l 89 731 m 651 731 l 651 -18 q 636 -138 651 -90 q 591 -215 621 -186 q 516 -255 561 -243 q 413 -267 471 -267 q 372 -265 389 -267 q 331 -260 354 -264 l 336 -110 q 351 -111 344 -111 q 365 -111 358 -111 q 436 -83 418 -111 q 454 6 454 -56 l 454 731 l 651 731 m 453 1014 l 653 1014 l 653 831 l 453 831 l 453 1014 z "},"Ĭ":{"ha":414,"x_min":-22,"x_max":433,"o":"m 101 1014 l 313 1014 l 313 0 l 101 0 l 101 1014 m 206 1231 q 319 1300 288 1231 q 376 1290 349 1294 q 433 1278 404 1285 q 355 1151 414 1194 q 206 1107 296 1107 q 57 1151 117 1107 q -22 1278 -3 1194 q 35 1290 7 1285 q 92 1300 64 1294 q 206 1231 121 1231 z "},"ĭ":{"ha":375,"x_min":-39,"x_max":415,"o":"m 188 950 q 301 1019 269 950 q 358 1009 329 1014 q 415 997 386 1004 q 337 870 396 914 q 188 826 278 826 q 38 870 97 826 q -39 997 -21 914 q 17 1009 -11 1004 q 74 1019 44 1014 q 188 950 103 950 m 89 731 l 286 731 l 286 0 l 89 0 l 89 731 z "},"İ":{"ha":414,"x_min":101,"x_max":313,"o":"m 101 1014 l 313 1014 l 313 0 l 101 0 l 101 1014 m 289 1282 l 289 1119 l 119 1119 l 119 1282 l 289 1282 l 289 1282 z "},"Ī":{"ha":414,"x_min":15,"x_max":396,"o":"m 101 1014 l 313 1014 l 313 0 l 101 0 l 101 1014 m 15 1146 l 15 1276 l 396 1276 l 396 1146 l 15 1146 z "},"ī":{"ha":375,"x_min":-3,"x_max":378,"o":"m -3 864 l -3 994 l 378 994 l 378 864 l -3 864 m 89 731 l 286 731 l 286 0 l 89 0 l 89 731 z "},"Į":{"ha":414,"x_min":101,"x_max":431,"o":"m 101 1014 l 313 1014 l 313 0 l 101 0 l 101 1014 m 103 -65 l 279 -65 q 354 -157 317 -111 q 431 -249 392 -203 l 210 -249 l 103 -65 z "},"į":{"ha":375,"x_min":85,"x_max":413,"o":"m 89 1014 l 286 1014 l 286 831 l 89 831 l 89 1014 m 89 731 l 286 731 l 286 0 l 89 0 l 89 731 m 85 -65 l 261 -65 q 336 -157 299 -111 q 413 -249 374 -203 l 192 -249 l 85 -65 z "},"Ĩ":{"ha":414,"x_min":-37,"x_max":453,"o":"m 101 1014 l 313 1014 l 313 0 l 101 0 l 101 1014 m 453 1279 q 406 1160 443 1207 q 303 1114 369 1114 q 219 1132 263 1114 l 200 1140 q 160 1158 181 1149 q 124 1167 139 1167 q 72 1115 88 1167 l -37 1128 q 9 1247 -28 1200 q 113 1293 46 1293 q 196 1275 153 1293 l 215 1267 q 256 1249 235 1258 q 292 1240 276 1240 q 343 1292 328 1240 l 453 1279 z "},"ĩ":{"ha":375,"x_min":-57,"x_max":433,"o":"m 433 999 q 387 880 424 926 q 283 833 350 833 q 200 851 243 833 l 181 860 q 140 877 161 868 q 104 886 119 886 q 53 835 68 886 l -57 847 q -10 966 -47 919 q 93 1013 26 1013 q 176 994 133 1013 l 196 986 q 236 969 215 978 q 272 960 257 960 q 324 1011 308 960 l 433 999 m 89 731 l 286 731 l 286 0 l 89 0 l 89 731 z "},"Ĵ":{"ha":743,"x_min":3,"x_max":794,"o":"m 440 1014 l 651 1014 l 651 349 q 635 200 651 267 q 581 85 619 133 q 479 10 543 36 q 321 -17 415 -17 q 90 53 167 -17 q 3 257 14 122 l 196 278 q 228 190 201 225 q 319 154 256 154 q 416 203 392 154 q 440 333 440 253 l 440 1014 m 457 1111 l 289 1111 l 429 1294 l 653 1294 l 794 1111 l 626 1111 l 542 1200 l 540 1200 l 457 1111 z "},"ĵ":{"ha":372,"x_min":-67,"x_max":439,"o":"m 285 731 l 285 -18 q 269 -138 285 -90 q 224 -215 254 -186 q 149 -255 194 -243 q 46 -267 104 -267 q 5 -265 22 -267 q -36 -260 -12 -264 l -31 -110 q -15 -111 -22 -111 q -1 -111 -8 -111 q 69 -83 51 -111 q 88 6 88 -56 l 88 731 l 285 731 m 101 831 l -67 831 l 75 1014 l 299 1014 l 439 831 l 272 831 l 186 919 l 101 831 z "},"ȷ":{"ha":372,"x_min":-36,"x_max":285,"o":"m 285 731 l 285 -18 q 269 -138 285 -90 q 224 -215 254 -186 q 149 -255 194 -243 q 46 -267 104 -267 q 5 -265 22 -267 q -36 -260 -12 -264 l -31 -110 q -15 -111 -22 -111 q -1 -111 -8 -111 q 69 -83 51 -111 q 88 6 88 -56 l 88 731 l 285 731 z "},"Ə":{"ha":1071,"x_min":43,"x_max":1021,"o":"m 53 750 q 117 855 76 804 q 216 945 158 906 q 349 1009 274 985 q 518 1033 424 1033 q 725 997 632 1033 q 883 892 818 960 q 985 728 949 825 q 1021 510 1021 631 q 985 294 1021 392 q 884 128 950 197 q 726 20 818 58 q 522 -18 635 -18 q 315 21 404 -18 q 165 133 225 60 q 74 308 104 206 q 43 540 43 411 q 43 552 43 544 q 44 567 43 560 l 804 567 q 775 685 799 632 q 713 775 751 738 q 624 833 675 813 q 510 853 572 853 q 412 838 454 853 q 338 798 369 822 q 283 744 306 774 q 247 685 261 714 l 53 750 m 271 410 q 348 218 282 288 q 528 149 414 149 q 713 220 643 149 q 800 410 783 292 l 271 410 z "},"ə":{"ha":836,"x_min":44,"x_max":786,"o":"m 596 421 q 535 555 589 506 q 400 604 482 604 q 331 595 361 604 q 276 571 300 586 q 235 538 253 556 q 207 500 218 519 l 49 563 q 103 638 69 603 q 180 698 136 672 q 280 739 224 724 q 403 754 336 754 q 561 727 490 754 q 682 651 632 700 q 759 531 732 601 q 786 372 786 460 q 759 218 786 289 q 683 96 732 147 q 563 15 633 44 q 407 -14 493 -14 q 244 18 313 -14 q 131 108 175 50 q 65 245 86 165 q 44 421 44 325 l 596 421 m 236 290 q 251 229 239 258 q 284 176 263 199 q 337 140 306 153 q 408 126 368 126 q 535 173 488 126 q 594 290 583 219 l 236 290 z "},"̬":{"ha":457,"x_min":4,"x_max":510,"o":"m 343 -78 l 510 -78 l 369 -261 l 146 -261 l 4 -78 l 172 -78 q 215 -124 194 -101 q 258 -167 235 -146 l 343 -78 z "},"ż":{"ha":696,"x_min":29,"x_max":658,"o":"m 29 146 l 244 393 q 320 481 281 436 q 403 574 360 525 l 403 576 q 356 574 378 575 q 308 574 333 574 l 44 574 l 44 731 l 640 731 l 640 581 l 453 363 q 363 258 408 310 q 271 154 317 207 l 271 151 q 319 152 299 151 q 360 153 340 153 q 399 153 379 153 q 443 153 418 153 l 658 153 l 658 0 l 29 0 l 29 146 m 426 1001 l 426 839 l 258 839 l 258 1001 l 426 1001 l 426 1001 z "},"Ż":{"ha":846,"x_min":31,"x_max":811,"o":"m 31 160 l 535 838 l 535 839 q 433 837 476 838 q 342 836 390 836 l 51 836 l 51 1014 l 793 1014 l 793 850 l 290 175 l 290 174 q 366 175 331 175 q 442 175 401 175 l 811 175 l 811 0 l 31 0 l 31 160 m 501 1282 l 501 1119 l 332 1119 l 332 1282 l 501 1282 l 501 1282 z "},"ź":{"ha":696,"x_min":29,"x_max":658,"o":"m 29 146 l 244 393 q 320 481 281 436 q 403 574 360 525 l 403 576 q 356 574 378 575 q 308 574 333 574 l 44 574 l 44 731 l 640 731 l 640 581 l 453 363 q 363 258 408 310 q 271 154 317 207 l 271 151 q 319 152 299 151 q 360 153 340 153 q 399 153 379 153 q 443 153 418 153 l 658 153 l 658 0 l 29 0 l 29 146 m 394 831 l 221 831 l 325 1014 l 558 1014 l 394 831 z "},"Ź":{"ha":846,"x_min":31,"x_max":811,"o":"m 31 160 l 535 838 l 535 839 q 433 837 476 838 q 342 836 390 836 l 51 836 l 51 1014 l 793 1014 l 793 850 l 290 175 l 290 174 q 366 175 331 175 q 442 175 401 175 l 811 175 l 811 0 l 31 0 l 31 160 m 638 1294 l 474 1111 l 300 1111 q 352 1203 326 1157 q 403 1294 378 1249 l 638 1294 z "},"Ķ":{"ha":933,"x_min":101,"x_max":961,"o":"m 101 1014 l 308 1014 l 308 776 q 308 671 308 724 q 307 564 308 618 q 394 668 346 611 q 501 793 443 725 l 693 1014 l 946 1014 l 540 557 l 961 0 l 703 0 l 397 415 l 308 313 l 308 0 l 101 0 l 101 1014 m 404 -62 l 582 -62 l 582 -172 q 574 -237 582 -210 q 547 -284 567 -265 q 493 -312 528 -303 q 404 -321 458 -321 l 404 -250 q 463 -239 443 -249 q 482 -200 482 -229 l 482 -197 l 404 -197 l 404 -62 z "},"ķ":{"ha":794,"x_min":89,"x_max":808,"o":"m 89 1014 l 282 1014 l 282 653 q 281 524 282 586 q 281 417 281 463 q 365 515 325 471 q 438 599 404 558 l 550 731 l 788 731 l 489 408 l 808 0 l 563 0 l 357 281 l 282 200 l 282 0 l 89 0 l 89 1014 m 325 -62 l 503 -62 l 503 -172 q 495 -237 503 -210 q 468 -284 488 -265 q 414 -312 449 -303 q 325 -321 379 -321 l 325 -250 q 383 -239 364 -249 q 403 -200 403 -229 l 403 -197 l 325 -197 l 325 -62 z "},"ĸ":{"ha":794,"x_min":89,"x_max":808,"o":"m 89 731 l 282 731 l 282 569 q 282 517 282 536 q 281 483 282 497 q 281 453 281 468 q 281 417 281 439 q 365 515 325 471 q 438 599 404 558 l 550 731 l 788 731 l 489 408 l 808 0 l 563 0 l 357 281 l 282 200 l 282 0 l 89 0 l 89 731 z "},"Ĺ":{"ha":779,"x_min":101,"x_max":761,"o":"m 101 1014 l 311 1014 l 311 178 l 761 178 l 761 0 l 101 0 l 101 1014 m 457 1294 l 293 1111 l 119 1111 q 172 1203 146 1157 q 222 1294 197 1249 l 457 1294 z "},"ĺ":{"ha":375,"x_min":89,"x_max":433,"o":"m 89 1014 l 286 1014 l 286 0 l 89 0 l 89 1014 m 433 1294 l 269 1111 l 96 1111 q 148 1203 122 1157 q 199 1294 174 1249 l 433 1294 z "},"Ľ":{"ha":779,"x_min":101,"x_max":761,"o":"m 101 1014 l 311 1014 l 311 178 l 761 178 l 761 0 l 101 0 l 101 1014 m 671 1014 l 586 774 l 417 774 l 463 1014 l 671 1014 z "},"Ļ":{"ha":779,"x_min":101,"x_max":761,"o":"m 101 1014 l 311 1014 l 311 178 l 761 178 l 761 0 l 101 0 l 101 1014 m 340 -62 l 518 -62 l 518 -172 q 510 -237 518 -210 q 483 -284 503 -265 q 429 -312 464 -303 q 340 -321 394 -321 l 340 -250 q 399 -239 379 -249 q 418 -200 418 -229 l 418 -197 l 340 -197 l 340 -62 z "},"ļ":{"ha":375,"x_min":89,"x_max":286,"o":"m 89 1014 l 286 1014 l 286 0 l 89 0 l 89 1014 m 100 -62 l 278 -62 l 278 -172 q 270 -237 278 -210 q 243 -284 263 -265 q 189 -312 224 -303 q 100 -321 154 -321 l 100 -250 q 158 -239 139 -249 q 178 -200 178 -229 l 178 -197 l 100 -197 l 100 -62 z "},"Ŀ":{"ha":779,"x_min":101,"x_max":761,"o":"m 101 1014 l 311 1014 l 311 178 l 761 178 l 761 0 l 101 0 l 101 1014 m 617 585 l 617 422 l 449 422 l 449 585 l 617 585 l 617 585 z "},"ŀ":{"ha":526,"x_min":89,"x_max":532,"o":"m 89 1014 l 286 1014 l 286 0 l 89 0 l 89 1014 m 532 585 l 532 422 l 364 422 l 364 585 l 532 585 l 532 585 z "},"Ń":{"ha":1083,"x_min":101,"x_max":982,"o":"m 101 1014 l 372 1014 l 651 507 q 726 366 696 428 q 782 249 756 304 l 786 249 q 783 401 783 322 q 782 549 782 479 l 782 1014 l 982 1014 l 982 0 l 719 0 l 458 467 q 411 553 435 508 q 367 639 388 597 q 328 716 346 681 q 300 775 311 751 l 297 775 q 299 717 297 751 q 301 644 300 682 q 302 570 301 607 q 303 506 303 533 l 303 0 l 101 0 l 101 1014 m 749 1294 l 585 1111 l 411 1111 q 463 1203 438 1157 q 514 1294 489 1249 l 749 1294 z "},"ń":{"ha":857,"x_min":88,"x_max":769,"o":"m 89 592 q 89 660 89 619 q 88 731 89 701 l 274 731 l 274 701 q 274 672 274 688 q 272 643 274 657 l 275 643 q 366 721 307 692 q 504 750 425 750 q 699 676 628 750 q 769 449 769 601 l 769 0 l 575 0 l 575 353 q 546 531 575 474 q 439 588 517 588 q 319 533 356 588 q 283 365 283 479 l 283 0 l 89 0 l 89 592 m 503 831 l 329 831 l 433 1014 l 667 1014 l 503 831 z "},"Ň":{"ha":1083,"x_min":101,"x_max":982,"o":"m 101 1014 l 372 1014 l 651 507 q 726 366 696 428 q 782 249 756 304 l 786 249 q 783 401 783 322 q 782 549 782 479 l 782 1014 l 982 1014 l 982 0 l 719 0 l 458 467 q 411 553 435 508 q 367 639 388 597 q 328 716 346 681 q 300 775 311 751 l 297 775 q 299 717 297 751 q 301 644 300 682 q 302 570 301 607 q 303 506 303 533 l 303 0 l 101 0 l 101 1014 m 532 1206 q 574 1249 554 1228 q 617 1294 594 1271 l 785 1294 l 643 1111 l 419 1111 l 279 1294 l 447 1294 l 531 1206 l 532 1206 l 532 1206 z "},"ň":{"ha":857,"x_min":88,"x_max":769,"o":"m 89 592 q 89 660 89 619 q 88 731 89 701 l 274 731 l 274 701 q 274 672 274 688 q 272 643 274 657 l 275 643 q 366 721 307 692 q 504 750 425 750 q 699 676 628 750 q 769 449 769 601 l 769 0 l 575 0 l 575 353 q 546 531 575 474 q 439 588 517 588 q 319 533 356 588 q 283 365 283 479 l 283 0 l 89 0 l 89 592 m 540 1014 l 707 1014 l 567 831 l 343 831 l 201 1014 l 369 1014 q 412 968 392 990 q 456 925 432 946 l 540 1014 z "},"Ņ":{"ha":1083,"x_min":101,"x_max":982,"o":"m 101 1014 l 372 1014 l 651 507 q 726 366 696 428 q 782 249 756 304 l 786 249 q 783 401 783 322 q 782 549 782 479 l 782 1014 l 982 1014 l 982 0 l 719 0 l 458 467 q 411 553 435 508 q 367 639 388 597 q 328 716 346 681 q 300 775 311 751 l 297 775 q 299 717 297 751 q 301 644 300 682 q 302 570 301 607 q 303 506 303 533 l 303 0 l 101 0 l 101 1014 m 460 -62 l 638 -62 l 638 -172 q 630 -237 638 -210 q 603 -284 622 -265 q 549 -312 583 -303 q 460 -321 514 -321 l 460 -250 q 518 -239 499 -249 q 538 -200 538 -229 l 538 -197 l 460 -197 l 460 -62 z "},"ņ":{"ha":857,"x_min":88,"x_max":769,"o":"m 89 592 q 89 660 89 619 q 88 731 89 701 l 274 731 l 274 701 q 274 672 274 688 q 272 643 274 657 l 275 643 q 366 721 307 692 q 504 750 425 750 q 699 676 628 750 q 769 449 769 601 l 769 0 l 575 0 l 575 353 q 546 531 575 474 q 439 588 517 588 q 319 533 356 588 q 283 365 283 479 l 283 0 l 89 0 l 89 592 m 344 -62 l 522 -62 l 522 -172 q 515 -237 522 -210 q 488 -284 507 -265 q 433 -312 468 -303 q 344 -321 399 -321 l 344 -250 q 403 -239 383 -249 q 422 -200 422 -229 l 422 -197 l 344 -197 l 344 -62 z "},"ŉ":{"ha":1007,"x_min":0,"x_max":919,"o":"m 239 592 q 239 660 239 619 q 238 731 239 701 l 424 731 l 424 701 q 424 672 424 688 q 422 643 424 657 l 425 643 q 516 721 457 692 q 654 750 575 750 q 849 676 778 750 q 919 449 919 601 l 919 0 l 725 0 l 725 353 q 696 531 725 474 q 589 588 667 588 q 469 533 506 588 q 433 365 433 479 l 433 0 l 239 0 l 239 592 m 0 1014 l 217 1014 l 217 815 q 167 653 217 708 q 0 590 117 597 l 0 692 q 74 723 49 699 q 99 796 99 747 l 99 803 l 0 803 l 0 1014 z "},"Ŏ":{"ha":1124,"x_min":50,"x_max":1074,"o":"m 561 154 q 685 181 631 154 q 779 254 740 207 q 838 367 818 301 q 858 508 858 432 q 838 647 858 583 q 779 758 818 711 q 685 831 740 804 q 561 857 631 857 q 437 831 492 857 q 344 758 382 804 q 285 647 306 711 q 265 508 265 583 q 285 367 265 432 q 344 254 306 301 q 437 181 382 207 q 561 154 492 154 m 563 -19 q 353 19 447 -19 q 191 126 258 57 q 87 291 124 194 q 50 506 50 388 q 88 721 50 624 q 192 888 125 818 q 353 996 260 957 q 561 1035 447 1035 q 769 996 675 1035 q 931 888 863 957 q 1036 721 999 818 q 1074 506 1074 624 q 1037 291 1074 388 q 933 126 1000 194 q 772 19 867 57 q 563 -19 678 -19 m 568 1231 q 682 1300 650 1231 q 739 1290 711 1294 q 796 1278 767 1285 q 717 1151 776 1194 q 568 1107 658 1107 q 419 1151 479 1107 q 340 1278 360 1194 q 398 1290 369 1285 q 454 1300 426 1294 q 568 1231 483 1231 z "},"ŏ":{"ha":867,"x_min":49,"x_max":818,"o":"m 244 365 q 293 200 244 261 q 433 139 342 139 q 572 200 524 139 q 619 364 619 261 q 572 528 619 464 q 433 593 524 593 q 293 529 342 593 q 244 365 244 465 m 49 365 q 76 522 49 450 q 156 644 104 593 q 278 723 207 694 q 435 751 349 751 q 590 723 519 751 q 712 644 661 694 q 790 522 763 593 q 818 365 818 450 q 790 209 818 279 q 711 88 763 139 q 589 10 660 38 q 433 -18 518 -18 q 276 10 347 -18 q 155 88 206 38 q 76 209 104 139 q 49 365 49 279 m 439 950 q 553 1019 521 950 q 609 1009 581 1014 q 667 997 638 1004 q 588 870 647 914 q 439 826 529 826 q 290 870 349 826 q 213 997 231 914 q 268 1009 240 1004 q 325 1019 296 1014 q 439 950 354 950 z "},"Ő":{"ha":1124,"x_min":50,"x_max":1074,"o":"m 561 154 q 685 181 631 154 q 779 254 740 207 q 838 367 818 301 q 858 508 858 432 q 838 647 858 583 q 779 758 818 711 q 685 831 740 804 q 561 857 631 857 q 437 831 492 857 q 344 758 382 804 q 285 647 306 711 q 265 508 265 583 q 285 367 265 432 q 344 254 306 301 q 437 181 382 207 q 561 154 492 154 m 563 -19 q 353 19 447 -19 q 191 126 258 57 q 87 291 124 194 q 50 506 50 388 q 88 721 50 624 q 192 888 125 818 q 353 996 260 957 q 561 1035 447 1035 q 769 996 675 1035 q 931 888 863 957 q 1036 721 999 818 q 1074 506 1074 624 q 1037 291 1074 388 q 933 126 1000 194 q 772 19 867 57 q 563 -19 678 -19 m 636 1294 l 472 1111 l 311 1111 l 413 1294 l 636 1294 m 933 1294 l 765 1111 l 603 1111 l 711 1294 l 933 1294 z "},"ő":{"ha":867,"x_min":49,"x_max":818,"o":"m 244 365 q 293 200 244 261 q 433 139 342 139 q 572 200 524 139 q 619 364 619 261 q 572 528 619 464 q 433 593 524 593 q 293 529 342 593 q 244 365 244 465 m 49 365 q 76 522 49 450 q 156 644 104 593 q 278 723 207 694 q 435 751 349 751 q 590 723 519 751 q 712 644 661 694 q 790 522 763 593 q 818 365 818 450 q 790 209 818 279 q 711 88 763 139 q 589 10 660 38 q 433 -18 518 -18 q 276 10 347 -18 q 155 88 206 38 q 76 209 104 139 q 49 365 49 279 m 501 1014 l 339 831 l 176 831 q 227 922 201 876 q 279 1014 253 968 l 501 1014 m 800 1014 l 631 831 l 468 831 l 576 1014 l 800 1014 z "},"Ō":{"ha":1124,"x_min":50,"x_max":1074,"o":"m 561 154 q 685 181 631 154 q 779 254 740 207 q 838 367 818 301 q 858 508 858 432 q 838 647 858 583 q 779 758 818 711 q 685 831 740 804 q 561 857 631 857 q 437 831 492 857 q 344 758 382 804 q 285 647 306 711 q 265 508 265 583 q 285 367 265 432 q 344 254 306 301 q 437 181 382 207 q 561 154 492 154 m 563 -19 q 353 19 447 -19 q 191 126 258 57 q 87 291 124 194 q 50 506 50 388 q 88 721 50 624 q 192 888 125 818 q 353 996 260 957 q 561 1035 447 1035 q 769 996 675 1035 q 931 888 863 957 q 1036 721 999 818 q 1074 506 1074 624 q 1037 291 1074 388 q 933 126 1000 194 q 772 19 867 57 q 563 -19 678 -19 m 376 1146 l 376 1276 l 757 1276 l 757 1146 l 376 1146 z "},"ō":{"ha":867,"x_min":49,"x_max":818,"o":"m 244 365 q 293 200 244 261 q 433 139 342 139 q 572 200 524 139 q 619 364 619 261 q 572 528 619 464 q 433 593 524 593 q 293 529 342 593 q 244 365 244 465 m 49 365 q 76 522 49 450 q 156 644 104 593 q 278 723 207 694 q 435 751 349 751 q 590 723 519 751 q 712 644 661 694 q 790 522 763 593 q 818 365 818 450 q 790 209 818 279 q 711 88 763 139 q 589 10 660 38 q 433 -18 518 -18 q 276 10 347 -18 q 155 88 206 38 q 76 209 104 139 q 49 365 49 279 m 246 864 l 246 994 l 626 994 l 626 864 l 246 864 z "},"Ǿ":{"ha":1118,"x_min":50,"x_max":1067,"o":"m 982 1015 q 947 960 964 988 q 910 906 929 933 q 1026 734 985 835 q 1067 508 1067 633 q 1031 292 1067 389 q 928 126 994 194 q 767 19 861 57 q 557 -19 674 -19 q 436 -8 493 -19 q 329 26 379 4 l 254 -86 l 117 -1 l 196 117 q 88 287 125 188 q 50 508 50 386 q 87 722 50 625 q 190 889 124 819 q 350 997 257 958 q 557 1036 443 1036 q 772 993 678 1036 l 843 1101 l 982 1015 m 847 508 q 792 728 847 640 l 433 183 q 554 157 489 157 q 678 183 624 157 q 769 254 732 208 q 827 365 807 300 q 847 508 847 429 m 557 858 q 433 832 486 858 q 342 758 379 806 q 288 644 306 710 q 269 500 269 578 q 281 390 269 442 q 315 300 293 339 l 668 835 q 557 858 618 858 m 786 1294 l 622 1111 l 449 1111 q 501 1203 475 1157 q 551 1294 526 1249 l 786 1294 z "},"ǿ":{"ha":867,"x_min":49,"x_max":818,"o":"m 479 831 l 306 831 l 410 1014 l 643 1014 l 479 831 m 701 653 q 788 528 757 600 q 818 365 818 456 q 790 209 818 279 q 711 88 763 139 q 589 10 660 38 q 433 -18 518 -18 q 348 -10 389 -18 q 271 11 307 -3 l 206 -86 l 88 -14 l 154 88 q 76 209 104 139 q 49 365 49 279 q 76 522 49 450 q 156 644 104 593 q 278 723 207 694 q 435 751 349 751 q 579 726 513 751 l 643 824 l 765 749 l 701 653 m 621 364 q 593 493 621 438 l 364 150 q 433 139 397 139 q 572 200 524 139 q 621 364 621 261 m 243 365 q 263 251 243 301 l 485 586 q 433 593 460 593 q 292 529 342 593 q 243 365 243 465 z "},"Ŕ":{"ha":951,"x_min":101,"x_max":900,"o":"m 101 1014 l 529 1014 q 798 940 710 1014 q 886 732 886 867 q 838 565 886 626 q 718 475 790 503 q 807 396 776 449 q 850 247 838 343 l 860 172 q 865 128 863 151 q 872 83 868 106 q 883 42 876 61 q 900 11 889 24 l 900 0 l 688 0 q 668 59 674 25 q 657 142 663 93 l 651 192 q 635 282 646 243 q 603 347 625 321 q 542 387 581 374 q 440 400 503 400 l 304 400 l 304 0 l 101 0 l 101 1014 m 304 563 l 493 563 q 626 596 578 563 q 675 708 675 629 q 662 774 675 747 q 624 815 649 800 q 567 838 600 831 q 493 844 533 844 l 304 844 l 304 563 m 665 1294 l 501 1111 l 328 1111 q 380 1203 354 1157 q 431 1294 406 1249 l 665 1294 z "},"ŕ":{"ha":532,"x_min":88,"x_max":524,"o":"m 89 596 q 89 667 89 636 q 88 731 89 699 l 272 731 l 272 697 q 272 662 272 679 q 271 628 272 644 l 275 628 q 482 747 332 747 q 505 747 494 747 q 524 744 515 746 l 521 563 q 494 568 507 567 q 469 569 482 569 q 381 555 417 569 q 322 508 344 540 q 291 427 300 476 q 282 308 282 378 l 282 0 l 89 0 l 89 596 m 271 831 l 97 831 l 201 1014 l 435 1014 l 271 831 z "},"Ř":{"ha":951,"x_min":101,"x_max":900,"o":"m 101 1014 l 529 1014 q 798 940 710 1014 q 886 732 886 867 q 838 565 886 626 q 718 475 790 503 q 807 396 776 449 q 850 247 838 343 l 860 172 q 865 128 863 151 q 872 83 868 106 q 883 42 876 61 q 900 11 889 24 l 900 0 l 688 0 q 668 59 674 25 q 657 142 663 93 l 651 192 q 635 282 646 243 q 603 347 625 321 q 542 387 581 374 q 440 400 503 400 l 304 400 l 304 0 l 101 0 l 101 1014 m 304 563 l 493 563 q 626 596 578 563 q 675 708 675 629 q 662 774 675 747 q 624 815 649 800 q 567 838 600 831 q 493 844 533 844 l 304 844 l 304 563 m 461 1206 q 503 1249 483 1228 q 546 1294 524 1271 l 714 1294 l 572 1111 l 349 1111 l 208 1294 l 376 1294 l 460 1206 l 461 1206 l 461 1206 z "},"ř":{"ha":532,"x_min":-15,"x_max":524,"o":"m 89 596 q 89 667 89 636 q 88 731 89 699 l 272 731 l 272 697 q 272 662 272 679 q 271 628 272 644 l 275 628 q 482 747 332 747 q 505 747 494 747 q 524 744 515 746 l 521 563 q 494 568 507 567 q 469 569 482 569 q 381 555 417 569 q 322 508 344 540 q 291 427 300 476 q 282 308 282 378 l 282 0 l 89 0 l 89 596 m 324 1014 l 490 1014 l 350 831 l 126 831 l -15 1014 l 153 1014 q 195 968 175 990 q 239 925 215 946 l 324 1014 z "},"Ŗ":{"ha":951,"x_min":101,"x_max":900,"o":"m 101 1014 l 529 1014 q 798 940 710 1014 q 886 732 886 867 q 838 565 886 626 q 718 475 790 503 q 807 396 776 449 q 850 247 838 343 l 860 172 q 865 128 863 151 q 872 83 868 106 q 883 42 876 61 q 900 11 889 24 l 900 0 l 688 0 q 668 59 674 25 q 657 142 663 93 l 651 192 q 635 282 646 243 q 603 347 625 321 q 542 387 581 374 q 440 400 503 400 l 304 400 l 304 0 l 101 0 l 101 1014 m 304 563 l 493 563 q 626 596 578 563 q 675 708 675 629 q 662 774 675 747 q 624 815 649 800 q 567 838 600 831 q 493 844 533 844 l 304 844 l 304 563 m 396 -62 l 574 -62 l 574 -172 q 566 -237 574 -210 q 539 -284 558 -265 q 485 -312 519 -303 q 396 -321 450 -321 l 396 -250 q 454 -239 435 -249 q 474 -200 474 -229 l 474 -197 l 396 -197 l 396 -62 z "},"ŗ":{"ha":532,"x_min":88,"x_max":524,"o":"m 89 596 q 89 667 89 636 q 88 731 89 699 l 272 731 l 272 697 q 272 662 272 679 q 271 628 272 644 l 275 628 q 482 747 332 747 q 505 747 494 747 q 524 744 515 746 l 521 563 q 494 568 507 567 q 469 569 482 569 q 381 555 417 569 q 322 508 344 540 q 291 427 300 476 q 282 308 282 378 l 282 0 l 89 0 l 89 596 m 99 -62 l 276 -62 l 276 -172 q 269 -237 276 -210 q 242 -284 261 -265 q 188 -312 222 -303 q 99 -321 153 -321 l 99 -250 q 157 -239 138 -249 q 176 -200 176 -229 l 176 -197 l 99 -197 l 99 -62 z "},"Ś":{"ha":872,"x_min":21,"x_max":825,"o":"m 228 313 q 297 191 246 233 q 432 149 349 149 q 560 183 513 149 q 608 275 608 217 q 576 352 608 326 q 468 400 543 378 l 364 433 q 231 481 289 456 q 135 540 174 506 q 76 622 96 575 q 56 733 56 668 q 82 857 56 801 q 158 952 108 913 q 278 1013 208 992 q 436 1033 349 1033 q 681 965 583 1033 q 804 772 778 897 l 610 731 q 548 831 594 797 q 429 865 501 865 q 361 856 390 865 q 313 829 332 846 q 283 792 293 813 q 274 749 274 771 q 312 667 274 696 q 443 611 350 638 l 529 586 q 649 544 594 567 q 742 487 703 521 q 803 406 782 453 q 825 293 825 360 q 797 161 825 219 q 716 63 768 103 q 590 1 664 22 q 425 -21 515 -21 q 156 55 261 -21 q 21 265 50 131 l 228 313 m 649 1294 l 485 1111 l 311 1111 q 363 1203 338 1157 q 414 1294 389 1249 l 649 1294 z "},"ś":{"ha":719,"x_min":26,"x_max":681,"o":"m 490 514 q 351 608 464 608 q 274 589 304 608 q 244 536 244 569 q 275 483 244 500 q 368 451 306 467 l 442 433 q 542 402 497 419 q 617 360 586 385 q 664 299 647 335 q 681 215 681 264 q 656 113 681 157 q 588 40 632 69 q 485 -3 544 11 q 354 -18 425 -18 q 138 34 225 -18 q 26 193 50 86 l 200 232 q 257 150 219 179 q 363 121 294 121 q 446 139 408 121 q 483 200 483 157 q 453 253 483 236 q 360 285 422 269 l 274 307 q 181 338 222 321 q 110 378 139 354 q 65 438 81 403 q 50 522 50 472 q 73 619 50 576 q 136 690 96 661 q 232 735 176 719 q 354 750 288 750 q 558 699 478 750 q 661 550 639 649 l 490 514 m 419 831 l 246 831 l 350 1014 l 583 1014 l 419 831 z "},"Ş":{"ha":872,"x_min":21,"x_max":825,"o":"m 228 313 q 297 191 246 233 q 432 149 349 149 q 560 183 513 149 q 608 275 608 217 q 576 352 608 326 q 468 400 543 378 l 364 433 q 231 481 289 456 q 135 540 174 506 q 76 622 96 575 q 56 733 56 668 q 82 857 56 801 q 158 952 108 913 q 278 1013 208 992 q 436 1033 349 1033 q 681 965 583 1033 q 804 772 778 897 l 610 731 q 548 831 594 797 q 429 865 501 865 q 361 856 390 865 q 313 829 332 846 q 283 792 293 813 q 274 749 274 771 q 312 667 274 696 q 443 611 350 638 l 529 586 q 649 544 594 567 q 742 487 703 521 q 803 406 782 453 q 825 293 825 360 q 797 161 825 219 q 716 63 768 103 q 590 1 664 22 q 425 -21 515 -21 q 156 55 261 -21 q 21 265 50 131 l 228 313 m 436 -249 l 217 -249 l 367 -65 l 543 -65 l 436 -249 z "},"ş":{"ha":719,"x_min":26,"x_max":681,"o":"m 490 514 q 351 608 464 608 q 274 589 304 608 q 244 536 244 569 q 275 483 244 500 q 368 451 306 467 l 442 433 q 542 402 497 419 q 617 360 586 385 q 664 299 647 335 q 681 215 681 264 q 656 113 681 157 q 588 40 632 69 q 485 -3 544 11 q 354 -18 425 -18 q 138 34 225 -18 q 26 193 50 86 l 200 232 q 257 150 219 179 q 363 121 294 121 q 446 139 408 121 q 483 200 483 157 q 453 253 483 236 q 360 285 422 269 l 274 307 q 181 338 222 321 q 110 378 139 354 q 65 438 81 403 q 50 522 50 472 q 73 619 50 576 q 136 690 96 661 q 232 735 176 719 q 354 750 288 750 q 558 699 478 750 q 661 550 639 649 l 490 514 m 346 -249 l 126 -249 l 276 -65 l 453 -65 l 346 -249 z "},"Ŝ":{"ha":872,"x_min":21,"x_max":825,"o":"m 228 313 q 297 191 246 233 q 432 149 349 149 q 560 183 513 149 q 608 275 608 217 q 576 352 608 326 q 468 400 543 378 l 364 433 q 231 481 289 456 q 135 540 174 506 q 76 622 96 575 q 56 733 56 668 q 82 857 56 801 q 158 952 108 913 q 278 1013 208 992 q 436 1033 349 1033 q 681 965 583 1033 q 804 772 778 897 l 610 731 q 548 831 594 797 q 429 865 501 865 q 361 856 390 865 q 313 829 332 846 q 283 792 293 813 q 274 749 274 771 q 312 667 274 696 q 443 611 350 638 l 529 586 q 649 544 594 567 q 742 487 703 521 q 803 406 782 453 q 825 293 825 360 q 797 161 825 219 q 716 63 768 103 q 590 1 664 22 q 425 -21 515 -21 q 156 55 261 -21 q 21 265 50 131 l 228 313 m 356 1111 l 188 1111 l 328 1294 l 551 1294 l 693 1111 l 525 1111 l 440 1200 l 439 1200 l 356 1111 z "},"ŝ":{"ha":719,"x_min":26,"x_max":681,"o":"m 490 514 q 351 608 464 608 q 274 589 304 608 q 244 536 244 569 q 275 483 244 500 q 368 451 306 467 l 442 433 q 542 402 497 419 q 617 360 586 385 q 664 299 647 335 q 681 215 681 264 q 656 113 681 157 q 588 40 632 69 q 485 -3 544 11 q 354 -18 425 -18 q 138 34 225 -18 q 26 193 50 86 l 200 232 q 257 150 219 179 q 363 121 294 121 q 446 139 408 121 q 483 200 483 157 q 453 253 483 236 q 360 285 422 269 l 274 307 q 181 338 222 321 q 110 378 139 354 q 65 438 81 403 q 50 522 50 472 q 73 619 50 576 q 136 690 96 661 q 232 735 176 719 q 354 750 288 750 q 558 699 478 750 q 661 550 639 649 l 490 514 m 271 831 l 103 831 l 244 1014 l 468 1014 l 608 831 l 442 831 l 356 919 l 271 831 z "},"Ș":{"ha":872,"x_min":21,"x_max":825,"o":"m 228 313 q 297 191 246 233 q 432 149 349 149 q 560 183 513 149 q 608 275 608 217 q 576 352 608 326 q 468 400 543 378 l 364 433 q 231 481 289 456 q 135 540 174 506 q 76 622 96 575 q 56 733 56 668 q 82 857 56 801 q 158 952 108 913 q 278 1013 208 992 q 436 1033 349 1033 q 681 965 583 1033 q 804 772 778 897 l 610 731 q 548 831 594 797 q 429 865 501 865 q 361 856 390 865 q 313 829 332 846 q 283 792 293 813 q 274 749 274 771 q 312 667 274 696 q 443 611 350 638 l 529 586 q 649 544 594 567 q 742 487 703 521 q 803 406 782 453 q 825 293 825 360 q 797 161 825 219 q 716 63 768 103 q 590 1 664 22 q 425 -21 515 -21 q 156 55 261 -21 q 21 265 50 131 l 228 313 m 343 -62 l 521 -62 l 521 -172 q 513 -237 521 -210 q 486 -284 506 -265 q 432 -312 467 -303 q 343 -321 397 -321 l 343 -250 q 401 -239 382 -249 q 421 -200 421 -229 l 421 -197 l 343 -197 l 343 -62 z "},"ș":{"ha":719,"x_min":26,"x_max":681,"o":"m 490 514 q 351 608 464 608 q 274 589 304 608 q 244 536 244 569 q 275 483 244 500 q 368 451 306 467 l 442 433 q 542 402 497 419 q 617 360 586 385 q 664 299 647 335 q 681 215 681 264 q 656 113 681 157 q 588 40 632 69 q 485 -3 544 11 q 354 -18 425 -18 q 138 34 225 -18 q 26 193 50 86 l 200 232 q 257 150 219 179 q 363 121 294 121 q 446 139 408 121 q 483 200 483 157 q 453 253 483 236 q 360 285 422 269 l 274 307 q 181 338 222 321 q 110 378 139 354 q 65 438 81 403 q 50 522 50 472 q 73 619 50 576 q 136 690 96 661 q 232 735 176 719 q 354 750 288 750 q 558 699 478 750 q 661 550 639 649 l 490 514 m 271 -62 l 449 -62 l 449 -172 q 441 -237 449 -210 q 414 -284 433 -265 q 360 -312 394 -303 q 271 -321 325 -321 l 271 -250 q 329 -239 310 -249 q 349 -200 349 -229 l 349 -197 l 271 -197 l 271 -62 z "},"Ť":{"ha":806,"x_min":10,"x_max":797,"o":"m 299 836 l 10 836 l 10 1014 l 797 1014 l 797 836 l 510 836 l 510 0 l 299 0 l 299 836 m 404 1206 q 447 1249 426 1228 q 489 1294 467 1271 l 657 1294 l 515 1111 l 292 1111 l 151 1294 l 319 1294 l 403 1206 l 404 1206 l 404 1206 z "},"ť":{"ha":600,"x_min":-3,"x_max":642,"o":"m 457 582 l 311 582 l 311 289 q 319 175 311 219 q 341 103 326 131 q 377 60 356 75 q 426 33 399 44 l 426 0 l 194 0 q 157 31 172 13 q 133 77 142 50 q 120 142 124 104 q 117 231 117 179 l 117 582 l -3 582 l -3 731 l 117 731 l 117 931 l 311 931 l 311 731 l 457 731 l 457 582 m 642 1014 l 557 774 l 388 774 l 433 1014 l 642 1014 z "},"Ţ":{"ha":806,"x_min":10,"x_max":797,"o":"m 299 836 l 10 836 l 10 1014 l 797 1014 l 797 836 l 510 836 l 510 0 l 299 0 l 299 836 m 317 -62 l 494 -62 l 494 -172 q 487 -237 494 -210 q 460 -284 479 -265 q 406 -312 440 -303 q 317 -321 371 -321 l 317 -250 q 375 -239 356 -249 q 394 -200 394 -229 l 394 -197 l 317 -197 l 317 -62 z "},"ţ":{"ha":474,"x_min":-3,"x_max":457,"o":"m 457 582 l 311 582 l 311 289 q 319 175 311 219 q 341 103 326 131 q 377 60 356 75 q 426 33 399 44 l 426 0 l 194 0 q 157 31 172 13 q 133 77 142 50 q 120 142 124 104 q 117 231 117 179 l 117 582 l -3 582 l -3 731 l 117 731 l 117 931 l 311 931 l 311 731 l 457 731 l 457 582 m 160 -62 l 338 -62 l 338 -172 q 330 -237 338 -210 q 303 -284 322 -265 q 249 -312 283 -303 q 160 -321 214 -321 l 160 -250 q 218 -239 199 -249 q 238 -200 238 -229 l 238 -197 l 160 -197 l 160 -62 z "},"Ŭ":{"ha":1001,"x_min":93,"x_max":907,"o":"m 500 -19 q 324 3 400 -19 q 197 75 247 25 q 119 205 146 125 q 93 400 93 285 l 93 1014 l 303 1014 l 303 400 q 349 218 303 279 q 500 157 396 157 q 651 218 604 157 q 697 400 697 279 l 697 1014 l 907 1014 l 907 400 q 880 203 907 283 q 801 74 853 124 q 673 3 749 25 q 500 -19 597 -19 m 500 1231 q 614 1300 582 1231 q 671 1290 643 1294 q 728 1278 699 1285 q 649 1151 708 1194 q 500 1107 590 1107 q 351 1151 411 1107 q 272 1278 292 1194 q 330 1290 301 1285 q 386 1300 358 1294 q 500 1231 415 1231 z "},"ŭ":{"ha":835,"x_min":72,"x_max":749,"o":"m 747 113 q 747 58 747 85 q 749 0 747 32 l 563 0 l 563 29 q 563 56 563 42 q 564 86 563 71 l 561 86 q 472 10 528 38 q 336 -17 415 -17 q 143 52 214 -17 q 72 271 72 121 l 72 731 l 267 731 l 267 319 q 301 183 267 224 q 403 142 336 142 q 515 192 478 142 q 553 338 553 242 l 553 731 l 747 731 l 747 113 m 417 950 q 531 1019 499 950 q 587 1009 558 1014 q 644 997 615 1004 q 566 870 625 914 q 417 826 507 826 q 267 870 326 826 q 190 997 208 914 q 246 1009 218 1004 q 303 1019 274 1014 q 417 950 332 950 z "},"Ű":{"ha":1001,"x_min":93,"x_max":907,"o":"m 500 -19 q 324 3 400 -19 q 197 75 247 25 q 119 205 146 125 q 93 400 93 285 l 93 1014 l 303 1014 l 303 400 q 349 218 303 279 q 500 157 396 157 q 651 218 604 157 q 697 400 697 279 l 697 1014 l 907 1014 l 907 400 q 880 203 907 283 q 801 74 853 124 q 673 3 749 25 q 500 -19 597 -19 m 553 1294 l 389 1111 l 228 1111 l 329 1294 l 553 1294 m 850 1294 l 682 1111 l 519 1111 l 628 1294 l 850 1294 z "},"ű":{"ha":835,"x_min":72,"x_max":771,"o":"m 747 113 q 747 58 747 85 q 749 0 747 32 l 563 0 l 563 29 q 563 56 563 42 q 564 86 563 71 l 561 86 q 472 10 528 38 q 336 -17 415 -17 q 143 52 214 -17 q 72 271 72 121 l 72 731 l 267 731 l 267 319 q 301 183 267 224 q 403 142 336 142 q 515 192 478 142 q 553 338 553 242 l 553 731 l 747 731 l 747 113 m 472 1014 l 310 831 l 147 831 q 198 922 172 876 q 250 1014 224 968 l 472 1014 m 771 1014 l 601 831 l 439 831 l 547 1014 l 771 1014 z "},"Ū":{"ha":1001,"x_min":93,"x_max":907,"o":"m 500 -19 q 324 3 400 -19 q 197 75 247 25 q 119 205 146 125 q 93 400 93 285 l 93 1014 l 303 1014 l 303 400 q 349 218 303 279 q 500 157 396 157 q 651 218 604 157 q 697 400 697 279 l 697 1014 l 907 1014 l 907 400 q 880 203 907 283 q 801 74 853 124 q 673 3 749 25 q 500 -19 597 -19 m 311 1146 l 311 1276 l 692 1276 l 692 1146 l 311 1146 z "},"ū":{"ha":835,"x_min":72,"x_max":749,"o":"m 747 113 q 747 58 747 85 q 749 0 747 32 l 563 0 l 563 29 q 563 56 563 42 q 564 86 563 71 l 561 86 q 472 10 528 38 q 336 -17 415 -17 q 143 52 214 -17 q 72 271 72 121 l 72 731 l 267 731 l 267 319 q 301 183 267 224 q 403 142 336 142 q 515 192 478 142 q 553 338 553 242 l 553 731 l 747 731 l 747 113 m 218 864 l 218 994 l 599 994 l 599 864 l 218 864 z "},"Ų":{"ha":1001,"x_min":93,"x_max":907,"o":"m 500 -19 q 324 3 400 -19 q 197 75 247 25 q 119 205 146 125 q 93 400 93 285 l 93 1014 l 303 1014 l 303 400 q 349 218 303 279 q 500 157 396 157 q 651 218 604 157 q 697 400 697 279 l 697 1014 l 907 1014 l 907 400 q 880 203 907 283 q 801 74 853 124 q 673 3 749 25 q 500 -19 597 -19 m 383 -65 l 560 -65 q 635 -157 597 -111 q 711 -249 672 -203 l 490 -249 l 383 -65 z "},"ų":{"ha":835,"x_min":72,"x_max":749,"o":"m 747 113 q 747 58 747 85 q 749 0 747 32 l 563 0 l 563 29 q 563 56 563 42 q 564 86 563 71 l 561 86 q 472 10 528 38 q 336 -17 415 -17 q 143 52 214 -17 q 72 271 72 121 l 72 731 l 267 731 l 267 319 q 301 183 267 224 q 403 142 336 142 q 515 192 478 142 q 553 338 553 242 l 553 731 l 747 731 l 747 113 m 297 -65 l 474 -65 q 549 -157 511 -111 q 625 -249 586 -203 l 404 -249 l 297 -65 z "},"Ů":{"ha":1001,"x_min":93,"x_max":907,"o":"m 500 -19 q 324 3 400 -19 q 197 75 247 25 q 119 205 146 125 q 93 400 93 285 l 93 1014 l 303 1014 l 303 400 q 349 218 303 279 q 500 157 396 157 q 651 218 604 157 q 697 400 697 279 l 697 1014 l 907 1014 l 907 400 q 880 203 907 283 q 801 74 853 124 q 673 3 749 25 q 500 -19 597 -19 m 496 1374 q 554 1362 526 1374 q 602 1330 582 1350 q 634 1283 622 1310 q 646 1226 646 1257 q 634 1167 646 1194 q 602 1120 622 1140 q 555 1088 582 1100 q 496 1076 528 1076 q 438 1088 464 1076 q 391 1120 411 1100 q 360 1167 371 1140 q 349 1226 349 1194 q 360 1283 349 1257 q 392 1330 372 1310 q 438 1362 411 1350 q 496 1374 465 1374 m 490 1283 q 453 1265 468 1281 q 438 1226 438 1249 q 455 1184 438 1201 q 496 1167 472 1167 q 538 1184 519 1167 q 556 1226 556 1201 q 538 1267 556 1250 q 496 1283 519 1283 l 490 1283 z "},"ů":{"ha":835,"x_min":72,"x_max":749,"o":"m 747 113 q 747 58 747 85 q 749 0 747 32 l 563 0 l 563 29 q 563 56 563 42 q 564 86 563 71 l 561 86 q 472 10 528 38 q 336 -17 415 -17 q 143 52 214 -17 q 72 271 72 121 l 72 731 l 267 731 l 267 319 q 301 183 267 224 q 403 142 336 142 q 515 192 478 142 q 553 338 553 242 l 553 731 l 747 731 l 747 113 m 415 1093 q 474 1081 447 1093 q 522 1049 501 1069 q 553 1003 542 1029 q 565 946 565 976 q 553 887 565 914 q 522 840 542 860 q 474 808 501 819 q 415 796 447 796 q 357 808 383 796 q 310 840 331 819 q 279 887 290 860 q 268 946 268 914 q 280 1003 268 976 q 311 1049 292 1029 q 358 1081 331 1069 q 415 1093 385 1093 m 415 1003 q 374 986 392 1003 q 357 946 357 969 q 374 903 357 921 q 415 886 392 886 q 457 903 439 886 q 475 946 475 921 q 457 986 475 969 q 415 1003 439 1003 z "},"Ũ":{"ha":1001,"x_min":93,"x_max":907,"o":"m 500 -19 q 324 3 400 -19 q 197 75 247 25 q 119 205 146 125 q 93 400 93 285 l 93 1014 l 303 1014 l 303 400 q 349 218 303 279 q 500 157 396 157 q 651 218 604 157 q 697 400 697 279 l 697 1014 l 907 1014 l 907 400 q 880 203 907 283 q 801 74 853 124 q 673 3 749 25 q 500 -19 597 -19 m 744 1279 q 698 1160 735 1207 q 594 1114 661 1114 q 511 1132 554 1114 l 492 1140 q 451 1158 472 1149 q 415 1167 431 1167 q 364 1115 379 1167 l 254 1128 q 301 1247 264 1200 q 404 1293 338 1293 q 488 1275 444 1293 l 507 1267 q 547 1249 526 1258 q 583 1240 568 1240 q 635 1292 619 1240 l 744 1279 z "},"ũ":{"ha":835,"x_min":72,"x_max":749,"o":"m 747 113 q 747 58 747 85 q 749 0 747 32 l 563 0 l 563 29 q 563 56 563 42 q 564 86 563 71 l 561 86 q 472 10 528 38 q 336 -17 415 -17 q 143 52 214 -17 q 72 271 72 121 l 72 731 l 267 731 l 267 319 q 301 183 267 224 q 403 142 336 142 q 515 192 478 142 q 553 338 553 242 l 553 731 l 747 731 l 747 113 m 663 999 q 616 880 653 926 q 513 833 579 833 q 429 851 472 833 l 410 860 q 369 877 390 868 q 333 886 349 886 q 282 835 297 886 l 172 847 q 219 966 182 919 q 322 1013 256 1013 q 406 994 363 1013 l 425 986 q 465 969 444 978 q 501 960 486 960 q 553 1011 538 960 l 663 999 z "},"Ẃ":{"ha":1328,"x_min":-6,"x_max":1333,"o":"m -6 1014 l 213 1014 l 292 643 q 335 431 315 535 q 371 226 354 326 l 376 226 q 419 431 396 326 q 464 629 442 535 l 551 1014 l 788 1014 l 871 644 q 915 440 894 540 q 957 228 936 340 l 963 228 q 1000 432 979 328 q 1044 643 1021 536 l 1125 1014 l 1333 1014 l 1089 0 l 840 0 l 751 385 q 706 596 728 489 q 667 794 685 703 l 661 794 q 623 594 644 699 q 576 383 601 490 l 486 0 l 236 0 l -6 1014 m 914 1294 l 750 1111 l 576 1111 q 628 1203 603 1157 q 679 1294 654 1249 l 914 1294 z "},"ẃ":{"ha":1133,"x_min":-6,"x_max":1139,"o":"m -6 731 l 194 731 l 265 449 q 295 324 281 388 q 324 193 310 260 l 329 193 q 361 331 344 263 q 389 443 378 400 l 463 731 l 675 731 l 747 446 q 777 319 763 382 q 806 192 792 257 l 811 192 q 840 316 825 253 q 872 451 854 379 l 943 731 l 1139 731 l 921 0 l 697 0 l 624 289 q 594 420 606 360 q 569 543 582 481 l 563 543 q 537 418 550 481 q 506 288 524 356 l 432 0 l 210 0 l -6 731 m 654 831 l 481 831 l 585 1014 l 818 1014 l 654 831 z "},"Ŵ":{"ha":1328,"x_min":-6,"x_max":1333,"o":"m -6 1014 l 213 1014 l 292 643 q 335 431 315 535 q 371 226 354 326 l 376 226 q 419 431 396 326 q 464 629 442 535 l 551 1014 l 788 1014 l 871 644 q 915 440 894 540 q 957 228 936 340 l 963 228 q 1000 432 979 328 q 1044 643 1021 536 l 1125 1014 l 1333 1014 l 1089 0 l 840 0 l 751 385 q 706 596 728 489 q 667 794 685 703 l 661 794 q 623 594 644 699 q 576 383 601 490 l 486 0 l 236 0 l -6 1014 m 578 1111 l 410 1111 l 550 1294 l 774 1294 l 915 1111 l 747 1111 l 663 1200 l 661 1200 l 578 1111 z "},"ŵ":{"ha":1133,"x_min":-6,"x_max":1139,"o":"m -6 731 l 194 731 l 265 449 q 295 324 281 388 q 324 193 310 260 l 329 193 q 361 331 344 263 q 389 443 378 400 l 463 731 l 675 731 l 747 446 q 777 319 763 382 q 806 192 792 257 l 811 192 q 840 316 825 253 q 872 451 854 379 l 943 731 l 1139 731 l 921 0 l 697 0 l 624 289 q 594 420 606 360 q 569 543 582 481 l 563 543 q 537 418 550 481 q 506 288 524 356 l 432 0 l 210 0 l -6 731 m 482 831 l 314 831 l 456 1014 l 679 1014 l 819 831 l 653 831 l 567 919 l 482 831 z "},"Ẅ":{"ha":1328,"x_min":-6,"x_max":1333,"o":"m -6 1014 l 213 1014 l 292 643 q 335 431 315 535 q 371 226 354 326 l 376 226 q 419 431 396 326 q 464 629 442 535 l 551 1014 l 788 1014 l 871 644 q 915 440 894 540 q 957 228 936 340 l 963 228 q 1000 432 979 328 q 1044 643 1021 536 l 1125 1014 l 1333 1014 l 1089 0 l 840 0 l 751 385 q 706 596 728 489 q 667 794 685 703 l 661 794 q 623 594 644 699 q 576 383 601 490 l 486 0 l 236 0 l -6 1014 m 608 1282 l 608 1119 l 446 1119 l 446 1282 l 608 1282 m 879 1282 l 879 1119 l 715 1119 l 715 1282 l 879 1282 z "},"ẅ":{"ha":1133,"x_min":-6,"x_max":1139,"o":"m -6 731 l 194 731 l 265 449 q 295 324 281 388 q 324 193 310 260 l 329 193 q 361 331 344 263 q 389 443 378 400 l 463 731 l 675 731 l 747 446 q 777 319 763 382 q 806 192 792 257 l 811 192 q 840 316 825 253 q 872 451 854 379 l 943 731 l 1139 731 l 921 0 l 697 0 l 624 289 q 594 420 606 360 q 569 543 582 481 l 563 543 q 537 418 550 481 q 506 288 524 356 l 432 0 l 210 0 l -6 731 m 511 839 l 349 839 l 349 1001 l 511 1001 l 511 839 m 783 839 l 619 839 l 619 1001 l 783 1001 l 783 839 z "},"Ẁ":{"ha":1328,"x_min":-6,"x_max":1333,"o":"m -6 1014 l 213 1014 l 292 643 q 335 431 315 535 q 371 226 354 326 l 376 226 q 419 431 396 326 q 464 629 442 535 l 551 1014 l 788 1014 l 871 644 q 915 440 894 540 q 957 228 936 340 l 963 228 q 1000 432 979 328 q 1044 643 1021 536 l 1125 1014 l 1333 1014 l 1089 0 l 840 0 l 751 385 q 706 596 728 489 q 667 794 685 703 l 661 794 q 623 594 644 699 q 576 383 601 490 l 486 0 l 236 0 l -6 1014 m 656 1294 q 706 1203 681 1249 q 758 1111 732 1157 l 585 1111 l 421 1294 l 656 1294 l 656 1294 z "},"ẁ":{"ha":1133,"x_min":-6,"x_max":1139,"o":"m -6 731 l 194 731 l 265 449 q 295 324 281 388 q 324 193 310 260 l 329 193 q 361 331 344 263 q 389 443 378 400 l 463 731 l 675 731 l 747 446 q 777 319 763 382 q 806 192 792 257 l 811 192 q 840 316 825 253 q 872 451 854 379 l 943 731 l 1139 731 l 921 0 l 697 0 l 624 289 q 594 420 606 360 q 569 543 582 481 l 563 543 q 537 418 550 481 q 506 288 524 356 l 432 0 l 210 0 l -6 731 m 561 1014 l 665 831 l 492 831 l 328 1014 l 561 1014 z "},"Ŷ":{"ha":875,"x_min":-14,"x_max":889,"o":"m 329 392 l -14 1014 l 217 1014 l 314 821 q 376 699 346 757 q 438 579 407 642 l 440 579 q 502 700 472 642 q 564 822 532 758 l 664 1014 l 889 1014 l 539 392 l 539 0 l 329 0 l 329 392 m 353 1111 l 185 1111 l 325 1294 l 549 1294 l 690 1111 l 522 1111 l 438 1200 l 436 1200 l 353 1111 z "},"ŷ":{"ha":740,"x_min":-6,"x_max":747,"o":"m -6 731 l 206 731 l 286 481 q 331 340 308 411 q 374 196 353 268 l 379 196 q 401 274 392 239 q 420 340 411 308 q 440 406 429 372 q 463 479 450 439 l 542 731 l 747 731 l 453 -51 q 397 -158 428 -117 q 328 -222 367 -199 q 240 -255 289 -246 q 133 -264 192 -264 q 105 -263 119 -264 q 75 -261 90 -262 l 57 -114 q 85 -115 72 -115 q 111 -115 99 -115 q 167 -112 142 -115 q 212 -97 192 -108 q 247 -62 232 -85 q 275 -3 263 -40 l -6 731 m 290 831 l 122 831 l 264 1014 l 488 1014 l 628 831 l 461 831 l 375 919 l 290 831 z "},"Ỳ":{"ha":875,"x_min":-14,"x_max":889,"o":"m 329 392 l -14 1014 l 217 1014 l 314 821 q 376 699 346 757 q 438 579 407 642 l 440 579 q 502 700 472 642 q 564 822 532 758 l 664 1014 l 889 1014 l 539 392 l 539 0 l 329 0 l 329 392 m 435 1294 q 485 1203 460 1249 q 538 1111 511 1157 l 364 1111 l 200 1294 l 435 1294 l 435 1294 z "},"ỳ":{"ha":740,"x_min":-6,"x_max":747,"o":"m -6 731 l 206 731 l 286 481 q 331 340 308 411 q 374 196 353 268 l 379 196 q 401 274 392 239 q 420 340 411 308 q 440 406 429 372 q 463 479 450 439 l 542 731 l 747 731 l 453 -51 q 397 -158 428 -117 q 328 -222 367 -199 q 240 -255 289 -246 q 133 -264 192 -264 q 105 -263 119 -264 q 75 -261 90 -262 l 57 -114 q 85 -115 72 -115 q 111 -115 99 -115 q 167 -112 142 -115 q 212 -97 192 -108 q 247 -62 232 -85 q 275 -3 263 -40 l -6 731 m 365 1014 l 469 831 l 296 831 l 132 1014 l 365 1014 z "}}}
